<?xml version="1.0" encoding="UTF-8"?>
<svg id="Layer_1" data-name="Layer 1" xmlns="http://www.w3.org/2000/svg" viewBox="0 0 439.38 146.87">
  <defs>
    <style>
      .cls-1 {
        fill: #009ec2;
      }

      .cls-2 {
        fill: #fdb913;
      }

      .cls-3 {
        fill: #68ad45;
      }

      .cls-4 {
        fill: #515457;
      }

      .cls-5 {
        fill: #851f83;
      }
    </style>
  </defs>
  <path class="cls-5" d="M44.34,43.76c-.09,4.57-.15,9.11-.23,13.64l3.86-4.93c.13-.23.43-.67,1.03-1.38,3.75-4.55,1.99-6.33-.06-6.99-1.51-.1-3.04-.21-4.6-.33"/>
  <path class="cls-5" d="M58.49,48.85c-4.42,4.83-9.91,10.89-14.52,15.92-.02,1.02-.04,2.05-.05,3.08,4.18.12,7.9.2,12.1.23.87-.01,1.96.01,3.13.01l-.66-19.25h0Z"/>
  <path class="cls-5" d="M58.78,17.85c.01-.75.07-1.53.07-2.28v-.08h.02c.1-1.73.17-3.46.28-5.23-.63,0-1.24-.03-1.82-.03-4.16-.11-8.3-.16-12.47-.21l8.91,10.39c3.66,3.72,4.73.12,5.01-2.57"/>
  <path class="cls-5" d="M39.26,9.93c-6.53-.09-13.06-.39-19.59-.37-3.93,0-12.23-1.44-12.08,2.51-.15,7.9-.18,15.26-.11,23.18,7.61-1.29,47.32-4.32,47.32-4.32-4.79-6.46-11.02-14.9-15.54-21.01"/>
  <path class="cls-3" d="M95,3.7l-17.65,22.49c-2.05,3.74.83,4.81,2.9,5.11.5.04,1,.07,1.53.11h.24-.06c3.55.26,7.27.53,10.77.76,1.47.02,2.02-.76,2.12-1.57.2-8.98.2-17.93.15-26.89"/>
  <path class="cls-3" d="M82.98.49c-3.42-.14-6.88-.26-10.3-.38-1.21-.02-2.98-.07-4.78-.11l.7,11.8.88,14.65c.07-.06.12-.13.18-.17,8.35-9.2,20.59-22.63,23.03-25.29-3.48-.55-7.31-.31-9.71-.49"/>
  <path class="cls-1" d="M110.44,41.03l-37.28,3.33c8.28,11.21,20.93,28.34,21.3,28.84,3.96,5.34,9.18,12.55,8.45,13.16-.99.79-6.85-6.23-10.59-10.31h-.02l-18.55-21.66c-2.84-2.69-4-.75-4.48,1.52-.28,5.72-.6,12.04-.86,17.9-.25,6.15-.5,12.29-.79,18.41-.05.66.45,1.2,1.2,1.5,2.29.86,7.57.01,10.16-.29,9.12-.97,18.04-1.78,27-3.47,3.1-.58,5.81-.92,7.77-1.53,3.25-1.04,3.58-3.41,3.99-6.42,1.61-11.13,3.37-28.6,4.17-42.37-3.91.6-8.59.95-11.44,1.41h-.03v-.02Z"/>
  <path class="cls-2" d="M32.52,72.17l3.59-4.6,8-10.18c.08-4.53.14-9.07.23-13.64-12.42-.88-26.23-1.88-26.75-1.91-2.79-.23-6.66-.49-10.09-.9-3.27-.4-6.19-.94-7.5-1.66.46,16.26,1.51,32.94,2.84,49.1.39,4.83,7.99,4.65,10.92,4.95,6.07.41,12.12,1.05,18.18,1.4,2.51.04,7.06.49,9.65,0,1.95-.38,1.85-3.64,1.88-4.63.16-7.42.32-14.81.45-22.24.02-1.03.03-2.06.05-3.08-.95,1.05-1.88,2.06-2.73,3.01-3.62,3.97-6.22,6.84-6.4,7.02-4.37,4.84-12.55,13.77-13.06,12.87-.62-1.17,7.37-10.95,10.72-15.49l.02-.02h0Z"/>
  <path class="cls-4" d="M168.37,55.89c.27,0,.47.07.59.18.11.12.17.29.17.57v.86c0,.54-.25.79-.76.79h-25.01v-2.4h3.25v-21.34h3.34v17.11c.39-1.35.91-2.55,1.54-3.55.64-1.04,1.33-1.87,2.1-2.54.78-.66,1.61-1.16,2.5-1.48.86-.33,1.71-.49,2.58-.49,1.06,0,2.03.19,2.87.63.84.4,1.55.97,2.16,1.71.59.74,1.04,1.62,1.36,2.65.31,1.04.48,2.17.48,3.37v3.92h2.83ZM162.11,52.33c0-2.01-.42-3.48-1.3-4.38-.86-.91-1.98-1.35-3.35-1.35-.76,0-1.55.19-2.33.58-.81.39-1.56.99-2.28,1.76-.71.79-1.35,1.75-1.9,2.92-.56,1.16-1.03,2.49-1.34,4.02h12.51v-3.56h0Z"/>
  <path class="cls-4" d="M172.96,58.29h-5.4c-.26,0-.45-.03-.58-.13-.07-.2-.09-.41-.09-.66v-.89c0-.21.02-.41.09-.61.14-.07.36-.11.58-.11h5.4v2.4h0Z"/>
  <path class="cls-4" d="M177.1,58.29h-5.38c-.26,0-.47-.03-.6-.13-.07-.2-.1-.41-.1-.66v-.89c0-.21.03-.41.1-.61.18-.07.37-.11.6-.11h5.38v2.4h0Z"/>
  <path class="cls-4" d="M176.17,58.29c-.25,0-.44-.06-.5-.19-.07-.14-.11-.34-.11-.55v-.99c0-.21.04-.36.12-.49.09-.11.26-.18.49-.18h3.32c-.15-.51-.25-1.01-.34-1.51-.05-.5-.08-1.02-.08-1.55,0-1.23.21-2.34.64-3.34.43-.99,1-1.81,1.71-2.49.73-.67,1.53-1.19,2.48-1.54.92-.35,1.91-.54,2.94-.54h4.29c.16,1.25.28,2.53.41,3.87.12,1.34.18,2.71.18,4.11,0,.51,0,.98-.04,1.48,0,.46-.03.98-.08,1.51h3.05c.26,0,.45.07.57.18.09.12.16.29.16.57v.86c0,.54-.25.79-.73.79h-18.48ZM181.98,39.69c0-.47.16-.89.51-1.21.33-.35.74-.5,1.23-.5.45,0,.88.15,1.23.5.34.32.53.74.53,1.21,0,.51-.18.9-.53,1.24-.35.35-.78.52-1.23.52-.48,0-.89-.17-1.23-.52-.35-.34-.51-.73-.51-1.24M188.12,55.9c.11-.64.2-1.26.23-1.89.06-.6.07-1.22.07-1.8,0-.85-.05-1.7-.11-2.49-.09-.8-.18-1.59-.27-2.38h-1.73c-.38,0-.78.07-1.25.24-.45.16-.89.44-1.28.82s-.72.88-1.02,1.5c-.27.61-.43,1.43-.43,2.35,0,.63.07,1.25.2,1.87.11.6.3,1.19.58,1.79h5.01ZM186.83,39.69c0-.47.17-.89.5-1.21.35-.35.74-.5,1.22-.5s.9.15,1.23.5c.32.32.46.74.46,1.21,0,.51-.15.9-.46,1.24-.34.35-.76.52-1.23.52s-.87-.17-1.22-.52c-.33-.34-.5-.73-.5-1.24"/>
  <path class="cls-4" d="M216.52,58.29c-1.03,0-1.89-.33-2.6-.95-.71-.65-1.14-1.51-1.29-2.6-.14,1.07-.53,1.91-1.12,2.58-.62.64-1.67.97-3.13.97h-.92c-1.05,0-1.95-.33-2.63-.95-.74-.62-1.17-1.51-1.33-2.6-.05.54-.17,1.04-.33,1.46-.22.43-.46.8-.78,1.12-.33.31-.76.57-1.28.73-.51.17-1.15.24-1.86.24h-5.18c-.27,0-.47-.06-.53-.19-.06-.14-.1-.34-.1-.55v-.99c0-.21.04-.36.12-.49.08-.11.24-.18.51-.18h4.73c.56,0,.96-.15,1.15-.44.19-.3.29-.82.29-1.57v-5.15h3.31v3.26c0,.58.06,1.1.15,1.55.12.48.25.89.47,1.24.22.36.52.62.91.81.36.19.83.3,1.35.3h1.49c.55,0,.92-.15,1.13-.44.19-.3.29-.82.29-1.57v-7.01h3.34v5.12c0,.58.06,1.1.15,1.55.1.48.26.89.47,1.24.21.36.51.62.89.81.39.19.83.3,1.38.3h1.21c.63,0,1.04-.15,1.22-.44.21-.3.28-.83.28-1.64v-8.9h3.32v7.07c0,.58.06,1.1.16,1.56.11.47.26.89.49,1.24.21.34.51.62.87.81.4.19.86.3,1.36.3h1.35c.28,0,.46.07.58.18.12.12.17.29.17.57v.86c0,.54-.23.79-.75.79h-.52c-1.07,0-1.91-.33-2.53-1.01-.65-.66-1.05-1.5-1.22-2.53-.06.52-.17,1.02-.36,1.46-.18.42-.44.8-.77,1.12-.3.31-.75.57-1.26.73-.53.17-1.16.24-1.89.24h-.76,0Z"/>
  <path class="cls-4" d="M230.34,58.29h-5.38c-.26,0-.44-.05-.59-.13-.06-.2-.08-.41-.08-.66v-.89c0-.21.02-.41.08-.61.15-.07.34-.11.59-.11h5.38v2.4h0Z"/>
  <path class="cls-4" d="M234.51,58.29h-5.37c-.27,0-.46-.05-.62-.13-.06-.2-.09-.41-.09-.66v-.89c0-.21.02-.41.09-.61.16-.07.36-.11.62-.11h5.37v2.4h0Z"/>
  <path class="cls-4" d="M233.6,58.29c-.27,0-.46-.06-.51-.19-.09-.15-.13-.34-.13-.55v-1c0-.19.04-.35.14-.47.06-.12.25-.18.5-.18h3.06c-.06-1.04-.11-2.01-.11-2.99,0-1.41.05-2.79.17-4.12.12-1.34.23-2.62.41-3.87h4.55c1.03,0,1.96.19,2.87.55.9.37,1.72.9,2.4,1.6.65.69,1.19,1.52,1.62,2.5.38.97.59,2.06.59,3.26,0,.91-.09,1.84-.31,2.78-.23.95-.5,1.84-.84,2.67h-14.42.01ZM245.11,55.89c.27-.61.47-1.19.61-1.79.12-.62.17-1.24.17-1.86,0-.93-.11-1.75-.4-2.36-.28-.62-.62-1.12-1.01-1.5-.41-.39-.87-.66-1.32-.82-.44-.17-.87-.24-1.25-.24h-1.68c-.09.78-.19,1.57-.27,2.38-.07.79-.13,1.64-.13,2.46,0,1.21.09,2.46.3,3.72h4.98Z"/>
  <path class="cls-4" d="M264.68,57.55c0,1.5-.18,2.71-.51,3.67-.39.92-.83,1.69-1.33,2.21-.53.53-1.1.88-1.68,1.1-.58.2-1.12.31-1.59.31-.65,0-1.28-.11-1.97-.31-.69-.22-1.33-.48-1.88-.83l.25-.79c.25.09.55.17.87.2.34.03.61.05.89.05.63,0,1.19-.09,1.63-.24.42-.15.82-.43,1.09-.84.31-.39.54-.96.67-1.68.13-.7.2-1.65.2-2.79v-12.7h3.35v12.63h0Z"/>
  <path class="cls-4" d="M269.31,58.29v-23.73h3.33v21.34h2.64c.26,0,.45.07.57.18.1.12.16.29.16.57v.86c0,.54-.25.79-.73.79h-5.97Z"/>
  <path class="cls-4" d="M279.8,58.29h-5.4c-.26,0-.43-.05-.57-.13-.08-.2-.08-.41-.08-.66v-.89c0-.21,0-.41.08-.61.14-.07.34-.11.57-.11h5.4v2.4h0Z"/>
  <path class="cls-4" d="M283.95,58.29h-5.39c-.25,0-.45-.05-.59-.13-.05-.2-.08-.41-.08-.66v-.89c0-.21.03-.41.08-.61.16-.07.36-.11.59-.11h5.39v2.4h0Z"/>
  <path class="cls-4" d="M289.55,43.61c1.07,0,2.09.12,3.03.33.91.22,1.72.58,2.37,1.12.66.53,1.19,1.25,1.56,2.17.38.91.55,2.07.55,3.46v1.15c0,1.25.22,2.24.65,2.95.45.72,1.17,1.09,2.27,1.09h1.5c.27,0,.47.07.58.18.11.12.16.3.16.56v.86c0,.53-.26.79-.74.79h-.76c-1.04,0-1.88-.34-2.5-1.01-.63-.66-1.06-1.5-1.21-2.53-.16,1.09-.52,1.98-1.17,2.6-.64.62-1.67.95-3.15.95h-9.64c-.34,0-.54-.07-.59-.24-.08-.15-.12-.34-.12-.56v-.82c0-.23.05-.4.12-.55.1-.15.28-.22.59-.22h9.23c.58,0,.95-.14,1.14-.41.21-.27.29-.81.29-1.6v-3.11c0-.69-.08-1.32-.23-1.92-.15-.61-.38-1.12-.71-1.54-.32-.45-.77-.8-1.31-1.05-.51-.24-1.16-.38-1.92-.38h-3.82v-1.95l6.28-10.1,2.55,1.75-5.01,8.03h.01Z"/>
  <path class="cls-4" d="M300.54,58.29c-.3,0-.51-.06-.56-.19-.08-.14-.11-.34-.11-.54v-1.01c0-.19.03-.36.13-.48.1-.11.25-.18.53-.18h3.98c.61,0,1-.15,1.17-.44.2-.3.29-.85.29-1.64v-8.9h3.35v7.07c0,1.01.15,1.87.47,2.56.3.67.87,1.11,1.67,1.28.15,0,.29.02.44.04.15.02.3.02.45.02h1.44c.28,0,.49.07.59.18.13.12.21.3.21.56v.86c0,.53-.29.79-.8.79h-1.03c-.17,0-.33,0-.46-.06-.85-.17-1.51-.56-2.04-1.18s-.83-1.41-1-2.31c-.06.52-.18,1.01-.35,1.44-.21.43-.44.81-.79,1.14-.29.31-.71.57-1.23.73-.49.17-1.16.24-1.88.24h-4.49l.02.02ZM303.05,39.69c0-.47.2-.89.52-1.21.33-.35.74-.5,1.22-.5.45,0,.91.15,1.23.5.34.32.53.74.53,1.21,0,.51-.19.9-.53,1.24-.33.35-.78.52-1.23.52-.48,0-.89-.17-1.22-.52-.32-.34-.52-.72-.52-1.24M307.91,39.69c0-.47.17-.89.51-1.21.33-.35.74-.5,1.21-.5.52,0,.91.15,1.25.5.31.32.48.74.48,1.21,0,.51-.17.9-.48,1.24-.35.35-.74.52-1.25.52-.47,0-.88-.17-1.21-.52-.34-.34-.51-.72-.51-1.24"/>
  <path class="cls-4" d="M318.26,58.29h-5.38c-.27,0-.46-.05-.6-.13-.06-.2-.09-.41-.09-.66v-.9c0-.21.02-.41.09-.6.16-.07.35-.11.6-.11h5.38v2.4h0Z"/>
  <path class="cls-4" d="M317.33,58.29c-.26,0-.45-.06-.52-.19-.07-.14-.11-.34-.11-.54v-1c0-.19.04-.36.12-.48.1-.11.26-.18.5-.18h4.49v-10.97h3.35v13.37h-7.84,0ZM321.33,62.29c0-.51.15-.95.49-1.26.33-.33.72-.49,1.21-.49s.9.16,1.24.49c.32.31.51.74.51,1.26,0,.47-.18.89-.51,1.21-.35.33-.76.5-1.24.5s-.89-.17-1.21-.5c-.34-.32-.49-.74-.49-1.21"/>
  <polygon class="cls-4" points="328.39 58.29 328.39 55.89 335.32 55.89 335.32 40.32 338.73 40.32 338.73 55.89 344.5 55.89 344.5 34.55 347.85 34.55 347.85 58.29 328.39 58.29"/>
  <rect class="cls-4" x="352.61" y="34.55" width="3.33" height="23.74"/>
  <path class="cls-4" d="M367.69,59.39c0,2.03.44,3.61,1.34,4.78.86,1.16,2.25,1.75,4.13,1.75.3,0,.61,0,.92-.03.3-.03.63-.07.96-.16.05.18.08.35.08.53.04.19.04.37.06.56-.41.13-.86.22-1.37.32-.48.07-1.04.1-1.64.1-1.16,0-2.23-.13-3.14-.41-.96-.27-1.75-.69-2.42-1.25-.7-.56-1.2-1.27-1.58-2.13-.34-.86-.53-1.9-.53-3.12v-4.44h5.31c-.88-.89-1.62-1.82-2.18-2.81-.59-.98-.87-2.07-.87-3.26,0-1.06.2-1.99.62-2.75.39-.78.92-1.42,1.6-1.94.63-.5,1.37-.9,2.23-1.17.83-.25,1.68-.4,2.55-.4.22,0,.5.05.85.06.3.05.65.09.96.15.34.05.68.14,1,.24.33.11.63.22.89.33v2.4c-.41-.18-.86-.35-1.4-.45-.54-.12-.94-.18-1.24-.18-.62,0-1.22.09-1.76.22-.57.17-1.08.41-1.51.75-.41.31-.74.79-1,1.32-.25.54-.36,1.21-.36,1.96,0,.56.07,1.11.22,1.67.19.56.4,1.05.7,1.53.28.49.62.92.96,1.3.35.39.71.72,1.07,1.02h7.19c.28,0,.49.07.59.18.12.12.15.3.15.56v.86c0,.53-.23.79-.74.79h-12.64v1.11h0Z"/>
  <path class="cls-4" d="M384.86,58.29h-5.38c-.26,0-.46-.05-.59-.13-.06-.21-.1-.41-.1-.66v-.9c0-.21.04-.41.1-.6.15-.07.36-.11.59-.11h5.38v2.4h0Z"/>
  <path class="cls-4" d="M383.95,58.29c-.28,0-.46-.06-.52-.19-.08-.16-.13-.34-.13-.56v-.99c0-.19.06-.36.15-.48.06-.11.23-.18.5-.18h2.96c-.02-.53-.05-1.04-.07-1.51-.02-.49-.02-.97-.02-1.48,0-1.41.08-2.79.19-4.13.09-1.33.24-2.6.4-3.86h4.29c1.03,0,2.02.19,2.93.54.96.36,1.78.88,2.48,1.57.73.69,1.28,1.52,1.7,2.49s.62,2.08.62,3.32c0,.51-.03,1.03-.1,1.54-.06.5-.17,1.01-.27,1.52h3.21c.29,0,.49.07.6.18.12.11.17.29.17.56v.86c0,.53-.25.79-.77.79h-18.32ZM395.38,55.89c.25-.61.46-1.19.59-1.79.12-.62.2-1.24.2-1.86,0-.93-.14-1.75-.41-2.36-.3-.62-.64-1.12-1.03-1.5-.42-.39-.85-.66-1.31-.82-.46-.17-.89-.24-1.26-.24h-1.69c-.1.78-.21,1.57-.3,2.38-.06.78-.09,1.62-.09,2.46,0,1.21.09,2.46.28,3.72h5.02Z"/>
  <path class="cls-4" d="M420.21,55.89c.31,0,.49.07.6.18.09.11.17.29.17.56v.86c0,.53-.29.79-.77.79h-18.52c-.28,0-.44-.06-.52-.18-.07-.16-.1-.35-.1-.56v-.99c0-.19.04-.36.13-.47.07-.11.25-.18.5-.18h12.54c-.25-.61-.48-1.27-.63-2.01-.18-.73-.29-1.46-.43-2.22-.11-.75-.27-1.51-.43-2.25-.21-.72-.48-1.38-.84-1.94-.37-.56-.84-1-1.45-1.35-.62-.33-1.41-.51-2.4-.51s-2.11.24-3.38.7c-.11-.27-.2-.55-.26-.84-.07-.26-.16-.56-.21-.82.27-.14.57-.23.93-.38.38-.12.75-.23,1.16-.33.4-.1.83-.18,1.27-.26.43-.06.86-.11,1.27-.11,1.64,0,2.95.32,3.95.86.97.57,1.74,1.31,2.27,2.23.55.88.96,1.9,1.19,3.04s.43,2.28.55,3.42c.07.49.14.96.17,1.43.07.46.15.91.26,1.36h2.98v-.03ZM407.3,62.28c0-.51.17-.95.51-1.26.31-.33.74-.49,1.23-.49s.9.16,1.22.49c.35.31.52.74.52,1.26,0,.47-.17.89-.52,1.21-.32.33-.73.5-1.22.5s-.91-.17-1.23-.5c-.34-.32-.51-.74-.51-1.21"/>
  <path class="cls-4" d="M424.72,58.29h-5.38c-.28,0-.46-.05-.59-.13-.07-.21-.09-.41-.09-.66v-.9c0-.21.02-.41.09-.6.16-.07.34-.11.59-.11h5.38v2.4h0Z"/>
  <path class="cls-4" d="M423.78,58.29c-.26,0-.45-.06-.51-.18-.03-.16-.09-.35-.09-.56v-.99c0-.19.06-.36.11-.47.07-.12.23-.18.49-.18h3.1c-.1-1.04-.11-2.01-.11-2.99,0-1.41.07-2.79.17-4.13.09-1.34.24-2.6.38-3.86h4.57c1,0,1.95.19,2.85.55.93.37,1.71.9,2.39,1.6.7.69,1.24,1.51,1.62,2.48.42,1,.63,2.09.63,3.28,0,.91-.11,1.82-.34,2.78-.23.95-.51,1.84-.86,2.67h-14.41,0ZM435.32,55.89c.26-.61.49-1.19.6-1.79.14-.62.18-1.24.18-1.86,0-.93-.13-1.75-.38-2.35-.3-.63-.63-1.13-1.03-1.5-.42-.39-.84-.67-1.3-.83-.44-.17-.86-.24-1.24-.24h-1.71c-.09.78-.18,1.57-.25,2.38-.08.78-.13,1.62-.13,2.46,0,1.21.1,2.46.28,3.72h5-.02Z"/>
  <path class="cls-4" d="M143.15,93.4v-14.79c0-1.46,0-3.92-.25-5.91h3.73v20.7h-3.48Z"/>
  <path class="cls-4" d="M151.11,93.4c.21-1.82.21-3.92.21-4.89v-3.95c0-.98,0-3.22-.35-5.21h3.5v1.71c.85-.91,2.33-1.94,4.3-1.94,3.01,0,4.75,1.55,4.75,4.97v4.42c0,.97,0,3.07.19,4.89h-3.61c.22-1.82.22-3.92.22-4.89v-3.2c0-2.7-.7-3.69-2.84-3.69-1.19,0-2.24.56-2.96,1.12v5.77c0,.97,0,3.14.18,4.89h-3.59Z"/>
  <path class="cls-4" d="M167.69,93.4c.21-1.82.21-3.92.21-4.89v-3.95c0-.98,0-3.22-.35-5.21h3.47v1.71c.87-.91,2.35-1.94,4.31-1.94,3.02,0,4.77,1.55,4.77,4.97v4.42c0,.97,0,3.07.19,4.89h-3.61c.19-1.82.19-3.92.19-4.89v-3.2c0-2.7-.7-3.69-2.8-3.69-1.21,0-2.24.56-2.98,1.12v5.77c0,.97,0,3.14.2,4.89h-3.61,0Z"/>
  <path class="cls-4" d="M183.13,86.69c0-4.79,3.33-7.61,7.5-7.61s6.93,2.58,6.93,7.07c0,4.87-3.3,7.73-7.56,7.73s-6.86-2.76-6.86-7.18M194.11,86.45c0-3.52-1.57-5.29-3.72-5.29-2.45,0-3.8,2.12-3.8,5.18,0,3.54,1.55,5.42,3.8,5.42,2.39,0,3.72-2.19,3.72-5.32"/>
  <path class="cls-4" d="M203.47,93.73l-4.89-14.36h3.49l3.46,10.96.8-1.87c.87-2.05,2.03-4.93,2.03-7.19,0-.84-.28-1.42-.58-1.64.34-.35.95-.53,1.7-.53,1.1,0,1.77.69,1.77,2.22,0,1.76-1.76,5.33-2.68,7.28l-2.27,4.78-2.83.33v.02Z"/>
  <path class="cls-4" d="M221.4,93.4l-.23-1.26c-.66.72-1.89,1.65-3.8,1.65-2.65,0-4.53-1.11-4.53-3.87,0-2.6,2.52-3.92,5.42-4.26l2.76-.32v-.97c0-2.27-.85-3.12-2.57-3.12-1.85,0-2.97,1.08-3.67,2.21-.62-.09-1.22-.55-1.22-1.55,0-1.7,2.66-2.8,5.24-2.8,3.42,0,5.39,1.33,5.39,4.37,0,2.28-.13,4.47-.13,6.44,0,.84.13,2.15.52,3.48h-3.18ZM221.02,90.76v-3.72l-1.41.17c-1.3.14-2.54.4-3.19.77-.29.34-.53.89-.53,1.5,0,1.45.92,2.2,2.39,2.2,1.01,0,1.96-.36,2.74-.92"/>
  <path class="cls-4" d="M226.9,79.64c.04-.15.14-.26.34-.26h1.62c0-.74.01-1.35.02-1.67.62-.66,2.71-1.48,3.01-1.51.21,0,.35.07.35.36,0,.21-.06,1.33-.09,2.82h3.99c0,.87-.27,1.81-.85,2.23h-3.24c-.06,2.59-.15,5.55-.15,7.41,0,1.73.35,2.37,1.65,2.37,1.06,0,1.88-.38,2.43-.79h.17c0,.76-.12,1.76-.42,2.31-.44.32-1.52.88-3.03.88-2.42,0-4.02-1.11-4.02-4.06,0-2.06.04-5.43.1-8.12h-2.22l.34-1.98h0Z"/>
  <path class="cls-4" d="M238.56,93.4c.22-1.82.22-3.92.22-4.89v-3.94c0-.99,0-3.22-.36-5.22h3.54v9.16c0,.97,0,3.14.21,4.89h-3.61ZM238.66,74.17c0-1.16.77-1.98,1.76-1.98,1.08,0,1.83.82,1.83,1.98,0,1.06-.68,1.85-1.83,1.85-.99,0-1.76-.79-1.76-1.85"/>
  <path class="cls-4" d="M245.12,86.68c0-4.78,3.35-7.6,7.53-7.6s6.93,2.58,6.93,7.07c0,4.87-3.28,7.71-7.57,7.71s-6.9-2.74-6.9-7.18M256.12,86.44c0-3.52-1.58-5.29-3.74-5.29-2.43,0-3.8,2.12-3.8,5.18,0,3.54,1.57,5.42,3.8,5.42,2.42,0,3.74-2.19,3.74-5.32"/>
  <path class="cls-4" d="M262.54,93.4c.22-1.82.22-3.92.22-4.89v-3.95c0-.99,0-3.22-.33-5.22h3.48v1.7c.84-.91,2.34-1.94,4.29-1.94,3.03,0,4.77,1.55,4.77,4.97v4.42c0,.97,0,3.07.19,4.89h-3.62c.22-1.82.22-3.92.22-4.89v-3.2c0-2.7-.7-3.69-2.82-3.69-1.23,0-2.25.56-2.98,1.12v5.77c0,.97,0,3.14.2,4.89h-3.62v.02Z"/>
  <path class="cls-4" d="M285.73,78.61c0-1.26,0-3.91-.22-5.9h.08c1.32-.12,4.18-.26,6.13-.26,4.4,0,7.48,1.93,7.48,5.96,0,5.02-3.66,7.27-7.92,7.27-.6,0-1.4-.07-2.04-.16v2c0,1.36,0,3.93.25,5.88h-3.77v-14.79h.01ZM289.24,74.94v8.23c.59.14,1.3.26,1.97.26,2.53,0,4.4-1.45,4.4-4.75,0-2.78-1.69-3.93-4.45-3.93-.65,0-1.33.07-1.92.19"/>
  <path class="cls-4" d="M309.28,93.4l-.22-1.26c-.66.72-1.89,1.65-3.8,1.65-2.64,0-4.53-1.11-4.53-3.87,0-2.61,2.51-3.92,5.4-4.26l2.78-.32v-.98c0-2.27-.85-3.12-2.58-3.12-1.84,0-2.97,1.08-3.65,2.21-.66-.09-1.23-.55-1.23-1.55,0-1.7,2.64-2.81,5.25-2.81,3.42,0,5.39,1.33,5.39,4.37,0,2.28-.14,4.47-.14,6.44,0,.81.14,2.15.52,3.48h-3.18v.02ZM308.91,90.76v-3.72l-1.42.17c-1.28.14-2.54.4-3.2.77-.27.33-.52.89-.52,1.5,0,1.45.92,2.2,2.38,2.2,1.03,0,1.98-.36,2.76-.92"/>
  <path class="cls-4" d="M316.36,93.4c.22-1.82.22-3.92.22-4.89v-3.95c0-.99,0-3.23-.34-5.22h3.36l.14,1.99c.65-.89,1.86-2.22,3.28-2.22.9,0,1.51.24,1.9.63,0,1.06-.42,2.06-1.24,2.71-.63,0-.94-.64-1.79-.64-.79,0-1.45.43-2.11,1.46v5.24c0,.97,0,3.14.2,4.89h-3.63,0Z"/>
  <path class="cls-4" d="M326.59,93.4c.23-1.82.23-3.92.23-4.89v-11.83c0-1.01,0-3.2-.34-5.16h3.55v16.99c0,.97,0,3.14.19,4.89h-3.63ZM338.58,92.69c.19.22.27.54.27.71h-3.41l-5.38-7.39,4.19-5.08c1.03-1.19,1.8-1.82,3.18-1.82.76,0,1.47.35,1.77.63-.63.28-1.65,1.14-2.55,2.16l-3.3,3.62,5.22,7.17h.01Z"/>
  <path class="cls-4" d="M347.16,93.4l1.27-17.65c.03-.22.03-.49.03-.77,0-.8-.04-1.66-.14-2.28h4.23l5.84,16.96,6.51-16.96h3.91l1.15,20.7h-3.51l-.85-15.64-6.02,15.64h-2.82l-5.41-15.64-1.09,15.64h-3.12.02Z"/>
  <path class="cls-4" d="M382.97,93.4l-.11-1.72h-.05c-.89,1.01-2.32,2.05-4.35,2.05-2.98,0-4.73-1.61-4.73-5.06v-4.37c0-1,0-3.12-.15-4.96h3.59c-.19,1.84-.19,3.96-.19,4.96v3.15c0,2.71.61,3.74,2.8,3.74,1.21,0,2.23-.58,2.95-1.12v-5.77c0-1,0-3.21-.14-4.96h3.56c-.18,1.84-.18,3.96-.18,4.96v3.95c0,.98,0,3.18.3,5.15h-3.3Z"/>
  <path class="cls-4" d="M389.12,91.14c0-.94.36-1.45.7-1.57.64,1.03,2.41,2.08,4.25,2.08,1.7,0,2.6-.6,2.6-1.83,0-1.13-.69-1.64-2.19-2.01l-2.09-.5c-1.44-.43-2.98-1.3-2.98-3.78,0-2.69,2.61-4.43,5.79-4.43,2.01,0,3.44.4,4.07.75.13.26.21.63.21,1.07,0,.8-.29,1.4-.59,1.62-.74-.65-2.26-1.28-3.92-1.29-1.36,0-2.35.64-2.35,1.69,0,.94.47,1.43,1.58,1.69l2.23.61c2.26.65,3.54,1.61,3.54,3.89,0,2.99-2.52,4.68-5.86,4.67-3.13,0-4.99-.73-4.99-2.66"/>
  <path class="cls-4" d="M401.94,86.62c0-4.53,3.54-7.51,7.89-7.51,1.55,0,3.14.47,3.8.82,0,1.11-.49,2.04-1.16,2.41-1.18,0-1.4-1.07-3.31-1.07-2.04,0-3.78,1.74-3.78,4.87,0,3.68,1.69,5.26,4.08,5.26,1.79,0,3.01-.7,3.71-1.28.19,0,.31.23.31.68s-.06.97-.31,1.49c-.43.44-1.82,1.52-4.35,1.52-4.05,0-6.88-2.49-6.88-7.19"/>
  <path class="cls-4" d="M424.17,93.4l-.22-1.26c-.66.73-1.9,1.66-3.81,1.66-2.64,0-4.55-1.12-4.55-3.87,0-2.6,2.53-3.92,5.43-4.27l2.75-.32v-.98c0-2.27-.82-3.11-2.54-3.11-1.85,0-2.96,1.07-3.65,2.21-.68-.09-1.26-.56-1.26-1.56,0-1.7,2.64-2.81,5.26-2.81,3.42,0,5.39,1.33,5.39,4.38,0,2.27-.14,4.46-.14,6.43,0,.82.14,2.15.53,3.48h-3.19v.02ZM423.78,90.76v-3.72l-1.38.16c-1.33.14-2.56.41-3.21.77-.28.33-.53.89-.53,1.5,0,1.45.92,2.2,2.41,2.2,1,0,1.95-.37,2.72-.92"/>
  <path class="cls-4" d="M429.71,79.64c.05-.14.12-.25.33-.25h1.58c0-.74.06-1.35.08-1.67.57-.65,2.67-1.48,3-1.51.19,0,.32.07.32.36,0,.21-.05,1.33-.08,2.83h3.98c0,.87-.25,1.8-.84,2.23h-3.23c-.06,2.59-.15,5.55-.15,7.41,0,1.71.32,2.38,1.63,2.38,1.08,0,1.87-.39,2.44-.79h.15c0,.76-.09,1.76-.4,2.3-.44.32-1.53.9-3.03.9-2.42,0-4.01-1.12-4.01-4.07,0-2.05.04-5.43.1-8.12h-2.23l.36-1.98v-.02Z"/>
  <path class="cls-1" d="M143.19,144.83c1.49-.02,2.73-.49,3.75-1.44,1.07-1,1.61-2.26,1.61-3.82l-.05-6.89h2.61l.05,6.62c0,2.12-.58,3.85-1.75,5.24-1.14,1.39-2.68,2.17-4.6,2.31-.36-.49-.9-1.17-1.61-2.02"/>
  <path class="cls-1" d="M159.94,141.57h-3c-.68,0-1.27-.24-1.73-.71-.54-.51-.83-1.24-.83-2.17l-.07-12.88h2.58l.1,11.86c0,.88.44,1.53,1.12,1.53h1.83v2.36h0Z"/>
  <rect class="cls-1" x="159.48" y="139.21" width="5.62" height="2.36"/>
  <rect class="cls-1" x="164.64" y="139.21" width="5.62" height="2.36"/>
  <path class="cls-1" d="M186.58,141.57h-16.78v-2.36h4.63c-.54-.8-.8-1.66-.8-2.61,0-.66.1-1.27.29-1.8-.54.22-1.02.41-1.44.61-.17-.36-.54-1.14-1.1-2.36,2.24-1.05,4.33-1.58,6.26-1.58,2.85,0,5.14,1.17,6.82,3.48,1.41,1.92,2.12,4.14,2.12,6.62M179.62,136.6c0-.8-.2-1.44-.58-1.95-.34-.41-.75-.63-1.22-.63s-.83.22-1.14.63c-.37.51-.56,1.15-.56,1.95s.19,1.46.56,1.92c.34.44.75.66,1.22.66,1,0,1.73-.93,1.73-2.58M183.65,139.18c-.27-1.24-.85-2.34-1.75-3.29.05.24.07.49.07.75,0,1-.19,1.83-.61,2.53h2.29Z"/>
  <path class="cls-1" d="M200.24,141.57h-10.74l1.22-2.36h6.77c-.15-1.34-.61-2.41-1.41-3.21-.66-.66-1.31-1-1.97-1v-2.31c1.92,0,3.43.73,4.48,2.17,1.1,1.53,1.66,3.77,1.66,6.72"/>
  <path class="cls-1" d="M199.82,144.83c1.49-.02,2.73-.49,3.75-1.44,1.07-1,1.61-2.26,1.61-3.82l-.05-6.89h2.61l.05,6.62c0,2.12-.58,3.85-1.75,5.23-1.14,1.39-2.68,2.17-4.6,2.31-.37-.49-.9-1.17-1.61-2.02M205.14,128.24h2.36v2.46h-2.36v-2.46Z"/>
  <path class="cls-1" d="M218.72,136.8c0,1.41-.58,2.56-1.78,3.46-1.17.88-2.68,1.31-4.53,1.31h-2.07v-2.36h1.07c1.14,0,2.12-.22,2.97-.68,1.14-.61,1.73-1.58,1.73-2.87,0-.07-.05-3.34-.15-9.84h2.61l.15,10.98h0ZM213.92,136.68c-.49.61-1.66.85-2.56.93l-.12-11.78h2.56l.12,10.86h0Z"/>
  <polygon class="cls-1" points="224.56 141.57 222.01 141.57 221.88 125.81 224.44 125.81 224.56 141.57"/>
  <rect class="cls-1" x="231.36" y="139.21" width="2.29" height="2.39"/>
  <path class="cls-1" d="M247.57,139.18h-6.67c-1.73,0-2.7,1-2.7,2.63,0,.8.29,1.46.85,1.97.51.46,1.12.71,1.78.71h3.21v2.36h-3.41c-1.36,0-2.53-.49-3.51-1.46-.95-.95-1.44-2.12-1.44-3.48s.41-2.53,1.24-3.53c.9-1.05,2-1.58,3.34-1.58h4.67c-.19-1.34-.71-2.31-1.53-2.92-.61-.46-1.32-.71-2.12-.68-.85,0-1.7.34-2.61,1l-.9-1.92c1.1-.95,2.36-1.41,3.82-1.41,1.88,0,3.38.9,4.48,2.68,1,1.58,1.49,3.46,1.49,5.65"/>
  <path class="cls-1" d="M256.36,141.57h-2.99c-.68,0-1.27-.24-1.73-.71-.54-.51-.83-1.24-.83-2.17l-.07-12.88h2.58l.1,11.86c0,.88.44,1.53,1.12,1.53h1.83v2.36h0Z"/>
  <rect class="cls-1" x="255.9" y="139.21" width="5.62" height="2.36"/>
  <rect class="cls-1" x="261.06" y="139.21" width="5.62" height="2.36"/>
  <path class="cls-1" d="M281.76,141.57h-15.53v-2.36h10.69c-.49-2.9-1.9-4.33-4.24-4.33-1.49,0-2.56.27-3.24.83l-1-2c.97-.85,2.41-1.27,4.31-1.27s3.53.68,4.7,2.07c1,1.14,1.63,2.73,1.92,4.7h2.39v2.36h0ZM274.33,145.27h-2.34v-2.46h2.34v2.46Z"/>
  <rect class="cls-1" x="281.3" y="139.21" width="5.62" height="2.36"/>
  <rect class="cls-1" x="286.46" y="139.21" width="5.62" height="2.36"/>
  <path class="cls-1" d="M303.38,141.57h-2.41c-.73,0-1.36-.32-1.87-.93-.27-.34-.49-.68-.61-1.05-.41,1.19-1.68,1.95-3.02,1.97h-3.85v-2.36h2.87c.46,0,.88-.12,1.27-.39.51-.32.75-.75.75-1.31l-.05-4.82h2.56c0,.9.02,2.17.07,3.8,0,.85.24,1.53.75,2.05.41.46.85.68,1.34.68h2.19v2.36h0ZM298.87,130.73h-2.36v-2.46h2.36v2.46Z"/>
  <rect class="cls-1" x="302.94" y="139.21" width="5.62" height="2.36"/>
  <rect class="cls-1" x="308.1" y="139.21" width="5.62" height="2.36"/>
  <path class="cls-1" d="M319.13,138.4c0,1.95-1.17,3.17-3.29,3.17h-2.58v-2.36h1.66c.95,0,1.65-.59,1.65-1.68,0-1.51-.02-3.46-.05-5.84-.03-2.7-.05-4.67-.05-5.87h2.56c.02,1.12.02,3.21.05,6.31.02,2.63.05,4.72.05,6.28"/>
  <polygon class="cls-1" points="324.98 141.57 322.42 141.57 322.3 125.81 324.86 125.81 324.98 141.57"/>
  <rect class="cls-1" x="331.77" y="139.21" width="2.29" height="2.39"/>
  <path class="cls-1" d="M349.11,140.01c0,1.9-.63,3.51-1.9,4.84-1.24,1.34-2.78,2.02-4.55,2.02s-3.29-.68-4.55-2.02c-1.27-1.34-1.9-2.95-1.9-4.87l-.1-4.97h2.61c0,1.87,0,3.55.02,5.01,0,1.14.39,2.14,1.14,2.95.75.83,1.68,1.24,2.78,1.24s2-.41,2.75-1.24c.78-.83,1.17-1.83,1.17-2.99l-.12-4.99h2.61l.05,5.02h-.01ZM343.73,132.71h-2.36v-2.46h2.36v2.46Z"/>
  <path class="cls-1" d="M353.12,144.83c2.22,0,4.14-1.24,4.92-3.26h-1.7c-2.41,0-4.07-2.05-4.07-4.36,0-2.75,2.05-4.58,4.55-4.58,2.68,0,4.19,1.51,4.19,3.85v2.82c0,4.19-2.48,7.26-6.31,7.55-.36-.49-.9-1.17-1.58-2.02M358.43,139.18c-.02-2-.02-3.09-.02-3.29,0-.54-.73-1.49-1.58-1.49-1.12,0-1.97,1.02-1.97,2.68,0,1.14.83,2.09,1.85,2.09h1.73-.01Z"/>
  <path class="cls-1" d="M369.83,141.57h-3c-.68,0-1.27-.24-1.73-.71-.54-.51-.83-1.24-.83-2.17l-.07-12.88h2.58l.1,11.86c0,.88.44,1.53,1.12,1.53h1.83v2.36h0Z"/>
  <rect class="cls-1" x="369.37" y="139.21" width="5.62" height="2.36"/>
  <rect class="cls-1" x="374.53" y="139.21" width="5.62" height="2.36"/>
  <path class="cls-1" d="M395.61,141.57h-4.99c-1,0-1.83-.39-2.48-1.17-1.44.78-2.85,1.17-4.19,1.17h-4.24v-2.36h4.21c.9,0,1.83-.2,2.78-.61-1.78-2.12-3.56-3.24-5.33-3.34v-2c1.8-1.32,3.82-1.97,6.09-1.97,2.7,0,5.26,1,6.94,2.65-1,1.92-2.36,3.6-4.06,5.02.32.17.78.24,1.44.24h3.85v2.36h-.02ZM391.11,134.65c-.88-.66-2.07-.97-3.6-.97-.97,0-1.88.19-2.68.56,1.36.36,2.65,1.39,3.87,3.04,1-.75,1.8-1.63,2.41-2.63"/>
  <rect class="cls-1" x="395.15" y="139.21" width="5.62" height="2.36"/>
  <rect class="cls-1" x="400.31" y="139.21" width="5.62" height="2.36"/>
  <path class="cls-1" d="M417.21,141.57h-2.39c-.73,0-1.36-.32-1.87-.93-.27-.34-.49-.68-.61-1.05-.41,1.19-1.68,1.95-3.02,1.97h-3.85v-2.36h2.87c.46,0,.88-.12,1.27-.39.51-.32.75-.75.75-1.31l-.05-4.82h2.56c0,.9.02,2.17.07,3.8,0,.85.24,1.53.75,2.05.41.46.85.68,1.34.68h2.17v2.36h0ZM410.93,130.71h-2.36v-2.46h2.36v2.46ZM414.46,130.71h-2.36v-2.46h2.36v2.46Z"/>
  <rect class="cls-1" x="416.8" y="139.21" width="5.62" height="2.36"/>
  <rect class="cls-1" x="421.96" y="139.21" width="5.62" height="2.36"/>
  <path class="cls-1" d="M432.99,138.4c0,1.95-1.17,3.17-3.29,3.17h-2.58v-2.36h1.66c.95,0,1.65-.59,1.65-1.68,0-1.51-.02-3.46-.05-5.84-.03-2.7-.05-4.67-.05-5.87h2.56c.02,1.12.02,3.21.05,6.31.02,2.63.05,4.72.05,6.28"/>
  <polygon class="cls-1" points="438.83 141.57 436.28 141.57 436.15 125.81 438.71 125.81 438.83 141.57"/>
</svg>