<?xml version="1.0" encoding="UTF-8"?>
<svg xmlns="http://www.w3.org/2000/svg" version="1.1" xmlns:xlink="http://www.w3.org/1999/xlink" viewBox="0 0 595.3 841.9">
  <defs>
    <style>
      .cls-1 {
        stroke-width: .7px;
      }

      .cls-1, .cls-2 {
        fill: none;
        stroke: #b5aab5;
        stroke-miterlimit: 10;
      }
    </style>
  </defs>
  <!-- Generator: Adobe Illustrator 28.7.3, SVG Export Plug-In . SVG Version: 1.2.0 Build 164)  -->
  <g>
    <g id="Layer_1">
      <image width="516" height="614" transform="translate(39 121.9)" xlink:href="map-1.png"/>
      <g>
        <path class="cls-1" d="M308.4,201.1h0c0,0-.3-.7-.3-.7l-.3-2.6v-1s.6-.6.6-.6l.7-.5.4-.7-.3-.7-1.3-1.6-.2-1,.3-.9,1.1-1.4.4-.8.2-5.1.4-1.7v-1.1c.1,0-.2-1.2-.2-1.2l-.9-2.2h-.6c0,0-2.8.6-2.8.6h-1.3c0,.1,0,0,0,0l.3-.5.5-2.1,3.7-5.4,1.4-2.6.6-.5.9-.5v.3s0,.8,0,.8l.6.9-.2.3-.2.8h.4l.5-.5h1.5c0,0,.3-.4.3-.4l.3-.2.7.2.7.6.2,1,.4-.6h.4s.5.3.5.3h.7s1.5-1.1,1.5-1.1h.6c0-.1,1.7.3,1.7.3h.4c0,0,.1-.5.1-.5l-.3-.5-.4-.4-.4-.2h-1.1c0-.1-.7,0-.7,0l-.5.3-.3.4-.5.5-.7.3-.6-.2v-.6s.4-2.4.4-2.4v-.9l1.6,1.2.7.2.3-.8-.3-.4-.6-.6-.8-.5-.7-.2.2-.5h.3c0-.1.3-.1.3-.1l.3-.2.7-.8.3-.7v-1.2c0,0,.1-.8.1-.8h.4l.8,1.6.9-.5.3-.2.4.4-.3.4h0c0,.1.1.3.1.3l.2.4.5-.4h.3c0,.1.3.5.3.5l.4.3,1.3.3h.7c0,0,.7,0,.7,0v-.3c-.1,0-.3-.7-.3-.7v-.3c-.1,0,1.1-.4,1.1-.4l.6,1.4v.6c-.1,0-.9,0-.9,0h-1.4c0,0-.9.2-.9.2l-1.7,1.4-.9.6h0v.3s-.5.6-.5.6l1.2,1.2.6.5.8.2.5-.2.6-.4h.6c0-.1.6.7.6.7l-1,1.7-.5.2-.4-1.1h-.6c0,0-.6,0-.6,0l.2.6v.4c0,0,0,.3,0,.3l-.2.3.7.7.9.5.7.6.4,1h-.7s-.6-.1-.6-.1l-.5-.3-.5-.4-.8.4-.7-.3-.4-.7v-.9s-.4.2-.4.2l-.9.4-.3.2v-.6s0-.5,0-.5l.3-.3.4-.2-1.3-.2-1.4.8-.8,1.1.4.7-.3.6v.7c0,0,0,.7,0,.7l.2.7.5-1.1.5-.6.6-.2.4.4v.7c0,0-.1.7-.1.7l-.3.6,1.1.4h5c0,0-.5.7-.5.7l-.9.7-1.7.9-1.6.6-.5.5.2.9,1.4-.7.8.6v1.1s-1.3.8-1.3.8l.3.6.7.9.2.4.5.2,1.2.3-.4.3-.2.2-.2.8-.8-.4-.9-.2h-.8c0,0-.5.6-.5.6l.9,1.4-.4,1.2-.9,1.2-.7,1.2v.4c0,0,0,1.4,0,1.4l-1.1,1-.9,1.6-.6.7-.8.4v-1.2l-.8,1.2-.8,1.9-.4,2.1.4,1.9.3.7-2.3.6-.9.2-.9-.2-.4-.4-.5-1.1-.5-.4-1.3-.2h-.2ZM314.6,224.4l1.1-.4.3-.9-.8-.5h-.5s-.3.3-.3.3l.2,1.5ZM319.4,221.9l-.3,1.6-1.6.8-1.3.4-.6.5-1.7,1.1-.9.4-.9-.2-.7-.3v-.3s0-.2,0-.2v-1.4c.1,0,1.6-.7,1.6-.7l.5-.6-.3-.5-.2-.6v-.9c-.1,0,1.4-1.1,1.4-1.1l1.7.2,1,1.5,2.2.4Z"/>
        <path class="cls-1" d="M320.6,166.9h1c0,.1.2.1.2.2l-.3-.3c-.3-.3-.3-.7,0-1l.3-.4c0-.3,0-.6.3-.7l.9-.5,1.3-1.1h-.1c-.1,0-.2-.1-.3-.2l-.4-.3s0,0-.1,0c-.2.1-.5.2-.7.1-.3,0-.5-.2-.6-.5v-.3c-.2,0-.2,0-.2-.1h0c-.2.2-.5.2-.7.2,0,0-.1,0-.2,0,0,0,0,.1,0,.1l-.3.7c0,0,0,.1-.1.2l-.7.8c0,0-.1.1-.2.2h0s.3.2.3.2c0,0,0,0,.1,0l.6.6c0,0,.1.1.1.2l.3.4c.1.2.1.4,0,.6l-.3.8c0,0,0,.1,0,.2ZM318.3,166.5l-.3,1.6.4-.4.3-.3c0,0,.1-.1.2-.2l.4-.2h-.4c0-.2-.2-.2-.2-.2l-.4-.3ZM323.3,168.3h0c0,.1,0,.1,0,.1,0,0,0,0,0,0h-.1ZM325.9,168.5s0,0,0,0v-.2c.1,0,0,.1,0,.1ZM322.6,170.2c.1,0,.2,0,.3,0,.1,0,.3.2.3.3,0-.1,0-.3,0-.4l.2-.3h0c0-.1-.1-.4-.1-.4v.2c-.1.3-.4.5-.7.5h0s0,0,0,0ZM323.6,171.9h0s.5-.2.5-.2c0,0,0,0,0,0t0,0l-.7-.7c0,0,0-.1-.1-.2h0s0,.8,0,.8l.2.3ZM311.9,202.8h.5c0,.1.7,0,.7,0l1.4-.4s0,0,0,0l-.4-1.9c0,0,0-.2,0-.3l.4-2.1c0,0,0-.1,0-.1l.8-1.9s0,0,0-.1l.8-1.2c.2-.3.6-.4.9-.4.2,0,.4.2.5.4h0s.9-1.5.9-1.5c0,0,0-.1.1-.2l.8-.8v-1c0,0,0,0,0-.1v-.4c0,0,.1-.2.1-.2l.7-1.2s0,0,0,0l.8-1.1.2-.8-.7-1.1c-.2-.3-.1-.7,0-.9l.5-.6c.1-.1.3-.2.5-.2h.8c0,0,.1,0,.1,0h0l-.2-.4-.7-.9c0,0,0-.1,0-.2l-.3-.6c-.1-.3,0-.7.3-.9l.9-.6v-.3s0,0,0,0l-.9.4c-.2.1-.5.1-.8,0-.2-.1-.4-.3-.5-.5l-.2-.9c0-.2,0-.5.2-.7l.5-.5c0,0,.2-.2.3-.2l1.6-.6,1.6-.9h-3.2c-.1,0-.2,0-.3,0l-1.1-.4c-.3-.1-.5-.4-.5-.7-.1.2-.4.4-.8.4-.4,0-.7-.2-.8-.5l-.2-.7s0,0,0-.1v-.7c-.1,0-.1-.1-.1-.2v-.7c0,0,0-.2.1-.2v-.3c.1,0-.1-.4-.1-.4-.1-.3-.1-.6,0-.8l.3-.4h-.2c-.1,0-.3,0-.4,0h0s0,0,0,0c-.2.3-.5.4-.9.4-.4,0-.6-.3-.7-.6v-.8c-.1,0-.5-.3-.5-.3h-.1s-.1,0-.1,0c-.1.2-.4.3-.6.3h-1.1c0,0-.3.4-.3.4-.2.1-.4.2-.6.2h-.4c-.3,0-.5-.1-.7-.3-.2-.2-.2-.4-.1-.7l.2-.8s0,0,0,0l-.4-.6s0,0,0-.1h0s-1.3,2.5-1.3,2.5c0,0,0,0,0,0l-3.6,5.3-.4,1.4,2.7-.7c.1,0,.2,0,.3,0h.6c.3.1.6.3.7.6l.9,2.2s0,0,0,.1l.3,1.2c0,0,0,.2,0,.2v1.1c-.1,0-.5,1.7-.5,1.7l-.2,5.1c0,0,0,.2,0,.3l-.4.8c0,0,0,.1,0,.1l-1,1.3-.2.5.2.6,1.2,1.5c0,0,0,.1.1.2l.3.7c0,.2,0,.4,0,.6l-.4.8c0,.1-.1.2-.2.3l-.7.5-.4.3v.6s.2,2.4.2,2.4v.3c.1,0,1.3.2,1.3.2.1,0,.3,0,.4.2l.5.4c.1,0,.2.2.2.3l.5,1.1h.2ZM312.3,204.4c0,0-.1,0-.2,0l-.9-.2c-.2,0-.3-.1-.4-.2l-.4-.4c0,0,0-.1-.1-.2l-.5-1h-.2c0-.1-1.1-.3-1.1-.3-.1,0-.2,0-.3,0h-.2c0-.1,0-.2,0-.2-.1,0-.3-.2-.3-.4l-.3-.7c0,0,0-.1,0-.2l-.3-2.6h0c0-.1,0-1.1,0-1.1,0-.2,0-.4.2-.5l.6-.6s0,0,.1,0l.6-.4.2-.3v-.3c-.1,0-1.3-1.5-1.3-1.5,0,0-.1-.2-.1-.3l-.2-1c0-.1,0-.3,0-.4l.3-.9c0,0,0-.2.1-.2l1-1.3.3-.6.2-5s0,0,0-.1l.4-1.7v-.9c.1,0-.1-1-.1-1l-.7-1.7-2.7.6s0,0-.1,0h-1.3c-.3.1-.5,0-.7-.2s-.2-.4-.2-.7c0,0,0,0,0-.1l.2-.5.5-2c0,0,0-.2.1-.2l3.7-5.4,1.3-2.5c0,0,.1-.1.2-.2l.6-.5c0,0,.1-.1.2-.1l.9-.5c.2-.1.5-.1.8,0s.4.3.5.6v.3c0,0,0,.1,0,.2v.5s.5.7.5.7c0,0,0,.2.1.3h.7s0-.1,0-.1c0-.1.2-.2.3-.2l.3-.2c.2-.1.5-.1.7,0l.7.2c.1,0,.2.1.3.2h.1c0,.1,0,0,0,0,0,0,0,0,0-.1l.4-2.4v-.8c0-.3.2-.6.5-.7h0s0,0,0,0c-.1-.2-.1-.4,0-.6l.2-.5c0-.2.3-.4.5-.4h.3c0-.1.2-.2.3-.2h.1l.5-.6.2-.4v-1.1c0,0,0-.1,0-.2l.2-.8c0-.4.4-.6.8-.6h.4c.3,0,.6.2.8.4l.4.7.2-.2c.2-.1.4-.2.6-.2s.4.1.6.2l.4.4c.1.1.2.3.2.5,0,0,0,0,0,0h.3c.1.2.2.3.3.4l.2.3h.2c0,.1,1.2.4,1.2.4h0c0-.3,0-.5,0-.7,0-.2.3-.3.5-.4l1.2-.4c.4-.1.9,0,1.1.5l.6,1.4c0,.1,0,.3,0,.4v.6c-.2.3-.5.6-.9.6h-.8c0,0,0,0-.1,0h-1.2c0,0-.6.2-.6.2l-1.6,1.3s0,0-.1,0l-.5.3c0,.1,0,.3-.2.4h0c0,0,.7.8.7.8l.5.4h.3c0,0,.1,0,.1,0l.5-.4c.1,0,.2-.1.4-.2h.6c.3-.2.6,0,.8.2l.6.8c.2.2.2.6,0,.8l-1,1.7c0,.1-.2.3-.4.3l-.5.2c0,0-.1,0-.2,0l.3.2s0,0,.1,0l.7.6c.1,0,.2.2.2.3l.4,1c0,.2,0,.5-.1.7-.2.2-.4.3-.7.3h-.6c0,0-.1,0-.2,0h-.6c0-.2-.1-.2-.2-.2l-.5-.3c0,0-.1,0-.1-.1h0c0,0-.3,0-.3,0-.2.1-.5.1-.7,0l-.7-.3c-.2,0-.3-.2-.4-.3l-.4-.7s0,0,0,0h0s-.3.2-.3.2c-.2.1-.6.2-.8,0-.3-.1-.4-.4-.5-.6v-.6s0,0,0-.1l-.5.2-.4.6.2.3c.1.2.1.4,0,.6h.5c.3-.2.7-.2.9,0l.4.4c.1.1.2.3.2.5v.7c0,0,0,.1,0,.2l-.2.7h0s.2,0,.2,0h4.9c.3,0,.6,0,.7.3.1.2.1.5,0,.8l-.5.8c0,0-.1.1-.2.2l-.9.7s0,0-.1,0l-1.7.9s0,0-.1,0h-.2c0,0,.7.7.7.7.2.1.3.3.3.6v1.1c0,.3-.1.5-.3.6l-.7.4.6.8s0,0,0,.1v.2c0,0,.3,0,.3,0l1.2.3c.3,0,.5.3.6.6,0,.3,0,.6-.4.8l-.3.2-.2.6c0,.2-.2.4-.5.5-.2.1-.5,0-.7,0l-.8-.4-.7-.2h-.2s.5.8.5.8c.1.2.1.4,0,.6l-.4,1.2c0,0,0,.2-.1.2l-.9,1.2-.6,1.1v.2s0,1.3,0,1.3c0,.2,0,.4-.2.6l-1,.9-.9,1.4s0,0,0,.1l-.6.7c0,0-.1.1-.2.2l-.8.4c-.2.1-.4.1-.6,0l-.6,1.3-.4,1.9.4,1.7.3.6c0,.2,0,.4,0,.6-.1.2-.3.3-.5.4l-2.3.6-1,.2c-.1,0-.2,0-.2,0ZM315.2,221.8c.2,0,.3,0,.5.1l.8.5c.3.2.4.5.3.8v.3c-.1,0,.4-.2.4-.2l1.1-.5v-.4c0,0-1.4-.3-1.4-.3-.2,0-.4-.2-.5-.3l-.8-1.2h-1c0-.1-.9.5-.9.5v.4s.2.5.2.5h0c.1-.2.4-.2.6-.3h.5s0,0,0,0ZM312.5,225.6h.5c0,.1.6,0,.6,0l.6-.4s0,0,0,0c-.2-.1-.4-.3-.4-.6v-.6c0,0,0,0,0,0,0,0-.2.1-.3.2l-1.1.5v.9c0,0,0,0,0,0h.2ZM313.1,227.3c0,0-.1,0-.2,0l-.9-.2s-.1,0-.1,0l-.7-.3c-.2-.1-.4-.3-.5-.6v-.6c0,0,0-.1,0-.2v-1.4c.1-.3.3-.5.6-.6l1.4-.6c0,0,0-.1-.1-.2l-.2-.6s0,0,0-.1v-.9c-.1-.3,0-.5.2-.7l1.5-1.1c.2-.1.4-.2.6-.1l1.7.2c.2,0,.5.2.6.3l.9,1.2,1.9.4c.4,0,.7.5.7.9l-.3,1.6c0,.2-.2.4-.4.6l-1.6.8s0,0-.1,0l-1.2.4-.5.4-1.7,1.1s-.1,0-.1,0l-.9.4c-.1,0-.2,0-.3,0Z"/>
        <polygon class="cls-2" points="309.5 248.4 310.3 248.1 312.4 247.9 313.4 247.4 315.2 245.7 315.6 245.4 317.1 244.4 317.4 243.9 317.5 243.5 317.6 242.4 317.7 240.6 318 240.3 318.3 240 321.3 239.7 322.6 244.3 326.1 251.2 326.7 251.8 327.1 253.1 327.5 255.5 334.1 267 335.4 268.4 338.6 271 344.7 277.9 345.9 279.7 346.4 280.7 346.9 282.3 352.4 288.4 359.1 293.6 364.3 297.5 366.1 298.6 374 301.5 384.3 304 385.6 304.5 379.1 315 371.8 320.7 364.9 322.8 348.8 323.5 347.8 322.3 342.6 304.1 326.1 290.6 317.4 287 317 282.2 311.5 264.9 304.1 256.1 304.1 253.8 304.2 253.8 305.4 253.7 306.5 253.5 307 252.9 307.3 251.9 308.5 250.6 309.5 248.4 309.5 248.4"/>
        <path class="cls-1" d="M269.9,319.4l6.5.6,5.6-3c0,0,.1,0,.2,0l7.3-1.9,3.3-2-1.8-7.7c0-.2,0-.5.2-.6l2.3-2.7c0,0,.2-.2.3-.2l3-1.4v-4.2c0-.3.1-.5.4-.6l3.1-2c0,0,.2-.1.3-.1l8.2-1.6c0,0,.1,0,.2,0h6l1.7-4.9-.3-4.6-5.4-17-7.3-8.8c-.1-.1-.2-.3-.2-.5v-1.6s0,0,0,0c-.1,0-.3,0-.4-.2l-1.7-1.3c-.1,0-.2-.2-.3-.3l-1.6-3.7-1.9-1.6c0,0-.1-.2-.2-.3l-.4-.8c0-.1,0-.3,0-.5l.2-.7c0-.3.3-.5.6-.6l1-.3c.1,0,.3,0,.4,0l.8.2c0,0,.1,0,.2,0l.5.2-.3-1.8-.5-1.4-1.1-.6-2.1-.3-1.9.4-1.8,1-1.7,1.5-1.6,1.8-.5,1.5.5,4.2v1.1h0c0,0-.2,2.1-.2,2.1v.8c0,0,1.2,2.2,1.2,2.2,0,0,0,.1,0,.2l.2,1.1c0,.2,0,.5-.3.7l-1.4,1.1-.3,1.6c0,.1-.1.3-.2.4l-.7.7-.4.5v.9s.7,2.3.7,2.3c0,0,0,.1,0,.2v3c-.1,0,0,.6,0,.6v.2c.1,0,1.2.6,1.2.6,0,0,.1.1.2.2l.4.5c0,0,.1.2.1.3v.5c.1,0,.2.2.1.2l-.2,2.7c0,0,0,.2,0,.2l-.4.8s0,0,0,0l-2.1,3.5-.4.8v.2s.2,0,.2,0l3.3.7h.7s3-1.1,3-1.1c.2,0,.4,0,.6,0l1.7.6c.2,0,.4.2.5.4l.9,2s0,0,0,.1l.6,2.3,2,3.4c.1.2.1.5,0,.8l-.6.9c-.1.2-.3.3-.5.3l-3.5.8-6.5,2.4c-.1,0-.3,0-.4,0h-1c-.1-.1-.3-.2-.4-.3l-1.2-.8h-.6c0,0-.9.4-.9.4,0,0-.2,0-.3,0h-.9s-.1,0-.2,0l-1.8-.3h-1.7s-1.4.2-1.4.2l-1.4.5-2.7,1.4s0,0-.1,0l-2.4.8s0,0-.1,0l-1.9.3h0c0,0,.3.7.3.7l.8.6,2,1.1c.1,0,.2.1.3.2l.9,1.2c0,.1.1.2.1.3l.2,1.6s0,0,0,0l.2,4.3c0,0,0,.2,0,.2l-.2.7c0,0,0,.1-.1.2l-2.6,3.5-.4.8-1.6,6ZM276.6,321.5h0l-7.7-.7c-.2,0-.5-.1-.6-.3s-.2-.4-.1-.6l1.8-7s0-.1,0-.2l.5-1s0,0,0,0l2.5-3.5.2-.5-.2-4.1-.2-1.4-.7-1-1.9-1s0,0-.1,0l-.9-.8c0,0-.1-.2-.2-.2l-.5-1c0-.2,0-.3,0-.5l.2-.8c0-.3.3-.5.6-.6l2.3-.4,2.2-.8,2.7-1.4s0,0,0,0l1.5-.6s.1,0,.2,0l1.6-.3c0,0,.1,0,.2,0h1.9s0,0,.1,0l1.7.3h.6s.8-.3.8-.3c0,0,.1,0,.1,0l1-.2c.2,0,.5,0,.6.1l1.3.9h.6c0,0,6.3-2.3,6.3-2.3,0,0,0,0,.1,0l3.2-.7.2-.2-1.8-3c0,0,0-.1,0-.2l-.6-2.3-.7-1.7-1-.4-2.8,1c-.1,0-.2,0-.4,0h-.9s0,0-.1,0l-3.5-.7c0,0-.1,0-.2,0l-.7-.3c-.3-.1-.4-.4-.5-.6v-.9c-.1-.1,0-.2,0-.4l.5-1s0,0,0,0l2.1-3.5.3-.7.2-2.5v-.2s-.3-.3-.3-.3l-1-.6c0,0-.1,0-.2-.1l-.4-.4c0-.1-.1-.2-.2-.4l-.2-.9c0,0,0-.1,0-.2v-2.9c.1,0-.6-2.3-.6-2.3,0,0,0-.1,0-.2v-1.2c0-.2,0-.3,0-.5l.6-.8s0,0,0,0l.6-.6.3-1.7c0-.2.1-.3.3-.4l1.2-1v-.6c-.1,0-1.2-2.2-1.2-2.2,0,0,0-.1,0-.2v-1c-.1,0-.1-.1-.1-.2l.2-2.1v-1l-.5-4.3c0-.1,0-.2,0-.3l.6-1.8c0,0,0-.2.1-.2l1.7-2h0c0,0,1.8-1.6,1.8-1.6,0,0,0,0,.1,0l2-1.1c0,0,.1,0,.2,0l2.1-.5c.1,0,.2,0,.3,0l2.3.3h.1c.1,0,.2,0,.3.1l1.5.9c.2,0,.3.2.3.4l.6,1.7s0,0,0,.1l.7,3.7c0,.3,0,.6-.4.8-.3.2-.6.1-.9,0l-1.3-.9-.6-.3h-.5c0-.1-.3,0-.3,0l.2.4,2,1.6c.1,0,.2.2.2.3l1.6,3.7,1.4,1h.6c.4.1.7.5.7.9v2s7.2,8.6,7.2,8.6c0,0,.1.2.1.2l5.5,17.2c0,0,0,.1,0,.2l.4,4.9c0,.1,0,.2,0,.3l-1.9,5.6c-.1.3-.4.5-.8.5h-6.5l-7.9,1.5-2.6,1.6v4.3c0,.3-.2.6-.5.7l-3.3,1.5-2,2.3,1.9,7.9c0,.3,0,.6-.4.8l-3.9,2.3c0,0-.1,0-.2.1l-7.3,1.9-5.8,3.1c-.2,0-.3,0-.4,0Z"/>
        <polygon class="cls-1" points="254.5 367.4 255.1 359.3 254.7 351.2 254.7 351.2 254.9 349.5 256.6 344.1 262 335.5 263.2 332.1 264.4 326.5 265 324.7 266 323.2 266.1 323.2 268.1 321.1 268.9 320 276.6 320.7 282.4 317.6 289.8 315.7 293.7 313.3 291.8 305.1 294.1 302.4 297.6 300.8 297.6 296.1 300.7 294.2 308.9 292.6 315.5 292.6 317.4 287 326.1 290.6 342.7 304.1 347.8 322.3 348.8 323.5 338.1 367.8 329.2 392.4 318.1 405.6 278.9 413.7 277.6 413.9 279.7 407.7 279.6 406.4 279.1 405.2 276.1 400.6 271.6 393.7 267.1 386.8 262.5 379.8 258 372.9 254.5 367.4"/>
        <path class="cls-1" d="M255.3,367.2l24.5,37.5s0,0,0,0l.6,1.2c0,0,0,.2,0,.3v1.3c0,0,0,.2,0,.2l-1.7,5,38.9-8,10.8-12.9,8.8-24.5,10.6-43.9-.7-.9c0,0-.1-.2-.1-.3l-5.1-18-16.3-13.3-7.7-3.2-1.6,4.8c-.1.3-.4.5-.8.5h-6.5l-7.9,1.5-2.6,1.6v4.3c0,.3-.2.6-.5.7l-3.3,1.5-2,2.3,1.9,7.9c0,.3,0,.6-.4.8l-3.9,2.3c0,0-.1,0-.2,0l-7.3,1.9-5.8,3.1c-.1,0-.3.1-.5.1l-7.2-.7-.5.7s0,0,0,.1l-2.1,2.1-.9,1.3-.6,1.7-1.2,5.5s0,0,0,.1l-1.2,3.4s0,.1,0,.1l-5.3,8.5-1.7,5.2-.2,1.5.4,8.1h0c0,0-.6,8-.6,8ZM277.6,414.7c-.2,0-.5,0-.6-.3-.2-.2-.3-.5-.2-.7l2-6.1v-1s-.5-1-.5-1l-24.6-37.7c0-.1-.1-.3-.1-.5l.6-8.1-.4-8.1h0c0-.1.2-1.8.2-1.8,0,0,0,0,0-.1l1.7-5.4c0,0,0-.1,0-.2l5.3-8.5,1.2-3.3,1.2-5.5s0,0,0,0l.6-1.9c0,0,0-.1.1-.2l1-1.5s0-.1.1-.1l2-2,.7-1c.2-.2.5-.4.8-.3l7.4.7,5.6-3c0,0,.1,0,.2,0l7.3-1.9,3.3-2-1.8-7.7c0-.2,0-.5.2-.6l2.3-2.7c0,0,.2-.2.3-.2l3-1.4v-4.2c0-.2.1-.5.4-.6l3.1-2c0,0,.2-.1.3-.1l8.2-1.6c0,0,.1,0,.2,0h6l1.7-5.1c0-.2.2-.4.5-.5s.5,0,.7,0l8.7,3.5c0,0,.1,0,.2.1l16.6,13.5c.1.1.2.2.2.4l5.1,18,.9,1.1c.1.2.2.4.1.6l-10.7,44.3s0,0,0,0l-8.9,24.7c0,0,0,.2-.1.2l-11.1,13.2c-.1.1-.3.2-.5.3l-39.2,8-1.4.2s-.1,0-.1,0Z"/>
        <path class="cls-1" d="M303.1,648.7h0l.2.8h0c0,0,.5.7.5.7l.7.5.8.3-1.8,1-1,.3h-.9c0,.1-2.5,0-2.5,0l-.8-.3-.5-1.2,1.5-.8,2.1-.7,1.5-.7ZM290.9,652.4l-.2-.5h0c0,0,.3-.5.3-.5l.6-.3.8-.2,1.1.6h.4c0,.1-.8.6-.8.6h-1.7s-.5.3-.5.3h0ZM75.6,571.9l-.4-.9,6.2-2,9.6-3.1,9.6-3.1,9.6-3.1,9.6-3.1,9.6-3.1,9.6-3.1,9.6-3.1,9.6-3.1,9.6-3.1,9.6-3.1,9.6-3.1,9.6-3.1,9.6-3.1,9.6-3.1,9.6-3.1,9.6-3.1,8.4-2.7,1.8-5.3.4-1.1,1-3,1.6-4.7,2.1-6.2,2.5-7.3,2.8-8.1,3-8.7,3-9,2.3-6.9.7,1,68.1,104.6,48.5,12-13.3,1.9-6.9,1.8-9.4,3.6-3.6,2.4-2.4,1.1-1.3.9-.5,1.2-.5.6-6,5.5-1,2-.2,2.6.4,1.8v.6s-.1.7-.1.7l-.8,1-.3.9-.5,1.1v.6c-.1,0-.1,2.2-.1,2.2l-.5,2.3-2.9,6.2.8,1.1v1.1c-.1,0-.9,1-.9,1l-1.1.8-2.4,1-1.2.7-1.7,2.8-.4.3-.8.2-.4.2-2.6,2.7v.4c-.1,0,0,1.2,0,1.2h-.6c0,.1-8.7-.9-8.7-.9l-1.1.2-1.7.7-1.2.2-4.8-.4-1.1.2-3.6,1.3-2,.5-14.3.6-5.6,1.3h-1.2c0,.1-.5.2-.5.2l-.3.2-.2.3-.4.2h-1s0,0,0,0l-1.8.5-.5.2-.8.9-.8,2.1-.5.9-.8.9-.2.4-.9,2.2-.2.4-.8.8-5.2,4-1.6,2.6-.4,1.1v1.3c-.1,0,0,1.4,0,1.4l.6.7,1.9,1,1.1,1.1.4,1.1v2.5s-.4,1-.4,1l-2.3,2.8v.5c-.1,0-.2.7-.2.7v.7c0,0,.4.3.4.3l.5.2v.4s-.2.7-.2.7l-.3.3-1.5.7-.5.3-.3.5-.2.5-.2.9-.5.8.2.3-.5.6-1.7.5-.9.4-.3.5-.3.7-.5.7-.7.3-2.3,2.4-2.5,1.7h-.3l-.6-.8-.6.3-.7.8-.6.4h-.9c0,.1-.8.4-.8.4l-.8.2-.8-.2-.9.8-1,.3-2.3.3-1.9.7h-.9l-.6-.7-.6.3h-1c0-.1-.6,0-.6,0l-1.9-1.1-.4.4-.4-1-.2-.9-.6-.7-2.3-.4-1.6-.5h-.7c0-.1-.6,0-.6,0l-1.1.2h-.7c0,0-2-.3-2-.3h-.7l-.6.2-1.2.5h-.3c0,0-2.6-.6-2.6-.6h-1.4c0,0-1.1.7-1.1.7l-.5-.3h-.5c0-.1-10.4,1-10.4,1h-4.4l-1,.2-2.5,1.2-.6.4-.2.5v.4s.1.4.1.4v.4c0,0-.1.5-.1.5l-.8.7-.2.3-.6.6-1.4.3h-2.6c0,.1-3.3.8-3.3.8h-1.1c0,0-1,.4-1,.4l-1.1.6-1.2.4-1-.3-1,.6-1.4,1.1-1.2,1.2-.5,1-.5.6-1.1.6-2,.8-1.8.4-8.9.2-4.7.6-9.1,2.7-4.8,2.3-3.5-7.2-3.5-7.3-3.5-7.3-3.5-7.3-2.2-4.5-.6-.7-1-.3h-2.1c0-.1-.8-.6-.8-.6h0s.3,0,.3,0h0s-1.8-3.9-1.8-3.9l-2.4-5.2-2.4-5.2-2.4-5.2-2.4-5.2-2.4-5.2-2.4-5.2-2.4-5.2-2.4-5.2-2.4-5.2-2.4-5.2-2.4-5.2-2.4-5.2-2.4-5.2-2.4-5.2-2.4-5.2-2.4-5.2-1.7-3.5Z"/>
        <path class="cls-1" d="M290.8,653.2c-.1,0-.2,0-.3,0-.2,0-.4-.2-.5-.5l-.2-.6c0,0,0-.2,0-.3,0-.2,0-.3.1-.4l.3-.4c0-.1.2-.2.3-.3l.6-.3s0,0,.1,0l.8-.2c.2,0,.5,0,.6,0l1,.6h.4c.3.2.5.5.6.8,0,.3-.1.6-.4.7l-.8.5c-.1,0-.3.1-.4.1h-1.5s-.3.2-.3.2c-.1,0-.3,0-.4,0ZM299.4,651.6h2.2c0,0,.7,0,.7,0l.8-.3.4-.2-.3-.2c0,0-.1-.1-.2-.2l-.5-.7c0,0,0-.1-.1-.2l-.5.2s0,0,0,0l-2,.6-.8.5v.2c.1,0,.4.1.4.1ZM301.7,653.2h-2.5c0-.1-.2-.1-.3-.2l-.8-.3c-.2,0-.4-.2-.5-.4l-.5-1.2c-.1-.3,0-.7.3-.9l1.5-.8s.1,0,.2,0l2.1-.7,1.4-.6c.3-.1.6,0,.8,0,.2.1.3.3.4.5v.6c.1,0,.5.4.5.4l.5.3.7.2c.3,0,.5.3.5.6,0,.3-.1.6-.4.7l-1.8,1s-.1,0-.1,0l-.9.3s-.1,0-.2,0h-.9c0,.2,0,.2-.1.2ZM118.1,662.5h1.7c0,0,.2.1.2.1l1,.3c.2,0,.3.1.4.3l.6.7s0,0,0,.1l15.8,32.8,4-1.9s0,0,.1,0l9.1-2.7s0,0,.1,0l4.7-.6s0,0,.1,0l8.8-.2,1.7-.4,1.9-.8.9-.5.3-.4.5-.9c0,0,0-.1.1-.2l1.2-1.2s0,0,0,0l1.4-1.1s0,0,0,0l1-.6c.2-.1.4-.2.7,0l.7.2.8-.3,1.1-.6c0,0,.1,0,.1,0l1-.3c0,0,.1,0,.2,0h1c0,0,3.3-.7,3.3-.7,0,0,0,0,.1,0h2.5c0-.1,1.1-.4,1.1-.4l.3-.3v-.2c.2,0,.2-.2.3-.2l.6-.5h0c0,0,0-.3,0-.3v-.3c-.1,0-.1-.1-.1-.2v-.4c0-.1,0-.2,0-.3l.2-.5c0-.1.1-.2.3-.3l.6-.4s0,0,.1,0l2.5-1.2c0,0,.1,0,.2,0l1-.2c0,0,.1,0,.2,0h4.4l10.4-1.1c0,0,.2,0,.3,0h.6c0,.1.1.1.2.2h0s.7-.5.7-.5c.2-.1.4-.2.6-.2h1.4c0,0,.1.1.2.1l2.4.6h0s1.1-.5,1.1-.5c0,0,0,0,.1,0l.6-.2c0,0,.1,0,.2,0h.7c0,0,.1,0,.2,0l1.9.3h.5s1.1-.3,1.1-.3c0,0,0,0,.1,0h.6c0,0,.2,0,.2,0h.7c0,.1,0,.1.1.2l1.6.5,2.2.4c.2,0,.4.1.5.3l.6.7c0,0,.1.2.2.3l.3,1c.2,0,.3,0,.5.1l1.6.9h.2c.1-.1.3-.1.4-.1h.8c0,0,.4-.1.4-.1.3-.2.8,0,1,.2l.4.4h.4l1.7-.6c0,0,.1,0,.2,0l2.2-.3.8-.2.7-.7c.2-.2.5-.3.8-.2h.6c0,.1.5,0,.5,0l.8-.2s0,0,.1,0h.7c0-.1.4-.4.4-.4l.6-.7c0,0,.1-.1.2-.2l.6-.3c.4-.2.9,0,1.1.3l.2.3,1.9-1.3,2.2-2.3c0,0,.2-.1.3-.2l.5-.2.3-.4.3-.7s0,0,0,0l.3-.5c0-.1.2-.2.3-.3l.9-.4c0,0,.1,0,.1,0l1.5-.4c0-.2,0-.4.1-.6l.5-.7.2-.8s0,0,0-.1l.2-.5s0,0,0-.1l.3-.4c0,0,.1-.2.2-.2l.5-.3s0,0,0,0l1.3-.6h0c0,0,0-.3,0-.3,0,0,0,0-.1,0l-.3-.3c-.1-.1-.2-.3-.3-.5v-.7c0,0,0-.1,0-.2v-.8c.1,0,.1,0,.1,0v-.5c.1,0,.2-.2.3-.3l2.2-2.8.3-.8v-2.2s-.3-.8-.3-.8l-.9-.8-1.8-.9c-.1,0-.2-.1-.3-.2l-.6-.7c0,0-.1-.2-.2-.3l-.2-1.5c0,0,0-.1,0-.2v-1.2c.2,0,.2,0,.2-.2l.4-1.1s0,0,0-.1l1.6-2.6c0,0,.1-.2.2-.2l5.1-3.9.7-.7v-.2c.1,0,1-2.2,1-2.2,0,0,0,0,0,0l.2-.4s0,0,.1-.1l.8-.8.5-.8.8-2.1c0,0,0-.2.1-.2l.8-.9c0,0,.2-.2.3-.2l.5-.2s.1,0,.2,0l1.8-.5c.1,0,.3,0,.4,0h.7s.2-.2.2-.2c0,0,0,0,0,0l.3-.2c.1,0,.2-.1.3-.2h.5c0-.1,0-.1.1-.1h1.2c0,0,5.5-1.4,5.5-1.4,0,0,.1,0,.2,0l14.2-.6,1.9-.4,3.6-1.3c0,0,.1,0,.2,0l1.1-.2c0,0,.1,0,.2,0l4.6.4,1-.2,1.6-.7c0,0,.1,0,.2,0l1.1-.2c0,0,.2,0,.2,0l8.4,1v-.5c0,0,0-.2,0-.3v-.4c.2,0,.2-.2.3-.3l2.6-2.7c0,0,.1-.1.2-.2l.4-.2c0,0,.1,0,.2,0l.6-.2h.1c0,0,1.6-2.8,1.6-2.8,0-.1.2-.2.3-.3l1.2-.7s0,0,0,0l2.3-.9.9-.7.6-.8v-.7c0,0-.6-.8-.6-.8-.2-.2-.2-.5,0-.8l2.9-6.2.5-2.1v-2.2c0,0,0-.1,0-.2v-.6c.2,0,.2,0,.2-.1l.5-1.1.3-.8c0,0,0-.2.1-.2l.7-.9v-.4c.1,0,0-.5,0-.5l-.4-1.7c0,0,0-.1,0-.2l.2-2.6c0,0,0-.2,0-.3l1-2c0,0,.1-.2.2-.2l5.9-5.5.4-.5.5-1.1c0-.1.1-.2.2-.3l1.3-.9s0,0,.1,0l2.3-1.1,3.6-2.4s.1,0,.2,0l9.4-3.6h0s6.9-1.9,6.9-1.9c0,0,0,0,.1,0l9.4-1.4-44.7-11c-.2,0-.4-.2-.5-.3l-67.8-104.2-19.9,58.8c0,.2-.3.4-.5.5l-166.8,54.2,41.6,90.8s0,0,0,.1ZM137.4,698.7c0,0-.2,0-.3,0-.2,0-.4-.2-.5-.4l-16.1-33.5-.4-.5-.6-.2h-2c-.1-.1-.3-.2-.4-.2l-.8-.5c-.3-.2-.4-.4-.4-.7,0-.2,0-.3.2-.4l-41.7-90.9c0-.2,0-.4,0-.6,0-.2.3-.3.5-.4l167.2-54.3,20.3-60c.1-.3.4-.5.7-.5.3,0,.6,0,.8.3l.7,1,68,104.3,48.2,11.9c.4,0,.6.4.6.8,0,.4-.3.7-.7.7l-13.2,1.9-6.8,1.8-9.3,3.5-3.5,2.4s0,0-.1,0l-2.3,1.1-1.1.8-.5,1c0,0,0,.1-.1.2l-.5.6s0,0,0,0l-5.9,5.4-.9,1.7-.2,2.3.3,1.7s0,0,0,0v.6c0,0,0,.2,0,.2l-.2.7c0,0,0,.2-.1.3l-.7.9-.3.8-.5,1.1v.4c-.1,0-.1,2.2-.1,2.2,0,0,0,0,0,.2l-.5,2.3s0,0,0,.2l-2.7,5.8.5.7c.1.2.2.3.1.5v1.1c-.2.1-.2.2-.3.3l-.8,1c0,0-.1.1-.2.2l-1.1.8c0,0-.1,0-.2,0l-2.4,1-1,.5-1.6,2.6c0,0-.1.2-.2.2l-.4.3c0,0-.2,0-.3.1l-.7.2h-.2c0,.1-2.4,2.6-2.4,2.6h0c0,.1,0,1.2,0,1.2,0,.4-.3.7-.7.8h-.6c0,.1-.2.1-.3.1l-8.6-1h-.9c0,.1-1.6.8-1.6.8,0,0-.1,0-.2,0l-1.2.2c0,0-.1,0-.2,0l-4.7-.4h-.9c0,.1-3.5,1.5-3.5,1.5,0,0,0,0-.1,0l-2,.5s-.1,0-.2,0l-14.2.6-5.5,1.3s0,0-.1,0h-1.4c0,.1,0,.2,0,.2l-.2.2c0,0-.1.1-.2.2l-.4.2c-.1,0-.3,0-.4,0h-1s0,0-.1,0l-1.5.4h-.3c0,.1-.6.8-.6.8l-.8,2s0,0,0,.1l-.5.9s0,0-.1.1l-.8.8-.2.3-.8,2.2s0,0,0,0l-.2.4s0,0-.1.2l-.8.8s0,0,0,0l-5,3.9-1.5,2.4-.3.9v1.1c-.1,0,0,1.2,0,1.2l.4.4,1.7.9c0,0,.1,0,.2.2l1.1,1.1c0,0,.1.2.2.3l.4,1.1c0,0,0,.2,0,.2v2.5c0,0,0,.2,0,.3l-.4,1c0,0,0,.1-.1.2l-2.2,2.7v.3c0,0-.1.6-.1.6v.3s.4.1.4.1c.3.1.5.4.5.7v.4c0,0,0,.2,0,.3l-.3.7c0,0-.1.2-.2.3l-.3.3c0,0-.1.1-.2.2l-1.4.7-.3.2-.2.3v.3c-.1,0-.4.9-.4.9,0,0,0,.2-.1.2l-.3.4c.1.2,0,.5-.1.8l-.5.6c-.1.1-.2.2-.4.2l-1.6.5-.6.3v.2c-.1,0-.4.7-.4.7,0,0,0,0,0,.1l-.5.7c0,.1-.2.2-.3.3l-.5.2-2.2,2.3s0,0-.1.1l-2.5,1.7c-.1,0-.3.1-.5.1h-.3c-.3,0-.6-.1-.7-.4h0c0-.1-.4.4-.4.4,0,0-.1,0-.2.1l-.6.4c-.1,0-.2.1-.3.1h-.8c0,.1-.8.4-.8.4,0,0,0,0-.1,0l-.8.2c-.1,0-.2,0-.4,0h-.3c0,0-.5.4-.5.4-.1,0-.2.2-.3.2l-1,.3c0,0-.1,0-.1,0l-2.2.3-1.8.6c0,0-.2,0-.3,0h-.9c-.2,0-.5,0-.6-.3l-.2-.2h0c-.2.1-.3.1-.5.1h-.8c0-.1-.4,0-.4,0-.2,0-.5,0-.7,0l-1.3-.8c-.2.2-.4.2-.7.2-.3,0-.5-.2-.6-.5l-.4-1s0,0,0-.1l-.2-.8-.3-.3-2-.3s0,0-.1,0l-1.6-.5h-.5c0,0-.5,0-.5,0l-1.1.2s0,0-.1,0h-.7c0,0-.2,0-.2,0l-1.9-.3h-1c0,.1-1.1.6-1.1.6,0,0,0,0,0,0h-.3c-.2.1-.3.1-.5.1l-2.6-.7h-1c0,0-.9.6-.9.6-.3.2-.6.2-.9,0l-.4-.2h-.3c0,0-10.3,1-10.3,1h-4.4l-.8.2-2.3,1.1-.4.2h0c0,.1,0,.3,0,.3v.3c0,0,.1,0,.1,0v.4c0,.1,0,.3,0,.4l-.2.5c0,.1-.1.2-.2.3l-.7.5v.2c-.1,0-.2.1-.3.2l-.6.6c-.1,0-.3.2-.4.2l-1.4.3s0,0-.1,0h-2.5c0,.1-3.3.8-3.3.8,0,0,0,0-.1,0h-1c0,0-.8.3-.8.3l-1.1.6s0,0-.1,0l-1.1.4c-.2,0-.4,0-.5,0l-.6-.2-.7.4-1.3,1-1.1,1.1-.5.9s0,0,0,.1l-.5.6c0,0-.1.2-.2.2l-1.1.6s0,0,0,0l-2,.8s0,0-.1,0l-1.8.4c0,0-.1,0-.2,0l-8.9.2-4.6.6-9,2.7-4.7,2.2c0,0-.2.1-.3.1Z"/>
        <polygon class="cls-1" points="263.3 456.3 264 454.2 266.9 445.4 269.7 437.2 272.2 429.9 274.3 423.7 275.9 418.9 276.9 415.8 277.3 414.7 277.6 413.8 278.9 413.6 318.1 405.6 410.1 448 427.9 456.4 433.8 459.2 425.9 483.1 424.8 482.7 423.2 482.9 421.5 483.3 419.7 484.4 417.4 485 416.7 485.4 416.4 485.9 415.4 488.5 415.4 489.1 415.7 489.7 415.9 490.2 415.4 490.6 414.8 490.9 413.4 491.2 412.4 491.6 411.3 492.2 410 493.4 409.5 494 409.2 494.6 409.1 495.3 409.2 495.8 410 496.6 410.2 497.2 409.8 498.4 408.8 499.1 406.4 500 405.4 500.5 404.4 501.3 403.6 502.2 403.3 503.2 403 503.8 402.4 504.5 401.8 505.4 401.8 506.8 402.8 509 403.2 510.3 402.3 512.3 401.4 515.3 401.4 516.1 401.2 517.7 399.9 520.6 399 523.6 398.4 525 394.8 529.8 394.3 531.3 394.5 532.9 394.9 533.6 395.4 534.1 395.8 534.6 396 535.4 396 537 396 537.8 395.7 538.5 395.3 540 395.1 541 395.6 542.1 398.3 546.2 398.7 547.1 399 548.6 399 550.1 398.8 551.5 397.8 554 397.6 555.1 397.7 556.3 398.9 559.1 399.4 560 400.8 561.5 401.1 562.4 400.7 564.6 400.6 565.7 402.7 569.3 402.7 570.1 401.4 571.3 400.5 571.9 400.3 572 397.8 572.4 397.5 572.6 397.3 573 396.7 573.4 396 573.8 395.4 573.9 383.8 573.4 380.7 573.9 332.2 561.9 264 457.3 263.3 456.3"/>
        <path class="cls-1" d="M383.8,572.6h0l11.5.5h.3c0,0,.6-.4.6-.4l.5-.3.2-.2s0,0,0,0l.3-.3c.1-.1.3-.2.5-.2l2.4-.3.7-.5,1.1-1v-.3l-2-3.3c0-.1-.1-.3-.1-.4v-1.1c0,0,0,0,0-.1l.5-2.1-.2-.5-1.3-1.4s0,0,0-.1l-.5-.9h0c0-.1-1.1-2.9-1.1-2.9,0,0,0-.1,0-.2v-1.2c-.1,0-.1-.1-.1-.2l.2-1.1s0,0,0-.1l.9-2.5.2-1.2v-1.3s-.3-1.4-.3-1.4l-.4-.8-2.7-4.1s0,0,0-.1l-.4-1c0-.1,0-.2,0-.3v-1.1c.1,0,.1,0,.1-.1l.4-1.4.3-.7v-.7c0,0,0-1.5,0-1.5v-.5c-.1,0-.4-.4-.4-.4l-.5-.5s0,0-.1-.1l-.4-.6c0,0,0-.2-.1-.3l-.2-1.7c0-.1,0-.2,0-.3l.5-1.4c0,0,0-.1.1-.2l3.5-4.8.6-1.2.9-3s0,0,0,0l1.2-2.8v-2.2c.1,0,.1-.1.2-.2l.9-3s0,0,0-.1l.8-1.8-.3-1-1-2.1c0-.1,0-.2,0-.3v-1.3c0-.1,0-.2.1-.3l.5-.9s0,0,.1-.1l.6-.6.2-.5.3-1c0-.1,0-.2.2-.3l.8-.9s0,0,.1-.1l1-.8s0,0,0,0l.9-.5s0,0,.1,0l2.3-.9.7-.5.2-.7h0c0-.1-.7-.8-.7-.8,0,0-.1-.2-.2-.3l-.2-.5c0-.1,0-.2,0-.4v-.7c.2,0,.2-.1.2-.2l.4-.6s0,0,0-.1l.5-.6s0,0,0,0l1.3-1.1s0,0,.1,0l1-.6s0,0,0,0l1-.5c0,0,.1,0,.2,0l1.3-.3.5-.2-.3-.5c0-.1-.1-.3-.1-.4v-.6c0,0,0-.1,0-.2l1-2.6c0,0,0-.1.1-.2l.4-.5c0,0,.1-.1.2-.2l.7-.5c0,0,.2,0,.3-.1l2.1-.5,1.7-1c0,0,.1,0,.2,0l1.6-.5c0,0,.1,0,.2,0h1.6c.1-.1.2-.1.3,0h.3c0,.1,7.5-22.4,7.5-22.4l-23.1-10.9-91.7-42.2-38.9,8h-.9c0,.1-14,41.8-14,41.8l.5.7,68,104.4,48,11.8,3-.4s0,0,0,0ZM395.4,574.7h0l-11.5-.5-3.1.4c-.1,0-.2,0-.3,0l-48.5-12c-.2,0-.4-.2-.5-.3l-68.1-104.6-.7-1c-.1-.2-.2-.4-.1-.7l14.3-42.4c0-.3.3-.5.6-.5l1.3-.2,39.2-8c.2,0,.4,0,.5,0l92,42.4,23.7,11.2c.4.2.5.5.4.9l-7.9,23.9c0,.2-.2.4-.4.5-.2,0-.4.1-.6,0l-1-.3h-1.4c0,.1-1.5.5-1.5.5l-1.7,1c0,0-.2,0-.2.1l-2.1.5-.5.3-.2.3-.9,2.4v.3s.2.4.2.4c0,0,0,.1,0,.2v.5c.2.3.1.6,0,.8l-.5.4c0,0-.1.1-.2.1l-.7.3s-.1,0-.2,0l-1.3.3-.9.4-.9.5-1.2,1.1-.4.5-.3.5v.4c0,0,0,.2,0,.2l.7.7c0,0,.1.2.2.3l.2.5c0,.1,0,.3,0,.5l-.4,1.2c0,.1-.1.3-.3.4l-1,.7c0,0-.1,0-.2.1l-2.4.9-.8.5-.9.7-.6.7-.3.9s0,0,0,.1l-.3.6c0,0,0,.1-.1.2l-.6.6-.4.7v1s1,2.1,1,2.1c0,0,0,0,0,.1l.3,1.3c0,.2,0,.3,0,.5l-.9,1.9-.8,2.8v.7s-.1,1.6-.1,1.6c0,0,0,.2,0,.2l-1.3,2.8-.9,3s0,0,0,0l-.6,1.4s0,0,0,.1l-3.5,4.8-.4,1.2.2,1.3.3.4.4.5s0,0,0,0l.4.5c0,0,.1.2.1.3l.2.8s0,0,0,.2v1.7s0,0,0,0v.8c-.1,0-.1.1-.1.2l-.3.7-.4,1.3v.9c0,0,.2.8.2.8l2.7,4s0,0,0,0l.4.9s0,0,0,.2l.3,1.5s0,.1,0,.2v1.5s0,0,0,.1l-.3,1.4s0,0,0,.1l-.9,2.5-.2,1v1c.1,0,1.2,2.6,1.2,2.6l.5.7,1.4,1.5c0,0,.1.2.1.2l.3.9c0,.1,0,.3,0,.4l-.5,2.2v.8s2,3.3,2,3.3c0,.1.1.2.1.4v.8c0,.2,0,.4-.2.5l-1.4,1.3s0,0,0,0l-.8.6c0,0-.1,0-.2.1h-.2c0,.1-.1.1-.2.1l-2.2.3h0s-.2.3-.2.3c0,0-.1.1-.2.2l-.6.4s0,0-.1,0l-.7.4s-.1,0-.2,0l-.5.2c0,0-.2,0-.3,0Z"/>
        <path class="cls-1" d="M462.3,482.2v1.2c.1,0,.4.9.4.9l1.7,2.9.5.8-.2.6-.5.4-2.1,1.5-2.3,1.2-1,.9-1.3,1.9-.7,1.3-.6,2.6-.5.9h0v.6h0s0,.5,0,.5v.4l-.2.4-1.9,1.7-1,1.3-.5.5-.5.2h-.7c0,0-.6.2-.6.2l-.3.3-.2.6-.5.6-.6.4h-.6s0,0,0,0l-.3-.5-.2-.4-.3-1.7v-1.7s0-.9,0-.9h0c0,0-.1-.6-.1-.6l.4-4.3.3-.7.6-.8.3-.3,1-.7h.4c0-.1.1-.2.1-.2h.1c0-.1.2-1.1.2-1.1v-.3c.1,0,1.1-.3,1.1-.3h.9s1-.2,1-.2l1-.6.5-.6.2-.3.2-.7h0c0-.1.2-2.2.2-2.2l.3-1,.5-.8,2.7-3.3,1-2,.6-1.8.5-.6.8-.2.7.9h0s0,1,0,1l-.4,1-.2,1.1ZM494.5,372.1l1.3,1,1.3.7.3.3v.6s-.3.1-.3.1h-.5c0-.1-.4-.3-.4-.3v.8s.4.4.4.4h.7c0,0,.8,0,.8,0l4.3-1.4,1.5.6,2.3,1.6h.3s.9,0,.9,0h.3c0,0,.1.3.1.3v.6c.1,0,.2.3.2.3v.2s0,.2,0,.2v.3s.4.4.4.4h.3c0,.1.4.3.4.3h.4c0,0,.4.1.4.1l.2-.3-.4-.6-.8-.9.2-.8h.6s1.1-.2,1.1-.2l1.5.4,1.2,1.4.8,1.9.3,1.7-1.1,9.1-.7,2.4-1.1,2.2-3.2,4.2-1.7,1.3-.9.9-.4,1v1.3c-.1,0-1.2,2.6-1.2,2.6l-.3,2.7-.5,1.1-2.2.9-.7,1-.9,2-4.4,5.5-1.7,5-1.1,2.3-5.2,7.7-.4,1.8-.2.5-.5.4-7.9,3.2-1.6.9-6.2,4.7-7.5,7.4-2.3,3.3-.6.5-.8.5-.9,1.2-1.7,3-.2.5v1.9c-.1,0-.3.6-.3.6l-.3.5-3.2,2.4.2,1.1-.9.8-2.3,1.1h0c0,.1-.4,1.1-.4,1.1h0s-.4.4-.4.4l-.2.3v.3c-.1,0,0,.5,0,.5l.4.5.5.4.6.3.8-.4.9-.8.6-.3v1.1c0,0-.6.7-.6.7l-1,.7-1,.3-.5-.6h-.3l-.3.8-.4,1.5-.4.8-.4.4-1.2.7-.6.5-.7,1.1-.6,1.4-.4,1.5v1.5c-.1,0-1.6,2.6-1.6,2.6l-.8,1.9v.9c0,0-.2.4-.2.4l-.3,1.8-.2.4h-.5c0,0-.8.3-.8.3l-.8.4-.5.4-.4,1.5-1.2.6h-1.6s-1.5-.5-1.5-.5l-1.1-.5-.8-.2h-1.8c0,0-.7,0-.7,0l-1.3.5-.8.2.2-.5.3-.2-.3-.2-2-.5h-1.1c0-.1-1.2-.6-1.2-.6v-1.1c-.1,0,.6-2.2.6-2.2v.7s.2.6.2.6l.4.5.5.5.2-1.1-.6-2.5.5-1.1.7-1.1.6-1.6v-1.6c.1,0-.4-1.2-.4-1.2l7.9-23.9-6-2.8-6.3-16.6-5.4-17.3,14.4-4.8,14.2-4.7,13.1-4.4,12.5-4.2,12.1-6.1,6.9-3.4,2.7-6.7.5-7.4-1.1-2.9v-2.7c0,0,2.9-3,2.9-3Z"/>
        <path class="cls-1" d="M435.1,496h1.2s.7-.3.7-.3l.3-1.1c0-.2.1-.3.3-.4l.5-.4s.1,0,.2-.1l.8-.4s0,0,.1,0l.8-.2s0,0,.1,0l.3-1.7c0-.1,0-.2.1-.3v-.2c.1,0,.1-.6.1-.6,0-.1,0-.2,0-.3l.8-1.9s0,0,0,0l1.4-2.5v-1.3c.1,0,.2,0,.2-.1l.4-1.5s0,0,0-.1l.6-1.4s0,0,0-.1l.7-1.1c0,0,0-.1.1-.2l.6-.5s0,0,.1,0l1.1-.6.3-.2.3-.6.4-1.4s0,0,0,0l.3-.8c0-.2.2-.4.5-.4l-.2-.2s0-.1-.1-.1l-.4-.5c0,0,0-.1-.1-.2v-.5c-.2-.1-.2-.3-.1-.5v-.3c.2,0,.2-.1.2-.2l.2-.3s0,0,0,0l.4-.3.2-.5c0-.1,0-.2,0-.3,0-.2.2-.4.4-.5l2.2-1,.5-.4v-.7c-.2-.3,0-.6.1-.7l3.1-2.4.2-.3v-.4c.1,0,.2-1.9.2-1.9,0,0,0-.1,0-.2l.2-.5s0,0,0-.1l1.7-3s0,0,0,0l.9-1.2c0,0,.1-.1.2-.2l.7-.5.5-.4,2.2-3.2s0,0,.1-.1l7.6-7.4s0,0,0,0l6.2-4.7s0,0,.1,0l1.6-.9s0,0,0,0l7.8-3.2.2-.2v-.3c.1,0,.5-1.7.5-1.7,0,0,0-.2.1-.2l5.2-7.6,1-2.2,1.7-4.9c0,0,0-.2.1-.2l4.4-5.5.9-1.9s0,0,0-.1l.7-1c0-.1.2-.2.4-.3l1.9-.8.4-.7.2-2.5c0,0,0-.1,0-.2l1-2.6v-1.2c.2,0,.2-.1.2-.2l.4-1c0,0,0-.2.2-.2l.9-.9s0,0,0,0l1.6-1.2,3.1-4,1.1-2.1.7-2.3,1.1-8.9-.3-1.5-.7-1.7-1-1.1-1.1-.3h-.8c0,.1.4.5.4.5,0,0,0,0,.1.1l.4.6c.1.2.1.6,0,.8l-.2.3c-.2.2-.5.4-.8.3h-.4s0,0-.1,0h-.4c0,0,0,0-.1-.1h-.4c0-.1,0-.1-.1-.2h-.3c0-.2-.1-.2-.2-.3l-.4-.4c-.1-.1-.2-.3-.2-.4v-.3c0,0,0-.2,0-.3h0c0-.1,0-.2,0-.2,0,0,0-.1,0-.2v-.2s-.5,0-.5,0c0,0-.1,0-.2,0h-.3c-.1,0-.3-.1-.4-.2l-2.2-1.5-1.1-.4-4,1.3c0,0-.1,0-.2,0h-.8c0,0-.1,0-.2,0h-.7c-.2,0-.3-.2-.5-.3l-.4-.4c-.2-.1-.3-.3-.3-.5v-.8c0-.2,0-.4.2-.5l-.3-.2s0,0-.1,0l-.7-.5-2.3,2.2v2.3c0,0,1.1,2.8,1.1,2.8,0,.1,0,.2,0,.3l-.5,7.4c0,0,0,.1,0,.2l-2.7,6.7c0,.2-.2.3-.4.4l-6.9,3.4-12.1,6.1s0,0-.1,0l-53.4,17.9,5.1,16.6,6.1,16.3,5.7,2.7c.4.2.5.5.4.9l-7.8,23.6.4.9c0,.1,0,.2,0,.3v1.6c-.2,0-.2.1-.2.2l-.6,1.6c0,0,0,.1,0,.2l-.7,1-.4.9.5,2.2c0,.1,0,.2,0,.3l-.2,1.1c0,.3-.3.5-.5.6s-.6,0-.8-.1l-.5-.4v.3s.7.2.7.2h1c0,.1,0,.1.1.1l2,.5c0,0,.1,0,.2,0l.3.2c.1,0,.2.1.3.2l.6-.2c0,0,.1,0,.2,0h.7c0-.1.1-.1.2-.1h1.8c0,0,.2,0,.2.1l.8.2s0,0,.1,0l1,.5,1.3.4ZM436.5,497.6h-1.6c0,0-.2,0-.2,0l-1.5-.5s0,0,0,0l-1-.5-.6-.2h-1.6c0,0-.5,0-.5,0l-1.2.5s-.1,0-.1,0l-.8.2c-.3,0-.6,0-.8-.2-.2-.2-.3-.5-.2-.8h0c0-.1-1.2-.4-1.2-.4h-1c0-.1-.1-.1-.2-.2l-1.2-.5c-.3-.1-.5-.3-.5-.6v-1.1c-.1-.1-.1-.2-.1-.3l.7-2.2c.1-.4.5-.6.9-.5v-.4c-.1-.2-.1-.3,0-.5l.5-1.1s0,0,0-.1l.7-1,.5-1.4v-1.4c.1,0-.3-1-.3-1,0-.2,0-.3,0-.5l7.7-23.3-5.4-2.5c-.2,0-.3-.2-.4-.4l-6.3-16.6-5.4-17.3c-.1-.4.1-.8.5-.9l54.1-18.1,18.7-9.3,2.6-6.3.5-7.2-1-2.8c0,0,0-.1,0-.2v-2.7c0-.2,0-.4.2-.5l3-3c.3-.3.8-.3,1.1,0l1.2,1,1.2.6s.1,0,.1.1l.3.3c.2.1.2.3.3.5v.6c0,0,0,.1,0,.2l4-1.3c.2,0,.4,0,.6,0l1.5.6c0,0,.1,0,.2.1l2.1,1.4h.8c.1-.1.2-.1.3,0h.3c.2.1.4.3.5.4h0c.1-.1.4-.2.6-.2h.5s1.1-.2,1.1-.2c.1,0,.2,0,.4,0l1.5.4c.2,0,.3.1.4.3l1.2,1.4c0,0,0,.1.1.2l.8,1.9s0,.1,0,.2l.3,1.7c0,0,0,.1,0,.2l-1.1,9.1s0,0,0,.1l-.7,2.4s0,0,0,.1l-1.1,2.2s0,0,0,.1l-3.2,4.2s0,.1-.1.1l-1.6,1.3-.8.8-.3.8v1.2c-.2,0-.2.1-.2.2l-1,2.6-.2,2.6c0,0,0,.2,0,.2l-.5,1.1c0,.2-.2.3-.4.4l-2,.8-.5.7-.9,2c0,0,0,.1-.1.2l-4.3,5.4-1.6,4.9s0,0,0,0l-1.1,2.3s0,0,0,.1l-5.1,7.6-.4,1.6s0,0,0,0l-.2.5c0,.1-.1.2-.2.3l-.5.4c0,0-.1.1-.2.1l-7.8,3.2-1.5.9-6.2,4.7-7.5,7.3-2.2,3.2s0,.1-.1.1l-.6.5s0,0,0,0l-.6.4-.8,1-1.7,2.9v.4c-.1,0-.3,1.8-.3,1.8,0,0,0,.1,0,.2l-.2.6c0,0,0,.1-.1.2l-.3.5c0,0-.1.1-.2.2l-2.9,2.1v.7c.2.3.1.5-.1.7l-.9.8c0,0-.1,0-.2.1l-1.9.9-.4.9c0,.2-.2.3-.4.4l-.4.3h0c0,.1.2.5.2.5l.4.3h.3c0-.1.8-.9.8-.9,0,0,.1,0,.2-.1l.6-.3c.3-.1.6-.1.9,0s.4.4.4.7v1.1c0,.1-.1.3-.2.4l-.5.7c0,0-.1.1-.2.2l-1,.7c0,0-.2.1-.3.1l-1,.3c-.2,0-.5,0-.7,0l-.4,1.2c0,0,0,.1,0,.2l-.4.8c0,0-.1.1-.2.2l-.4.4s0,0-.1.1l-1.2.6-.5.4-.6.9-.6,1.3-.4,1.4v1.4c-.2,0-.2.2-.2.3l-1.4,2.6-.7,1.7v.7c0,.2,0,.4,0,.5l-.2.3-.3,1.6s0,.1,0,.1l-.2.4c-.1.2-.3.4-.6.5h-.4c0,0-.6.3-.6.3l-.6.3-.2.2-.3,1.2c0,.2-.2.4-.4.5l-1.2.6c-.2,0-.3,0-.4,0ZM448.3,506l.2.3h.2c0-.1.3-.6.3-.6v-.5c.2,0,.2-.1.3-.2l.3-.3c.1-.1.3-.3.5-.3h.6c0-.2,0-.2,0-.2h.6c0,0,.2-.2.2-.2l.3-.3,1-1.2s0,0,0-.1l1.9-1.8h0c0-.1,0-.6,0-.6,0,0,0-.1,0-.2v-.6c0-.1,0-.2,0-.4l.5-.9.6-2.5c0,0,0-.1,0-.2l.7-1.3s0,0,0,0l1.3-1.9c0,0,0-.1.1-.1l1-.9s.1,0,.1-.1l2.2-1.1,2.1-1.4.3-.3h0c0-.1-2-3.5-2-3.5,0,0,0,0,0-.1l-.3-.9c0,0,0-.1,0-.2v-1.2c-.1,0-.1-.1-.1-.2l.2-1.1s0,0,0-.1l.3-.9v-.6s-.1-.2-.1-.2l-.2.3-.6,1.7s0,0,0,.1l-1,2s0,0,0,.1l-2.6,3.2-.5.7-.3.9-.2,2s0,0,0,.1l-.2.8c0,0,0,.2-.1.2l-.7.9c0,0-.1.1-.2.2l-1,.6c-.1,0-.2.1-.3.1h-1c0,.1,0,.2,0,.2h-.8s-.5.2-.5.2l-.2.9c0,.1-.1.2-.2.4l-.2.2c0,0-.2.1-.3.2h-.3c0,.1-1.1.9-1.1.9l-.5.6-.2.5-.4,4.1v.4c.1,0,.1.2.1.3v.9c-.1,0,0,1.6,0,1.6l.2,1.5ZM448.1,507.9c-.3,0-.6-.2-.7-.4l-.5-.9c0,0,0-.2,0-.2l-.3-1.7s0,0,0-.1v-1.7c0,0,0,0,0-.1v-.8c.1,0,0-.4,0-.4,0,0,0-.2,0-.2l.4-4.3c0,0,0-.1,0-.2l.3-.7c0,0,0-.1.1-.2l.6-.8s0,0,0,0l.3-.3s0,0,0,0l1-.7c0,0,.1,0,.2-.1h.2c0,0,.2-.8.2-.8,0,0,0,0,0-.1v-.3c.2-.2.4-.4.6-.4l1-.3c0,0,.2,0,.2,0h.9s.7-.1.7-.1l.7-.5.5-.6.2-.6.2-2s0-.1,0-.1l.4-1s0-.1,0-.1l.5-.8s0,0,0,0l2.6-3.2,1-1.9.6-1.8c0,0,0-.1.1-.2l.5-.6c.1-.1.3-.3.5-.3l.8-.2c.3,0,.7,0,.9.3l.7.9c0,.1.1.3.1.4v1c0,0,0,.1-.1.2l-.4,1-.2.9v1c.1,0,.4.8.4.8l2.2,3.7c.1.2.1.4,0,.6l-.2.6c0,.1-.1.2-.2.3l-.5.4s0,0,0,0l-2.1,1.5s0,0,0,0l-2.2,1.1-.9.7-1.2,1.8-.6,1.2-.6,2.5c0,0,0,.1,0,.2l-.4.8v.9c.1,0,.1,0,.1.1v.4c0,.1,0,.3-.1.4l-.2.4c0,0,0,.1-.1.2l-1.8,1.7-1,1.2s0,0,0,0l-.5.5c0,0-.2.2-.3.2l-.5.2c0,0-.1,0-.2,0l-1,.2v.5c-.2,0-.2.1-.3.2l-.5.6c0,0-.1.1-.2.2l-.6.4c-.1,0-.3.1-.4.2h-.6c0,0,0,0,0,0Z"/>
        <polygon class="cls-1" points="482 357 483.5 360.6 483.7 361.4 484.2 362.4 485.2 363.2 487.2 364.2 489.4 367.5 489.7 368.4 490.5 369.2 492.8 371.3 494.6 372.1 491.5 375.1 491.6 377.8 492.7 380.8 492.1 388.2 489.4 394.9 482.5 398.3 470.4 404.3 457.9 408.5 444.8 412.9 430.6 417.7 416.2 422.5 402.3 377.4 407.9 366.8 420.7 357.5 424.1 357.1 433.4 351.6 441.9 349.6 458.6 360.1 477 362.4 480.7 358.6 482 357 482 357"/>
        <path class="cls-1" d="M403.2,377.5l13.5,44,53.3-17.9,18.7-9.3,2.6-6.3.5-7.2-1-2.8c0,0,0-.1,0-.2v-2.7c0-.2,0-.4.2-.5l2.3-2.2-.8-.4c0,0-.1,0-.2-.1l-2.3-2s0,0,0,0l-.8-.9c0,0-.1-.2-.1-.2l-.3-.8-2-3-1.8-.9s0,0-.1,0l-1-.7c-.1,0-.2-.2-.3-.3l-.4-1.1s0,0,0,0l-.2-.8-.9-2.2-.4.5-3.7,3.8c-.2.2-.5.3-.7.2l-18.4-2.2c-.1,0-.2,0-.4-.1l-16.5-10.3-8,1.8-9.2,5.5c-.1,0-.2.1-.4.1l-3.2.4-12.5,9.1-5.3,10.2ZM416.2,423.3c-.1,0-.3,0-.4,0-.2-.1-.4-.3-.4-.5l-13.9-45c0-.2,0-.4,0-.5l5.5-10.6c0-.1.1-.2.2-.3l12.8-9.3c.1,0,.3-.1.4-.2l3.2-.4,9.1-5.4c0,0,.2,0,.2-.1l8.5-1.9c.2,0,.5,0,.7.1l16.6,10.4,17.8,2.2,3.4-3.5,1.2-1.5c.2-.2.5-.3.8-.3s.5.2.7.5l1.5,3.6s0,0,0,.1l.2.8.3.8.8.6,2,1c.1,0,.2.2.3.3l2.2,3.3s0,.1,0,.2l.3.8.6.7,2.2,1.9,1.6.8c.2.1.4.3.4.5,0,.2,0,.5-.2.6l-2.8,2.8v2.3c0,0,1.1,2.8,1.1,2.8,0,.1,0,.2,0,.3l-.5,7.4c0,0,0,.1,0,.2l-2.7,6.7c0,.2-.2.3-.4.4l-6.9,3.4-12.1,6.1s0,0-.1,0l-54.2,18.1c0,0-.2,0-.3,0Z"/>
        <polygon class="cls-1" points="419 311 422.4 312.3 423.4 312.5 424.3 312.9 426.4 314.8 427.4 315.6 429.3 316.2 431.9 316.5 434.6 316.4 436.9 316 438.1 315.6 438.6 315.2 439 314.2 439.5 314.2 440.6 314.4 443 314.5 444.3 314.7 445.4 315.2 445.9 315.9 447 318.2 447.5 318.6 447.8 318.8 448 319 448.3 319.3 448.4 319.4 448.6 319.4 448.9 319.4 449.3 319.4 449.6 319.4 450.4 320.1 450.9 320.5 451.1 321 451.5 321 451.9 320.2 452 320.5 452.1 320.7 452.2 320.9 452.3 321.4 452.7 321.4 452.8 321.1 453 320.6 453.3 320.8 453.5 320.9 454.2 320.6 455.6 322.3 455.9 323.2 455.7 324 456.2 324.8 456.8 327.4 457.5 328.5 460.8 331.3 462.8 332.1 463.6 333.1 464.5 335.5 465.1 336.4 466.8 337.9 467.6 339.1 468.1 342.4 471.6 345.7 471.9 346.2 472.2 347.8 472.4 348.2 472.7 348.5 474.2 349.6 477.2 351.3 479.1 352.6 480.5 354.1 481.5 355.8 482 357 482 357 480.7 358.7 477 362.4 458.6 360.2 441.9 349.7 444.5 337 430.3 323.6 418.2 325.1 418.2 325.1 416.8 319.5 418.6 311.5 418.5 311.5 418.5 311.4 419 311"/>
        <polygon class="cls-1" points="385.5 304.5 388.5 305.7 391.8 306.7 394.1 307.1 395.4 307.1 399.2 306.9 400.2 307.1 401.9 309.1 402.4 309.5 403.8 309.8 405.4 310.6 406.8 310.7 414.1 310.4 416.5 310.5 419.1 311 418.6 311.4 418.6 311.5 418.7 311.6 416.9 319.6 418.3 325.1 406.1 334.4 404.4 337.9 390.1 340 387.9 339 381.5 338.4 364.9 322.7 371.8 320.7 379 315 385.5 304.5"/>
        <polygon class="cls-1" points="416.2 422.5 421.6 439.8 427.9 456.4 410.1 448 318.1 405.6 329.1 392.4 338 367.8 348.7 323.5 364.9 322.7 381.5 338.3 387.9 339 390.1 340 404.4 337.8 406.1 334.4 418.3 325.1 418.3 325.1 430.4 323.6 444.5 337 441.9 349.7 433.4 351.6 424.1 357.1 420.7 357.5 407.9 366.8 402.4 377.5 416.2 422.5"/>
        <path class="cls-1" d="M319.4,405.4l91.1,42,15.9,7.5-5.6-14.8-5.4-17.3-13.9-45c0-.2,0-.4,0-.5l5.5-10.6c0-.1.1-.2.2-.3l12.8-9.3c.1,0,.3-.1.4-.2l3.2-.4,9.1-5.4c0,0,.2,0,.2-.1l7.9-1.8,2.4-11.8-13.5-12.8-11.5,1.4-11.8,9-1.6,3.3c-.1.2-.4.4-.6.4l-14.3,2.1c-.2,0-.3,0-.5,0l-2-.9-6.3-.7c-.2,0-.4-.1-.5-.2l-16.3-15.4-15.1.7-10.6,43.7s0,0,0,0l-8.9,24.7c0,0,0,.2-.1.2l-10.4,12.5ZM427.9,457.2c-.1,0-.3,0-.4,0l-17.8-8.4-92-42.4c-.2-.1-.4-.3-.4-.5,0-.2,0-.5.1-.6l11-13.1,8.8-24.5,10.7-44.2c0-.3.4-.6.8-.6l16.1-.7c.2,0,.5,0,.6.2l16.4,15.4,6.2.6c0,0,.2,0,.3,0l1.9.9,13.6-2,1.5-3.1c0-.1.1-.2.2-.3l12.2-9.3c.2-.1.4-.2.6-.2l11.9-1.5c.3,0,.5,0,.7.2l14.1,13.4c.2.2.3.4.2.7l-2.6,12.7c0,.3-.3.5-.6.6l-8.3,1.9-9.2,5.5c-.1,0-.2.1-.4.1l-3.2.4-12.5,9.1-5.3,10.2,13.8,44.8,5.3,17.3,6.2,16.6c.1.3,0,.6-.2.8-.1.2-.3.2-.5.2Z"/>
        <g>
          <path class="cls-1" d="M307.8,201.2h0c0,0-.3-.7-.3-.7l-.3-2.6v-1s.6-.6.6-.6l.7-.5.4-.7-.3-.7-1.3-1.6-.2-1,.3-.9,1.1-1.4.4-.8.2-5.1.4-1.7v-1.1c.1,0-.2-1.2-.2-1.2l-.9-2.2h-.6c0,0-2.8.6-2.8.6h-1.3c0,.1,0,0,0,0l.3-.5.5-2.1,3.7-5.4,1.4-2.6.6-.5.9-.5v.3s0,.8,0,.8l.6.9-.2.3-.2.8h.4l.5-.5h1.5c0,0,.3-.4.3-.4l.3-.2.7.2.7.6.2,1,.4-.6h.4s.5.3.5.3h.7s1.5-1.1,1.5-1.1h.6c0-.1,1.7.3,1.7.3h.4c0,0,.1-.5.1-.5l-.3-.5-.4-.4-.4-.2h-1.1c0-.1-.7,0-.7,0l-.5.3-.3.4-.5.5-.7.3-.6-.2v-.6s.4-2.4.4-2.4v-.9l1.6,1.2.7.2.3-.8-.3-.4-.6-.6-.8-.5-.7-.2.2-.5h.3c0-.1.3-.1.3-.1l.3-.2.7-.8.3-.7v-1.2c0,0,.1-.8.1-.8h.4l.8,1.6.9-.5.3-.2.4.4-.3.4h0c0,.1.1.3.1.3l.2.4.5-.4h.3c0,.1.3.5.3.5l.4.3,1.3.3h.7c0,0,.7,0,.7,0v-.3c-.1,0-.3-.7-.3-.7v-.3c-.1,0,1.1-.4,1.1-.4l.6,1.4v.6c-.1,0-.9,0-.9,0h-1.4c0,0-.9.2-.9.2l-1.7,1.4-.9.6h0v.3s-.5.6-.5.6l1.2,1.2.6.5.8.2.5-.2.6-.4h.6c0-.1.6.7.6.7l-1,1.7-.5.2-.4-1.1h-.6c0,0-.6,0-.6,0l.2.6v.4c0,0,0,.3,0,.3l-.2.3.7.7.9.5.7.6.4,1h-.7s-.6-.1-.6-.1l-.5-.3-.5-.4-.8.4-.7-.3-.4-.7v-.9s-.4.2-.4.2l-.9.4-.3.2v-.6s0-.5,0-.5l.3-.3.4-.2-1.3-.2-1.4.8-.8,1.1.4.7-.3.6v.7c0,0,0,.7,0,.7l.2.7.5-1.1.5-.6.6-.2.4.4v.7c0,0-.1.7-.1.7l-.3.6,1.1.4h5c0,0-.5.7-.5.7l-.9.7-1.7.9-1.6.6-.5.5.2.9,1.4-.7.8.6v1.1s-1.3.8-1.3.8l.3.6.7.9.2.4.5.2,1.2.3-.4.3-.2.2-.2.8-.8-.4-.9-.2h-.8c0,0-.5.6-.5.6l.9,1.4-.4,1.2-.9,1.2-.7,1.2v.4c0,0,0,1.4,0,1.4l-1.1,1-.9,1.6-.6.7-.8.4v-1.2l-.8,1.2-.8,1.9-.4,2.1.4,1.9.3.7-2.3.6-.9.2-.9-.2-.4-.4-.5-1.1-.5-.4-1.3-.2h-.2ZM314,224.5l1.1-.4.3-.9-.8-.5h-.5s-.3.3-.3.3l.2,1.5ZM318.8,221.9l-.3,1.6-1.6.8-1.3.4-.6.5-1.7,1.1-.9.4-.9-.2-.7-.3v-.3s0-.2,0-.2v-1.4c.1,0,1.6-.7,1.6-.7l.5-.6-.3-.5-.2-.6v-.9c-.1,0,1.4-1.1,1.4-1.1l1.7.2,1,1.5,2.2.4Z"/>
          <path class="cls-1" d="M320,166.9h1c0,.1.2.1.2.2l-.3-.3c-.3-.3-.3-.7,0-1l.3-.4c0-.3,0-.6.3-.7l.9-.5,1.3-1.1h-.1c-.1,0-.2-.1-.3-.2l-.4-.3s0,0-.1,0c-.2.1-.5.2-.7.1-.3,0-.5-.2-.6-.5v-.3c-.2,0-.2,0-.2-.1h0c-.2.2-.5.2-.7.2,0,0-.1,0-.2,0,0,0,0,.1,0,.1l-.3.7c0,0,0,.1-.1.2l-.7.8c0,0-.1.1-.2.2h0s.3.2.3.2c0,0,0,0,.1,0l.6.6c0,0,.1.1.1.2l.3.4c.1.2.1.4,0,.6l-.3.8c0,0,0,.1,0,.2ZM317.7,166.6l-.3,1.6.4-.4.3-.3c0,0,.1-.1.2-.2l.4-.2h-.4c0-.2-.2-.2-.2-.2l-.4-.3ZM322.7,168.4h0c0,.1,0,.1,0,.1,0,0,0,0,0,0h-.1ZM325.3,168.5s0,0,0,0v-.2c.1,0,0,.1,0,.1ZM322,170.2c.1,0,.2,0,.3,0,.1,0,.3.2.3.3,0-.1,0-.3,0-.4l.2-.3h0c0-.1-.1-.4-.1-.4v.2c-.1.3-.4.5-.7.5h0s0,0,0,0ZM322.9,172h0s.5-.2.5-.2c0,0,0,0,0,0t0,0l-.7-.7c0,0,0-.1-.1-.2h0s0,.8,0,.8l.2.3ZM311.2,202.8h.5c0,.1.7,0,.7,0l1.4-.4s0,0,0,0l-.4-1.9c0,0,0-.2,0-.3l.4-2.1c0,0,0-.1,0-.1l.8-1.9s0,0,0-.1l.8-1.2c.2-.3.6-.4.9-.4.2,0,.4.2.5.4h0s.9-1.5.9-1.5c0,0,0-.1.1-.2l.8-.8v-1c0,0,0,0,0-.1v-.4c0,0,.1-.2.1-.2l.7-1.2s0,0,0,0l.8-1.1.2-.8-.7-1.1c-.2-.3-.1-.7,0-.9l.5-.6c.1-.1.3-.2.5-.2h.8c0,0,.1,0,.1,0h0l-.2-.4-.7-.9c0,0,0-.1,0-.2l-.3-.6c-.1-.3,0-.7.3-.9l.9-.6v-.3s0,0,0,0l-.9.4c-.2.1-.5.1-.8,0-.2-.1-.4-.3-.5-.5l-.2-.9c0-.2,0-.5.2-.7l.5-.5c0,0,.2-.2.3-.2l1.6-.6,1.6-.9h-3.2c-.1,0-.2,0-.3,0l-1.1-.4c-.3-.1-.5-.4-.5-.7-.1.2-.4.4-.8.4-.4,0-.7-.2-.8-.5l-.2-.7s0,0,0-.1v-.7c-.1,0-.1-.1-.1-.2v-.7c0,0,0-.2.1-.2v-.3c.1,0-.1-.4-.1-.4-.1-.3-.1-.6,0-.8l.3-.4h-.2c-.1,0-.3,0-.4,0h0s0,0,0,0c-.2.3-.5.4-.9.4-.4,0-.6-.3-.7-.6v-.8c-.1,0-.5-.3-.5-.3h-.1s-.1,0-.1,0c-.1.2-.4.3-.6.3h-1.1c0,0-.3.4-.3.4-.2.1-.4.2-.6.2h-.4c-.3,0-.5-.1-.7-.3-.2-.2-.2-.4-.1-.7l.2-.8s0,0,0,0l-.4-.6s0,0,0-.1h0s-1.3,2.5-1.3,2.5c0,0,0,0,0,0l-3.6,5.3-.4,1.4,2.7-.7c.1,0,.2,0,.3,0h.6c.3.1.6.3.7.6l.9,2.2s0,0,0,.1l.3,1.2c0,0,0,.2,0,.2v1.1c-.1,0-.5,1.7-.5,1.7l-.2,5.1c0,0,0,.2,0,.3l-.4.8c0,0,0,.1,0,.1l-1,1.3-.2.5.2.6,1.2,1.5c0,0,0,.1.1.2l.3.7c0,.2,0,.4,0,.6l-.4.8c0,.1-.1.2-.2.3l-.7.5-.4.3v.6s.2,2.4.2,2.4v.3c.1,0,1.3.2,1.3.2.1,0,.3,0,.4.2l.5.4c.1,0,.2.2.2.3l.5,1.1h.2ZM311.6,204.5c0,0-.1,0-.2,0l-.9-.2c-.2,0-.3-.1-.4-.2l-.4-.4c0,0,0-.1-.1-.2l-.5-1h-.2c0-.1-1.1-.3-1.1-.3-.1,0-.2,0-.3,0h-.2c0-.1,0-.2,0-.2-.1,0-.3-.2-.3-.4l-.3-.7c0,0,0-.1,0-.2l-.3-2.6h0c0-.1,0-1.1,0-1.1,0-.2,0-.4.2-.5l.6-.6s0,0,.1,0l.6-.4.2-.3v-.3c-.1,0-1.3-1.5-1.3-1.5,0,0-.1-.2-.1-.3l-.2-1c0-.1,0-.3,0-.4l.3-.9c0,0,0-.2.1-.2l1-1.3.3-.6.2-5s0,0,0-.1l.4-1.7v-.9c.1,0-.1-1-.1-1l-.7-1.7-2.7.6s0,0-.1,0h-1.3c-.3.1-.5,0-.7-.2s-.2-.4-.2-.7c0,0,0,0,0-.1l.2-.5.5-2c0,0,0-.2.1-.2l3.7-5.4,1.3-2.5c0,0,.1-.1.2-.2l.6-.5c0,0,.1-.1.2-.1l.9-.5c.2-.1.5-.1.8,0s.4.3.5.6v.3c0,0,0,.1,0,.2v.5s.5.7.5.7c0,0,0,.2.1.3h.7s0-.1,0-.1c0-.1.2-.2.3-.2l.3-.2c.2-.1.5-.1.7,0l.7.2c.1,0,.2.1.3.2h.1c0,.1,0,0,0,0,0,0,0,0,0-.1l.4-2.4v-.8c0-.3.2-.6.5-.7h0s0,0,0,0c-.1-.2-.1-.4,0-.6l.2-.5c0-.2.3-.4.5-.4h.3c0-.1.2-.2.3-.2h.1l.5-.6.2-.4v-1.1c0,0,0-.1,0-.2l.2-.8c0-.4.4-.6.8-.6h.4c.3,0,.6.2.8.4l.4.7.2-.2c.2-.1.4-.2.6-.2s.4.1.6.2l.4.4c.1.1.2.3.2.5,0,0,0,0,0,0h.3c.1.2.2.3.3.4l.2.3h.2c0,.1,1.2.4,1.2.4h0c0-.3,0-.5,0-.7,0-.2.3-.3.5-.4l1.2-.4c.4-.1.9,0,1.1.5l.6,1.4c0,.1,0,.3,0,.4v.6c-.2.3-.5.6-.9.6h-.8c0,0,0,0-.1,0h-1.2c0,0-.6.2-.6.2l-1.6,1.3s0,0-.1,0l-.5.3c0,.1,0,.3-.2.4h0c0,0,.7.8.7.8l.5.4h.3c0,0,.1,0,.1,0l.5-.4c.1,0,.2-.1.4-.2h.6c.3-.2.6,0,.8.2l.6.8c.2.2.2.6,0,.8l-1,1.7c0,.1-.2.3-.4.3l-.5.2c0,0-.1,0-.2,0l.3.2s0,0,.1,0l.7.6c.1,0,.2.2.2.3l.4,1c0,.2,0,.5-.1.7-.2.2-.4.3-.7.3h-.6c0,0-.1,0-.2,0h-.6c0-.2-.1-.2-.2-.2l-.5-.3c0,0-.1,0-.1-.1h0c0,0-.3,0-.3,0-.2.1-.5.1-.7,0l-.7-.3c-.2,0-.3-.2-.4-.3l-.4-.7s0,0,0,0h0s-.3.2-.3.2c-.2.1-.6.2-.8,0-.3-.1-.4-.4-.5-.6v-.6s0,0,0-.1l-.5.2-.4.6.2.3c.1.2.1.4,0,.6h.5c.3-.2.7-.2.9,0l.4.4c.1.1.2.3.2.5v.7c0,0,0,.1,0,.2l-.2.7h0s.2,0,.2,0h4.9c.3,0,.6,0,.7.3.1.2.1.5,0,.8l-.5.8c0,0-.1.1-.2.2l-.9.7s0,0-.1,0l-1.7.9s0,0-.1,0h-.2c0,0,.7.7.7.7.2.1.3.3.3.6v1.1c0,.3-.1.5-.3.6l-.7.4.6.8s0,0,0,.1v.2c0,0,.3,0,.3,0l1.2.3c.3,0,.5.3.6.6,0,.3,0,.6-.4.8l-.3.2-.2.6c0,.2-.2.4-.5.5-.2.1-.5,0-.7,0l-.8-.4-.7-.2h-.2s.5.8.5.8c.1.2.1.4,0,.6l-.4,1.2c0,0,0,.2-.1.2l-.9,1.2-.6,1.1v.2s0,1.3,0,1.3c0,.2,0,.4-.2.6l-1,.9-.9,1.4s0,0,0,.1l-.6.7c0,0-.1.1-.2.2l-.8.4c-.2.1-.4.1-.6,0l-.6,1.3-.4,1.9.4,1.7.3.6c0,.2,0,.4,0,.6-.1.2-.3.3-.5.4l-2.3.6-1,.2c-.1,0-.2,0-.2,0ZM314.6,221.9c.2,0,.3,0,.5.1l.8.5c.3.2.4.5.3.8v.3c-.1,0,.4-.2.4-.2l1.1-.5v-.4c0,0-1.4-.3-1.4-.3-.2,0-.4-.2-.5-.3l-.8-1.2h-1c0-.1-.9.5-.9.5v.4s.2.5.2.5h0c.1-.2.4-.2.6-.3h.5s0,0,0,0ZM311.9,225.7h.5c0,.1.6,0,.6,0l.6-.4s0,0,0,0c-.2-.1-.4-.3-.4-.6v-.6c0,0,0,0,0,0,0,0-.2.1-.3.2l-1.1.5v.9c0,0,0,0,0,0h.2ZM312.4,227.4c0,0-.1,0-.2,0l-.9-.2s-.1,0-.1,0l-.7-.3c-.2-.1-.4-.3-.5-.6v-.6c0,0,0-.1,0-.2v-1.4c.1-.3.3-.5.6-.6l1.4-.6c0,0,0-.1-.1-.2l-.2-.6s0,0,0-.1v-.9c-.1-.3,0-.5.2-.7l1.5-1.1c.2-.1.4-.2.6-.1l1.7.2c.2,0,.5.2.6.3l.9,1.2,1.9.4c.4,0,.7.5.7.9l-.3,1.6c0,.2-.2.4-.4.6l-1.6.8s0,0-.1,0l-1.2.4-.5.4-1.7,1.1s-.1,0-.1,0l-.9.4c-.1,0-.2,0-.3,0Z"/>
          <polygon class="cls-2" points="308.8 248.5 309.7 248.2 311.7 247.9 312.8 247.5 314.6 245.8 314.9 245.5 316.5 244.5 316.8 243.9 316.8 243.5 316.9 242.5 317.1 240.7 317.4 240.4 317.6 240.1 320.7 239.8 321.9 244.4 325.5 251.3 326.1 251.8 326.5 253.2 326.8 255.5 333.4 267 334.8 268.4 337.9 271 344.1 277.9 345.3 279.7 345.8 280.8 346.3 282.4 351.8 288.5 358.4 293.7 363.6 297.6 365.5 298.7 373.4 301.5 383.6 304 384.9 304.6 378.4 315.1 371.2 320.8 364.3 322.8 348.1 323.6 347.2 322.4 342 304.2 325.4 290.7 316.7 287.1 316.4 282.2 310.9 265 303.5 256.1 303.5 253.8 303.6 253.8 304.8 253.8 305.9 253.5 306.4 252.9 306.7 252 307.9 250.6 308.8 248.5 308.8 248.5"/>
          <path class="cls-1" d="M269.3,319.5l6.5.6,5.6-3c0,0,.1,0,.2,0l7.3-1.9,3.3-2-1.8-7.7c0-.2,0-.5.2-.6l2.3-2.7c0,0,.2-.2.3-.2l3-1.4v-4.2c0-.3.1-.5.4-.6l3.1-2c0,0,.2-.1.3-.1l8.2-1.6c0,0,.1,0,.2,0h6l1.7-4.9-.3-4.6-5.4-17-7.3-8.8c-.1-.1-.2-.3-.2-.5v-1.6s0,0,0,0c-.1,0-.3,0-.4-.2l-1.7-1.3c-.1,0-.2-.2-.3-.3l-1.6-3.7-1.9-1.6c0,0-.1-.2-.2-.3l-.4-.8c0-.1,0-.3,0-.5l.2-.7c0-.3.3-.5.6-.6l1-.3c.1,0,.3,0,.4,0l.8.2c0,0,.1,0,.2,0l.5.2-.3-1.8-.5-1.4-1.1-.6-2.1-.3-1.9.4-1.8,1-1.7,1.5-1.6,1.8-.5,1.5.5,4.2v1.1h0c0,0-.2,2.1-.2,2.1v.8c0,0,1.2,2.2,1.2,2.2,0,0,0,.1,0,.2l.2,1.1c0,.2,0,.5-.3.7l-1.4,1.1-.3,1.6c0,.1-.1.3-.2.4l-.7.7-.4.5v.9s.7,2.3.7,2.3c0,0,0,.1,0,.2v3c-.1,0,0,.6,0,.6v.2c.1,0,1.2.6,1.2.6,0,0,.1.1.2.2l.4.5c0,0,.1.2.1.3v.5c.1,0,.2.2.1.2l-.2,2.7c0,0,0,.2,0,.2l-.4.8s0,0,0,0l-2.1,3.5-.4.8v.2s.2,0,.2,0l3.3.7h.7s3-1.1,3-1.1c.2,0,.4,0,.6,0l1.7.6c.2,0,.4.2.5.4l.9,2s0,0,0,.1l.6,2.3,2,3.4c.1.2.1.5,0,.8l-.6.9c-.1.2-.3.3-.5.3l-3.5.8-6.5,2.4c-.1,0-.3,0-.4,0h-1c-.1-.1-.3-.2-.4-.3l-1.2-.8h-.6c0,0-.9.4-.9.4,0,0-.2,0-.3,0h-.9s-.1,0-.2,0l-1.8-.3h-1.7s-1.4.2-1.4.2l-1.4.5-2.7,1.4s0,0-.1,0l-2.4.8s0,0-.1,0l-1.9.3h0c0,0,.3.7.3.7l.8.6,2,1.1c.1,0,.2.1.3.2l.9,1.2c0,.1.1.2.1.3l.2,1.6s0,0,0,0l.2,4.3c0,0,0,.2,0,.2l-.2.7c0,0,0,.1-.1.2l-2.6,3.5-.4.8-1.6,6ZM275.9,321.6h0l-7.7-.7c-.2,0-.5-.1-.6-.3s-.2-.4-.1-.6l1.8-7s0-.1,0-.2l.5-1s0,0,0,0l2.5-3.5.2-.5-.2-4.1-.2-1.4-.7-1-1.9-1s0,0-.1,0l-.9-.8c0,0-.1-.2-.2-.2l-.5-1c0-.2,0-.3,0-.5l.2-.8c0-.3.3-.5.6-.6l2.3-.4,2.2-.8,2.7-1.4s0,0,0,0l1.5-.6s.1,0,.2,0l1.6-.3c0,0,.1,0,.2,0h1.9s0,0,.1,0l1.7.3h.6s.8-.3.8-.3c0,0,.1,0,.1,0l1-.2c.2,0,.5,0,.6.1l1.3.9h.6c0,0,6.3-2.3,6.3-2.3,0,0,0,0,.1,0l3.2-.7.2-.2-1.8-3c0,0,0-.1,0-.2l-.6-2.3-.7-1.7-1-.4-2.8,1c-.1,0-.2,0-.4,0h-.9s0,0-.1,0l-3.5-.7c0,0-.1,0-.2,0l-.7-.3c-.3-.1-.4-.4-.5-.6v-.9c-.1-.1,0-.2,0-.4l.5-1s0,0,0,0l2.1-3.5.3-.7.2-2.5v-.2s-.3-.3-.3-.3l-1-.6c0,0-.1,0-.2-.1l-.4-.4c0-.1-.1-.2-.2-.4l-.2-.9c0,0,0-.1,0-.2v-2.9c.1,0-.6-2.3-.6-2.3,0,0,0-.1,0-.2v-1.2c0-.2,0-.3,0-.5l.6-.8s0,0,0,0l.6-.6.3-1.7c0-.2.1-.3.3-.4l1.2-1v-.6c-.1,0-1.2-2.2-1.2-2.2,0,0,0-.1,0-.2v-1c-.1,0-.1-.1-.1-.2l.2-2.1v-1l-.5-4.3c0-.1,0-.2,0-.3l.6-1.8c0,0,0-.2.1-.2l1.7-2h0c0,0,1.8-1.6,1.8-1.6,0,0,0,0,.1,0l2-1.1c0,0,.1,0,.2,0l2.1-.5c.1,0,.2,0,.3,0l2.3.3h.1c.1,0,.2,0,.3.1l1.5.9c.2,0,.3.2.3.4l.6,1.7s0,0,0,.1l.7,3.7c0,.3,0,.6-.4.8-.3.2-.6.1-.9,0l-1.3-.9-.6-.3h-.5c0-.1-.3,0-.3,0l.2.4,2,1.6c.1,0,.2.2.2.3l1.6,3.7,1.4,1h.6c.4.1.7.5.7.9v2s7.2,8.6,7.2,8.6c0,0,.1.2.1.2l5.5,17.2c0,0,0,.1,0,.2l.4,4.9c0,.1,0,.2,0,.3l-1.9,5.6c-.1.3-.4.5-.8.5h-6.5l-7.9,1.5-2.6,1.6v4.3c0,.3-.2.6-.5.7l-3.3,1.5-2,2.3,1.9,7.9c0,.3,0,.6-.4.8l-3.9,2.3c0,0-.1,0-.2.1l-7.3,1.9-5.8,3.1c-.2,0-.3,0-.4,0Z"/>
          <polygon class="cls-1" points="253.8 367.5 254.4 359.4 254.1 351.2 254.1 351.2 254.3 349.6 256 344.2 261.3 335.6 262.6 332.2 263.7 326.6 264.4 324.7 265.4 323.3 265.4 323.3 267.5 321.2 268.3 320.1 275.9 320.8 281.8 317.7 289.2 315.7 293.1 313.4 291.1 305.2 293.5 302.4 297 300.9 297 296.2 300.1 294.2 308.2 292.7 314.9 292.7 316.8 287.1 325.4 290.6 342 304.1 347.2 322.3 348.2 323.5 337.4 367.8 328.6 392.5 317.5 405.7 278.3 413.7 276.9 414 279 407.7 279 406.5 278.4 405.2 275.4 400.7 270.9 393.8 266.4 386.8 261.9 379.9 257.4 372.9 253.8 367.5"/>
          <path class="cls-1" d="M254.7,367.3l24.5,37.5s0,0,0,0l.6,1.2c0,0,0,.2,0,.3v1.3c0,0,0,.2,0,.2l-1.7,5,38.9-8,10.8-12.9,8.8-24.5,10.6-43.9-.7-.9c0,0-.1-.2-.1-.3l-5.1-18-16.3-13.3-7.7-3.2-1.6,4.8c-.1.3-.4.5-.8.5h-6.5l-7.9,1.5-2.6,1.6v4.3c0,.3-.2.6-.5.7l-3.3,1.5-2,2.3,1.9,7.9c0,.3,0,.6-.4.8l-3.9,2.3c0,0-.1,0-.2,0l-7.3,1.9-5.8,3.1c-.1,0-.3.1-.5.1l-7.2-.7-.5.7s0,0,0,.1l-2.1,2.1-.9,1.3-.6,1.7-1.2,5.5s0,0,0,.1l-1.2,3.4s0,.1,0,.1l-5.3,8.5-1.7,5.2-.2,1.5.4,8.1h0c0,0-.6,8-.6,8ZM276.9,414.7c-.2,0-.5,0-.6-.3-.2-.2-.3-.5-.2-.7l2-6.1v-1s-.5-1-.5-1l-24.6-37.7c0-.1-.1-.3-.1-.5l.6-8.1-.4-8.1h0c0-.1.2-1.8.2-1.8,0,0,0,0,0-.1l1.7-5.4c0,0,0-.1,0-.2l5.3-8.5,1.2-3.3,1.2-5.5s0,0,0,0l.6-1.9c0,0,0-.1.1-.2l1-1.5s0-.1.1-.1l2-2,.7-1c.2-.2.5-.4.8-.3l7.4.7,5.6-3c0,0,.1,0,.2,0l7.3-1.9,3.3-2-1.8-7.7c0-.2,0-.5.2-.6l2.3-2.7c0,0,.2-.2.3-.2l3-1.4v-4.2c0-.2.1-.5.4-.6l3.1-2c0,0,.2-.1.3-.1l8.2-1.6c0,0,.1,0,.2,0h6l1.7-5.1c0-.2.2-.4.5-.5s.5,0,.7,0l8.7,3.5c0,0,.1,0,.2.1l16.6,13.5c.1.1.2.2.2.4l5.1,18,.9,1.1c.1.2.2.4.1.6l-10.7,44.3s0,0,0,0l-8.9,24.7c0,0,0,.2-.1.2l-11.1,13.2c-.1.1-.3.2-.5.3l-39.2,8-1.4.2s-.1,0-.1,0Z"/>
          <path class="cls-1" d="M302.5,648.8h0l.2.8h0c0,0,.5.7.5.7l.7.5.8.3-1.8,1-1,.3h-.9c0,.1-2.5,0-2.5,0l-.8-.3-.5-1.2,1.5-.8,2.1-.7,1.5-.7ZM290.2,652.5l-.2-.5h0c0,0,.3-.5.3-.5l.6-.3.8-.2,1.1.6h.4c0,.1-.8.6-.8.6h-1.7s-.5.3-.5.3h0ZM75,572l-.4-.9,6.2-2,9.6-3.1,9.6-3.1,9.6-3.1,9.6-3.1,9.6-3.1,9.6-3.1,9.6-3.1,9.6-3.1,9.6-3.1,9.6-3.1,9.6-3.1,9.6-3.1,9.6-3.1,9.6-3.1,9.6-3.1,9.6-3.1,8.4-2.7,1.8-5.3.4-1.1,1-3,1.6-4.7,2.1-6.2,2.5-7.3,2.8-8.1,3-8.7,3-9,2.3-6.9.7,1,68.1,104.6,48.5,12-13.3,1.9-6.9,1.8-9.4,3.6-3.6,2.4-2.4,1.1-1.3.9-.5,1.2-.5.6-6,5.5-1,2-.2,2.6.4,1.8v.6s-.1.7-.1.7l-.8,1-.3.9-.5,1.1v.6c-.1,0-.1,2.2-.1,2.2l-.5,2.3-2.9,6.2.8,1.1v1.1c-.1,0-.9,1-.9,1l-1.1.8-2.4,1-1.2.7-1.7,2.8-.4.3-.8.2-.4.2-2.6,2.7v.4c-.1,0,0,1.2,0,1.2h-.6c0,.1-8.7-.9-8.7-.9l-1.1.2-1.7.7-1.2.2-4.8-.4-1.1.2-3.6,1.3-2,.5-14.3.6-5.6,1.3h-1.2c0,.1-.5.2-.5.2l-.3.2-.2.3-.4.2h-1s0,0,0,0l-1.8.5-.5.2-.8.9-.8,2.1-.5.9-.8.9-.2.4-.9,2.2-.2.4-.8.8-5.2,4-1.6,2.6-.4,1.1v1.3c-.1,0,0,1.4,0,1.4l.6.7,1.9,1,1.1,1.1.4,1.1v2.5s-.4,1-.4,1l-2.3,2.8v.5c-.1,0-.2.7-.2.7v.7c0,0,.4.3.4.3l.5.2v.4s-.2.7-.2.7l-.3.3-1.5.7-.5.3-.3.5-.2.5-.2.9-.5.8.2.3-.5.6-1.7.5-.9.4-.3.5-.3.7-.5.7-.7.3-2.3,2.4-2.5,1.7h-.3l-.6-.8-.6.3-.7.8-.6.4h-.9c0,.1-.8.4-.8.4l-.8.2-.8-.2-.9.8-1,.3-2.3.3-1.9.7h-.9l-.6-.7-.6.3h-1c0-.1-.6,0-.6,0l-1.9-1.1-.4.4-.4-1-.2-.9-.6-.7-2.3-.4-1.6-.5h-.7c0-.1-.6,0-.6,0l-1.1.2h-.7c0,0-2-.3-2-.3h-.7l-.6.2-1.2.5h-.3c0,0-2.6-.6-2.6-.6h-1.4c0,0-1.1.7-1.1.7l-.5-.3h-.5c0-.1-10.4,1-10.4,1h-4.4l-1,.2-2.5,1.2-.6.4-.2.5v.4s.1.4.1.4v.4c0,0-.1.5-.1.5l-.8.7-.2.3-.6.6-1.4.3h-2.6c0,.1-3.3.8-3.3.8h-1.1c0,0-1,.4-1,.4l-1.1.6-1.2.4-1-.3-1,.6-1.4,1.1-1.2,1.2-.5,1-.5.6-1.1.6-2,.8-1.8.4-8.9.2-4.7.6-9.1,2.7-4.8,2.3-3.5-7.2-3.5-7.3-3.5-7.3-3.5-7.3-2.2-4.5-.6-.7-1-.3h-2.1c0-.1-.8-.6-.8-.6h0s.3,0,.3,0h0s-1.8-3.9-1.8-3.9l-2.4-5.2-2.4-5.2-2.4-5.2-2.4-5.2-2.4-5.2-2.4-5.2-2.4-5.2-2.4-5.2-2.4-5.2-2.4-5.2-2.4-5.2-2.4-5.2-2.4-5.2-2.4-5.2-2.4-5.2-2.4-5.2-1.7-3.5Z"/>
          <path class="cls-1" d="M290.1,653.2c-.1,0-.2,0-.3,0-.2,0-.4-.2-.5-.5l-.2-.6c0,0,0-.2,0-.3,0-.2,0-.3.1-.4l.3-.4c0-.1.2-.2.3-.3l.6-.3s0,0,.1,0l.8-.2c.2,0,.5,0,.6,0l1,.6h.4c.3.2.5.5.6.8,0,.3-.1.6-.4.7l-.8.5c-.1,0-.3.1-.4.1h-1.5s-.3.2-.3.2c-.1,0-.3,0-.4,0ZM298.7,651.6h2.2c0,0,.7,0,.7,0l.8-.3.4-.2-.3-.2c0,0-.1-.1-.2-.2l-.5-.7c0,0,0-.1-.1-.2l-.5.2s0,0,0,0l-2,.6-.8.5v.2c.1,0,.4.1.4.1ZM301,653.2h-2.5c0-.1-.2-.1-.3-.2l-.8-.3c-.2,0-.4-.2-.5-.4l-.5-1.2c-.1-.3,0-.7.3-.9l1.5-.8s.1,0,.2,0l2.1-.7,1.4-.6c.3-.1.6,0,.8,0,.2.1.3.3.4.5v.6c.1,0,.5.4.5.4l.5.3.7.2c.3,0,.5.3.5.6,0,.3-.1.6-.4.7l-1.8,1s-.1,0-.1,0l-.9.3s-.1,0-.2,0h-.9c0,.2,0,.2-.1.2ZM117.4,662.6h1.7c0,0,.2.1.2.1l1,.3c.2,0,.3.1.4.3l.6.7s0,0,0,.1l15.8,32.8,4-1.9s0,0,.1,0l9.1-2.7s0,0,.1,0l4.7-.6s0,0,.1,0l8.8-.2,1.7-.4,1.9-.8.9-.5.3-.4.5-.9c0,0,0-.1.1-.2l1.2-1.2s0,0,0,0l1.4-1.1s0,0,0,0l1-.6c.2-.1.4-.2.7,0l.7.2.8-.3,1.1-.6c0,0,.1,0,.1,0l1-.3c0,0,.1,0,.2,0h1c0,0,3.3-.7,3.3-.7,0,0,0,0,.1,0h2.5c0-.1,1.1-.4,1.1-.4l.3-.3v-.2c.2,0,.2-.2.3-.2l.6-.5h0c0,0,0-.3,0-.3v-.3c-.1,0-.1-.1-.1-.2v-.4c0-.1,0-.2,0-.3l.2-.5c0-.1.1-.2.3-.3l.6-.4s0,0,.1,0l2.5-1.2c0,0,.1,0,.2,0l1-.2c0,0,.1,0,.2,0h4.4l10.4-1.1c0,0,.2,0,.3,0h.6c0,.1.1.1.2.2h0s.7-.5.7-.5c.2-.1.4-.2.6-.2h1.4c0,0,.1.1.2.1l2.4.6h0s1.1-.5,1.1-.5c0,0,0,0,.1,0l.6-.2c0,0,.1,0,.2,0h.7c0,0,.1,0,.2,0l1.9.3h.5s1.1-.3,1.1-.3c0,0,0,0,.1,0h.6c0,0,.2,0,.2,0h.7c0,.1,0,.1.1.2l1.6.5,2.2.4c.2,0,.4.1.5.3l.6.7c0,0,.1.2.2.3l.3,1c.2,0,.3,0,.5.1l1.6.9h.2c.1-.1.3-.1.4-.1h.8c0,0,.4-.1.4-.1.3-.2.8,0,1,.2l.4.4h.4l1.7-.6c0,0,.1,0,.2,0l2.2-.3.8-.2.7-.7c.2-.2.5-.3.8-.2h.6c0,.1.5,0,.5,0l.8-.2s0,0,.1,0h.7c0-.1.4-.4.4-.4l.6-.7c0,0,.1-.1.2-.2l.6-.3c.4-.2.9,0,1.1.3l.2.3,1.9-1.3,2.2-2.3c0,0,.2-.1.3-.2l.5-.2.3-.4.3-.7s0,0,0,0l.3-.5c0-.1.2-.2.3-.3l.9-.4c0,0,.1,0,.1,0l1.5-.4c0-.2,0-.4.1-.6l.5-.7.2-.8s0,0,0-.1l.2-.5s0,0,0-.1l.3-.4c0,0,.1-.2.2-.2l.5-.3s0,0,0,0l1.3-.6h0c0,0,0-.3,0-.3,0,0,0,0-.1,0l-.3-.3c-.1-.1-.2-.3-.3-.5v-.7c0,0,0-.1,0-.2v-.8c.1,0,.1,0,.1,0v-.5c.1,0,.2-.2.3-.3l2.2-2.8.3-.8v-2.2s-.3-.8-.3-.8l-.9-.8-1.8-.9c-.1,0-.2-.1-.3-.2l-.6-.7c0,0-.1-.2-.2-.3l-.2-1.5c0,0,0-.1,0-.2v-1.2c.2,0,.2,0,.2-.2l.4-1.1s0,0,0-.1l1.6-2.6c0,0,.1-.2.2-.2l5.1-3.9.7-.7v-.2c.1,0,1-2.2,1-2.2,0,0,0,0,0,0l.2-.4s0,0,.1-.1l.8-.8.5-.8.8-2.1c0,0,0-.2.1-.2l.8-.9c0,0,.2-.2.3-.2l.5-.2s.1,0,.2,0l1.8-.5c.1,0,.3,0,.4,0h.7s.2-.2.2-.2c0,0,0,0,0,0l.3-.2c.1,0,.2-.1.3-.2h.5c0-.1,0-.1.1-.1h1.2c0,0,5.5-1.4,5.5-1.4,0,0,.1,0,.2,0l14.2-.6,1.9-.4,3.6-1.3c0,0,.1,0,.2,0l1.1-.2c0,0,.1,0,.2,0l4.6.4,1-.2,1.6-.7c0,0,.1,0,.2,0l1.1-.2c0,0,.2,0,.2,0l8.4,1v-.5c0,0,0-.2,0-.3v-.4c.2,0,.2-.2.3-.3l2.6-2.7c0,0,.1-.1.2-.2l.4-.2c0,0,.1,0,.2,0l.6-.2h.1c0,0,1.6-2.8,1.6-2.8,0-.1.2-.2.3-.3l1.2-.7s0,0,0,0l2.3-.9.9-.7.6-.8v-.7c0,0-.6-.8-.6-.8-.2-.2-.2-.5,0-.8l2.9-6.2.5-2.1v-2.2c0,0,0-.1,0-.2v-.6c.2,0,.2,0,.2-.1l.5-1.1.3-.8c0,0,0-.2.1-.2l.7-.9v-.4c.1,0,0-.5,0-.5l-.4-1.7c0,0,0-.1,0-.2l.2-2.6c0,0,0-.2,0-.3l1-2c0,0,.1-.2.2-.2l5.9-5.5.4-.5.5-1.1c0-.1.1-.2.2-.3l1.3-.9s0,0,.1,0l2.3-1.1,3.6-2.4s.1,0,.2,0l9.4-3.6h0s6.9-1.9,6.9-1.9c0,0,0,0,.1,0l9.4-1.4-44.7-11c-.2,0-.4-.2-.5-.3l-67.8-104.2-19.9,58.8c0,.2-.3.4-.5.5l-166.8,54.2,41.6,90.8s0,0,0,.1ZM136.7,698.8c0,0-.2,0-.3,0-.2,0-.4-.2-.5-.4l-16.1-33.5-.4-.5-.6-.2h-2c-.1-.1-.3-.2-.4-.2l-.8-.5c-.3-.2-.4-.4-.4-.7,0-.2,0-.3.2-.4l-41.7-90.9c0-.2,0-.4,0-.6,0-.2.3-.3.5-.4l167.2-54.3,20.3-60c.1-.3.4-.5.7-.5.3,0,.6,0,.8.3l.7,1,68,104.3,48.2,11.9c.4,0,.6.4.6.8,0,.4-.3.7-.7.7l-13.2,1.9-6.8,1.8-9.3,3.5-3.5,2.4s0,0-.1,0l-2.3,1.1-1.1.8-.5,1c0,0,0,.1-.1.2l-.5.6s0,0,0,0l-5.9,5.4-.9,1.7-.2,2.3.3,1.7s0,0,0,0v.6c0,0,0,.2,0,.2l-.2.7c0,0,0,.2-.1.3l-.7.9-.3.8-.5,1.1v.4c-.1,0-.1,2.2-.1,2.2,0,0,0,0,0,.2l-.5,2.3s0,0,0,.2l-2.7,5.8.5.7c.1.2.2.3.1.5v1.1c-.2.1-.2.2-.3.3l-.8,1c0,0-.1.1-.2.2l-1.1.8c0,0-.1,0-.2,0l-2.4,1-1,.5-1.6,2.6c0,0-.1.2-.2.2l-.4.3c0,0-.2,0-.3.1l-.7.2h-.2c0,.1-2.4,2.6-2.4,2.6h0c0,.1,0,1.2,0,1.2,0,.4-.3.7-.7.8h-.6c0,.1-.2.1-.3.1l-8.6-1h-.9c0,.1-1.6.8-1.6.8,0,0-.1,0-.2,0l-1.2.2c0,0-.1,0-.2,0l-4.7-.4h-.9c0,.1-3.5,1.5-3.5,1.5,0,0,0,0-.1,0l-2,.5s-.1,0-.2,0l-14.2.6-5.5,1.3s0,0-.1,0h-1.4c0,.1,0,.2,0,.2l-.2.2c0,0-.1.1-.2.2l-.4.2c-.1,0-.3,0-.4,0h-1s0,0-.1,0l-1.5.4h-.3c0,.1-.6.8-.6.8l-.8,2s0,0,0,.1l-.5.9s0,0-.1.1l-.8.8-.2.3-.8,2.2s0,0,0,0l-.2.4s0,0-.1.2l-.8.8s0,0,0,0l-5,3.9-1.5,2.4-.3.9v1.1c-.1,0,0,1.2,0,1.2l.4.4,1.7.9c0,0,.1,0,.2.2l1.1,1.1c0,0,.1.2.2.3l.4,1.1c0,0,0,.2,0,.2v2.5c0,0,0,.2,0,.3l-.4,1c0,0,0,.1-.1.2l-2.2,2.7v.3c0,0-.1.6-.1.6v.3s.4.1.4.1c.3.1.5.4.5.7v.4c0,0,0,.2,0,.3l-.3.7c0,0-.1.2-.2.3l-.3.3c0,0-.1.1-.2.2l-1.4.7-.3.2-.2.3v.3c-.1,0-.4.9-.4.9,0,0,0,.2-.1.2l-.3.4c.1.2,0,.5-.1.8l-.5.6c-.1.1-.2.2-.4.2l-1.6.5-.6.3v.2c-.1,0-.4.7-.4.7,0,0,0,0,0,.1l-.5.7c0,.1-.2.2-.3.3l-.5.2-2.2,2.3s0,0-.1.1l-2.5,1.7c-.1,0-.3.1-.5.1h-.3c-.3,0-.6-.1-.7-.4h0c0-.1-.4.4-.4.4,0,0-.1,0-.2.1l-.6.4c-.1,0-.2.1-.3.1h-.8c0,.1-.8.4-.8.4,0,0,0,0-.1,0l-.8.2c-.1,0-.2,0-.4,0h-.3c0,0-.5.4-.5.4-.1,0-.2.2-.3.2l-1,.3c0,0-.1,0-.1,0l-2.2.3-1.8.6c0,0-.2,0-.3,0h-.9c-.2,0-.5,0-.6-.3l-.2-.2h0c-.2.1-.3.1-.5.1h-.8c0-.1-.4,0-.4,0-.2,0-.5,0-.7,0l-1.3-.8c-.2.2-.4.2-.7.2-.3,0-.5-.2-.6-.5l-.4-1s0,0,0-.1l-.2-.8-.3-.3-2-.3s0,0-.1,0l-1.6-.5h-.5c0,0-.5,0-.5,0l-1.1.2s0,0-.1,0h-.7c0,0-.2,0-.2,0l-1.9-.3h-1c0,.1-1.1.6-1.1.6,0,0,0,0,0,0h-.3c-.2.1-.3.1-.5.1l-2.6-.7h-1c0,0-.9.6-.9.6-.3.2-.6.2-.9,0l-.4-.2h-.3c0,0-10.3,1-10.3,1h-4.4l-.8.2-2.3,1.1-.4.2h0c0,.1,0,.3,0,.3v.3c0,0,.1,0,.1,0v.4c0,.1,0,.3,0,.4l-.2.5c0,.1-.1.2-.2.3l-.7.5v.2c-.1,0-.2.1-.3.2l-.6.6c-.1,0-.3.2-.4.2l-1.4.3s0,0-.1,0h-2.5c0,.1-3.3.8-3.3.8,0,0,0,0-.1,0h-1c0,0-.8.3-.8.3l-1.1.6s0,0-.1,0l-1.1.4c-.2,0-.4,0-.5,0l-.6-.2-.7.4-1.3,1-1.1,1.1-.5.9s0,0,0,.1l-.5.6c0,0-.1.2-.2.2l-1.1.6s0,0,0,0l-2,.8s0,0-.1,0l-1.8.4c0,0-.1,0-.2,0l-8.9.2-4.6.6-9,2.7-4.7,2.2c0,0-.2.1-.3.1Z"/>
          <polygon class="cls-1" points="262.6 456.3 263.4 454.2 266.3 445.5 269.1 437.3 271.5 429.9 273.6 423.7 275.2 418.9 276.3 415.8 276.6 414.7 276.9 413.9 278.3 413.7 317.5 405.6 409.5 448 427.2 456.4 433.2 459.2 425.3 483.1 424.1 482.8 422.5 482.9 420.9 483.4 419.1 484.5 416.8 485 416.1 485.5 415.7 485.9 414.8 488.5 414.7 489.1 415.1 489.7 415.3 490.2 414.8 490.6 414.1 490.9 412.7 491.2 411.7 491.7 410.7 492.3 409.4 493.4 408.9 494 408.6 494.6 408.4 495.4 408.6 495.9 409.4 496.7 409.6 497.2 409.2 498.4 408.2 499.1 405.7 500 404.8 500.6 403.8 501.3 403 502.2 402.7 503.2 402.4 503.9 401.7 504.6 401.2 505.5 401.1 506.8 402.2 509.1 402.5 510.4 401.6 512.4 400.8 515.4 400.7 516.1 400.6 517.7 399.3 520.6 398.4 523.7 397.7 525.1 394.2 529.9 393.7 531.3 393.9 533 394.3 533.6 394.8 534.1 395.2 534.7 395.4 535.4 395.4 537.1 395.3 537.9 395 538.6 394.6 540 394.5 541.1 394.9 542.2 397.6 546.3 398 547.2 398.4 548.7 398.4 550.1 398.1 551.5 397.2 554 397 555.1 397.1 556.4 398.2 559.2 398.8 560 400.2 561.6 400.5 562.4 400 564.7 400 565.8 402.1 569.3 402.1 570.1 400.7 571.4 399.9 572 399.7 572.1 397.2 572.4 396.9 572.7 396.7 573 396 573.5 395.3 573.8 394.8 574 383.2 573.5 380 573.9 331.5 562 263.4 457.4 262.6 456.3"/>
          <path class="cls-1" d="M383.2,572.7h0l11.5.5h.3c0,0,.6-.4.6-.4l.5-.3.2-.2s0,0,0,0l.3-.3c.1-.1.3-.2.5-.2l2.4-.3.7-.5,1.1-1v-.3l-2-3.3c0-.1-.1-.3-.1-.4v-1.1c0,0,0,0,0-.1l.5-2.1-.2-.5-1.3-1.4s0,0,0-.1l-.5-.9h0c0-.1-1.1-2.9-1.1-2.9,0,0,0-.1,0-.2v-1.2c-.1,0-.1-.1-.1-.2l.2-1.1s0,0,0-.1l.9-2.5.2-1.2v-1.3s-.3-1.4-.3-1.4l-.4-.8-2.7-4.1s0,0,0-.1l-.4-1c0-.1,0-.2,0-.3v-1.1c.1,0,.1,0,.1-.1l.4-1.4.3-.7v-.7c0,0,0-1.5,0-1.5v-.5c-.1,0-.4-.4-.4-.4l-.5-.5s0,0-.1-.1l-.4-.6c0,0,0-.2-.1-.3l-.2-1.7c0-.1,0-.2,0-.3l.5-1.4c0,0,0-.1.1-.2l3.5-4.8.6-1.2.9-3s0,0,0,0l1.2-2.8v-2.2c.1,0,.1-.1.2-.2l.9-3s0,0,0-.1l.8-1.8-.3-1-1-2.1c0-.1,0-.2,0-.3v-1.3c0-.1,0-.2.1-.3l.5-.9s0,0,.1-.1l.6-.6.2-.5.3-1c0-.1,0-.2.2-.3l.8-.9s0,0,.1-.1l1-.8s0,0,0,0l.9-.5s0,0,.1,0l2.3-.9.7-.5.2-.7h0c0-.1-.7-.8-.7-.8,0,0-.1-.2-.2-.3l-.2-.5c0-.1,0-.2,0-.4v-.7c.2,0,.2-.1.2-.2l.4-.6s0,0,0-.1l.5-.6s0,0,0,0l1.3-1.1s0,0,.1,0l1-.6s0,0,0,0l1-.5c0,0,.1,0,.2,0l1.3-.3.5-.2-.3-.5c0-.1-.1-.3-.1-.4v-.6c0,0,0-.1,0-.2l1-2.6c0,0,0-.1.1-.2l.4-.5c0,0,.1-.1.2-.2l.7-.5c0,0,.2,0,.3-.1l2.1-.5,1.7-1c0,0,.1,0,.2,0l1.6-.5c0,0,.1,0,.2,0h1.6c.1-.1.2-.1.3,0h.3c0,.1,7.5-22.4,7.5-22.4l-23.1-10.9-91.7-42.2-38.9,8h-.9c0,.1-14,41.8-14,41.8l.5.7,68,104.4,48,11.8,3-.4s0,0,0,0ZM394.8,574.8h0l-11.5-.5-3.1.4c-.1,0-.2,0-.3,0l-48.5-12c-.2,0-.4-.2-.5-.3l-68.1-104.6-.7-1c-.1-.2-.2-.4-.1-.7l14.3-42.4c0-.3.3-.5.6-.5l1.3-.2,39.2-8c.2,0,.4,0,.5,0l92,42.4,23.7,11.2c.4.2.5.5.4.9l-7.9,23.9c0,.2-.2.4-.4.5-.2,0-.4.1-.6,0l-1-.3h-1.4c0,.1-1.5.5-1.5.5l-1.7,1c0,0-.2,0-.2.1l-2.1.5-.5.3-.2.3-.9,2.4v.3s.2.4.2.4c0,0,0,.1,0,.2v.5c.2.3.1.6,0,.8l-.5.4c0,0-.1.1-.2.1l-.7.3s-.1,0-.2,0l-1.3.3-.9.4-.9.5-1.2,1.1-.4.5-.3.5v.4c0,0,0,.2,0,.2l.7.7c0,0,.1.2.2.3l.2.5c0,.1,0,.3,0,.5l-.4,1.2c0,.1-.1.3-.3.4l-1,.7c0,0-.1,0-.2.1l-2.4.9-.8.5-.9.7-.6.7-.3.9s0,0,0,.1l-.3.6c0,0,0,.1-.1.2l-.6.6-.4.7v1s1,2.1,1,2.1c0,0,0,0,0,.1l.3,1.3c0,.2,0,.3,0,.5l-.9,1.9-.8,2.8v.7s-.1,1.6-.1,1.6c0,0,0,.2,0,.2l-1.3,2.8-.9,3s0,0,0,0l-.6,1.4s0,0,0,.1l-3.5,4.8-.4,1.2.2,1.3.3.4.4.5s0,0,0,0l.4.5c0,0,.1.2.1.3l.2.8s0,0,0,.2v1.7s0,0,0,0v.8c-.1,0-.1.1-.1.2l-.3.7-.4,1.3v.9c0,0,.2.8.2.8l2.7,4s0,0,0,0l.4.9s0,0,0,.2l.3,1.5s0,.1,0,.2v1.5s0,0,0,.1l-.3,1.4s0,0,0,.1l-.9,2.5-.2,1v1c.1,0,1.2,2.6,1.2,2.6l.5.7,1.4,1.5c0,0,.1.2.1.2l.3.9c0,.1,0,.3,0,.4l-.5,2.2v.8s2,3.3,2,3.3c0,.1.1.2.1.4v.8c0,.2,0,.4-.2.5l-1.4,1.3s0,0,0,0l-.8.6c0,0-.1,0-.2.1h-.2c0,.1-.1.1-.2.1l-2.2.3h0s-.2.3-.2.3c0,0-.1.1-.2.2l-.6.4s0,0-.1,0l-.7.4s-.1,0-.2,0l-.5.2c0,0-.2,0-.3,0Z"/>
          <path class="cls-1" d="M461.6,482.2v1.2c.1,0,.4.9.4.9l1.7,2.9.5.8-.2.6-.5.4-2.1,1.5-2.3,1.2-1,.9-1.3,1.9-.7,1.3-.6,2.6-.5.9h0v.6h0s0,.5,0,.5v.4l-.2.4-1.9,1.7-1,1.3-.5.5-.5.2h-.7c0,0-.6.2-.6.2l-.3.3-.2.6-.5.6-.6.4h-.6s0,0,0,0l-.3-.5-.2-.4-.3-1.7v-1.7s0-.9,0-.9h0c0,0-.1-.6-.1-.6l.4-4.3.3-.7.6-.8.3-.3,1-.7h.4c0-.1.1-.2.1-.2h.1c0-.1.2-1.1.2-1.1v-.3c.1,0,1.1-.3,1.1-.3h.9s1-.2,1-.2l1-.6.5-.6.2-.3.2-.7h0c0-.1.2-2.2.2-2.2l.3-1,.5-.8,2.7-3.3,1-2,.6-1.8.5-.6.8-.2.7.9h0s0,1,0,1l-.4,1-.2,1.1ZM493.9,372.2l1.3,1,1.3.7.3.3v.6s-.3.1-.3.1h-.5c0-.1-.4-.3-.4-.3v.8s.4.4.4.4h.7c0,0,.8,0,.8,0l4.3-1.4,1.5.6,2.3,1.6h.3s.9,0,.9,0h.3c0,0,.1.3.1.3v.6c.1,0,.2.3.2.3v.2s0,.2,0,.2v.3s.4.4.4.4h.3c0,.1.4.3.4.3h.4c0,0,.4.1.4.1l.2-.3-.4-.6-.8-.9.2-.8h.6s1.1-.2,1.1-.2l1.5.4,1.2,1.4.8,1.9.3,1.7-1.1,9.1-.7,2.4-1.1,2.2-3.2,4.2-1.7,1.3-.9.9-.4,1v1.3c-.1,0-1.2,2.6-1.2,2.6l-.3,2.7-.5,1.1-2.2.9-.7,1-.9,2-4.4,5.5-1.7,5-1.1,2.3-5.2,7.7-.4,1.8-.2.5-.5.4-7.9,3.2-1.6.9-6.2,4.7-7.5,7.4-2.3,3.3-.6.5-.8.5-.9,1.2-1.7,3-.2.5v1.9c-.1,0-.3.6-.3.6l-.3.5-3.2,2.4.2,1.1-.9.8-2.3,1.1h0c0,.1-.4,1.1-.4,1.1h0s-.4.4-.4.4l-.2.3v.3c-.1,0,0,.5,0,.5l.4.5.5.4.6.3.8-.4.9-.8.6-.3v1.1c0,0-.6.7-.6.7l-1,.7-1,.3-.5-.6h-.3l-.3.8-.4,1.5-.4.8-.4.4-1.2.7-.6.5-.7,1.1-.6,1.4-.4,1.5v1.5c-.1,0-1.6,2.6-1.6,2.6l-.8,1.9v.9c0,0-.2.4-.2.4l-.3,1.8-.2.4h-.5c0,0-.8.3-.8.3l-.8.4-.5.4-.4,1.5-1.2.6h-1.6s-1.5-.5-1.5-.5l-1.1-.5-.8-.2h-1.8c0,0-.7,0-.7,0l-1.3.5-.8.2.2-.5.3-.2-.3-.2-2-.5h-1.1c0-.1-1.2-.6-1.2-.6v-1.1c-.1,0,.6-2.2.6-2.2v.7s.2.6.2.6l.4.5.5.5.2-1.1-.6-2.5.5-1.1.7-1.1.6-1.6v-1.6c.1,0-.4-1.2-.4-1.2l7.9-23.9-6-2.8-6.3-16.6-5.4-17.3,14.4-4.8,14.2-4.7,13.1-4.4,12.5-4.2,12.1-6.1,6.9-3.4,2.7-6.7.5-7.4-1.1-2.9v-2.7c0,0,2.9-3,2.9-3Z"/>
          <path class="cls-1" d="M434.5,496.1h1.2s.7-.3.7-.3l.3-1.1c0-.2.1-.3.3-.4l.5-.4s.1,0,.2-.1l.8-.4s0,0,.1,0l.8-.2s0,0,.1,0l.3-1.7c0-.1,0-.2.1-.3v-.2c.1,0,.1-.6.1-.6,0-.1,0-.2,0-.3l.8-1.9s0,0,0,0l1.4-2.5v-1.3c.1,0,.2,0,.2-.1l.4-1.5s0,0,0-.1l.6-1.4s0,0,0-.1l.7-1.1c0,0,0-.1.1-.2l.6-.5s0,0,.1,0l1.1-.6.3-.2.3-.6.4-1.4s0,0,0,0l.3-.8c0-.2.2-.4.5-.4l-.2-.2s0-.1-.1-.1l-.4-.5c0,0,0-.1-.1-.2v-.5c-.2-.1-.2-.3-.1-.5v-.3c.2,0,.2-.1.2-.2l.2-.3s0,0,0,0l.4-.3.2-.5c0-.1,0-.2,0-.3,0-.2.2-.4.4-.5l2.2-1,.5-.4v-.7c-.2-.3,0-.6.1-.7l3.1-2.4.2-.3v-.4c.1,0,.2-1.9.2-1.9,0,0,0-.1,0-.2l.2-.5s0,0,0-.1l1.7-3s0,0,0,0l.9-1.2c0,0,.1-.1.2-.2l.7-.5.5-.4,2.2-3.2s0,0,.1-.1l7.6-7.4s0,0,0,0l6.2-4.7s0,0,.1,0l1.6-.9s0,0,0,0l7.8-3.2.2-.2v-.3c.1,0,.5-1.7.5-1.7,0,0,0-.2.1-.2l5.2-7.6,1-2.2,1.7-4.9c0,0,0-.2.1-.2l4.4-5.5.9-1.9s0,0,0-.1l.7-1c0-.1.2-.2.4-.3l1.9-.8.4-.7.2-2.5c0,0,0-.1,0-.2l1-2.6v-1.2c.2,0,.2-.1.2-.2l.4-1c0,0,0-.2.2-.2l.9-.9s0,0,0,0l1.6-1.2,3.1-4,1.1-2.1.7-2.3,1.1-8.9-.3-1.5-.7-1.7-1-1.1-1.1-.3h-.8c0,.1.4.5.4.5,0,0,0,0,.1.1l.4.6c.1.2.1.6,0,.8l-.2.3c-.2.2-.5.4-.8.3h-.4s0,0-.1,0h-.4c0,0,0,0-.1-.1h-.4c0-.1,0-.1-.1-.2h-.3c0-.2-.1-.2-.2-.3l-.4-.4c-.1-.1-.2-.3-.2-.4v-.3c0,0,0-.2,0-.3h0c0-.1,0-.2,0-.2,0,0,0-.1,0-.2v-.2s-.5,0-.5,0c0,0-.1,0-.2,0h-.3c-.1,0-.3-.1-.4-.2l-2.2-1.5-1.1-.4-4,1.3c0,0-.1,0-.2,0h-.8c0,0-.1,0-.2,0h-.7c-.2,0-.3-.2-.5-.3l-.4-.4c-.2-.1-.3-.3-.3-.5v-.8c0-.2,0-.4.2-.5l-.3-.2s0,0-.1,0l-.7-.5-2.3,2.2v2.3c0,0,1.1,2.8,1.1,2.8,0,.1,0,.2,0,.3l-.5,7.4c0,0,0,.1,0,.2l-2.7,6.7c0,.2-.2.3-.4.4l-6.9,3.4-12.1,6.1s0,0-.1,0l-53.4,17.9,5.1,16.6,6.1,16.3,5.7,2.7c.4.2.5.5.4.9l-7.8,23.6.4.9c0,.1,0,.2,0,.3v1.6c-.2,0-.2.1-.2.2l-.6,1.6c0,0,0,.1,0,.2l-.7,1-.4.9.5,2.2c0,.1,0,.2,0,.3l-.2,1.1c0,.3-.3.5-.5.6s-.6,0-.8-.1l-.5-.4v.3s.7.2.7.2h1c0,.1,0,.1.1.1l2,.5c0,0,.1,0,.2,0l.3.2c.1,0,.2.1.3.2l.6-.2c0,0,.1,0,.2,0h.7c0-.1.1-.1.2-.1h1.8c0,0,.2,0,.2.1l.8.2s0,0,.1,0l1,.5,1.3.4ZM435.9,497.7h-1.6c0,0-.2,0-.2,0l-1.5-.5s0,0,0,0l-1-.5-.6-.2h-1.6c0,0-.5,0-.5,0l-1.2.5s-.1,0-.1,0l-.8.2c-.3,0-.6,0-.8-.2-.2-.2-.3-.5-.2-.8h0c0-.1-1.2-.4-1.2-.4h-1c0-.1-.1-.1-.2-.2l-1.2-.5c-.3-.1-.5-.3-.5-.6v-1.1c-.1-.1-.1-.2-.1-.3l.7-2.2c.1-.4.5-.6.9-.5v-.4c-.1-.2-.1-.3,0-.5l.5-1.1s0,0,0-.1l.7-1,.5-1.4v-1.4c.1,0-.3-1-.3-1,0-.2,0-.3,0-.5l7.7-23.3-5.4-2.5c-.2,0-.3-.2-.4-.4l-6.3-16.6-5.4-17.3c-.1-.4.1-.8.5-.9l54.1-18.1,18.7-9.3,2.6-6.3.5-7.2-1-2.8c0,0,0-.1,0-.2v-2.7c0-.2,0-.4.2-.5l3-3c.3-.3.8-.3,1.1,0l1.2,1,1.2.6s.1,0,.1.1l.3.3c.2.1.2.3.3.5v.6c0,0,0,.1,0,.2l4-1.3c.2,0,.4,0,.6,0l1.5.6c0,0,.1,0,.2.1l2.1,1.4h.8c.1-.1.2-.1.3,0h.3c.2.1.4.3.5.4h0c.1-.1.4-.2.6-.2h.5s1.1-.2,1.1-.2c.1,0,.2,0,.4,0l1.5.4c.2,0,.3.1.4.3l1.2,1.4c0,0,0,.1.1.2l.8,1.9s0,.1,0,.2l.3,1.7c0,0,0,.1,0,.2l-1.1,9.1s0,0,0,.1l-.7,2.4s0,0,0,.1l-1.1,2.2s0,0,0,.1l-3.2,4.2s0,.1-.1.1l-1.6,1.3-.8.8-.3.8v1.2c-.2,0-.2.1-.2.2l-1,2.6-.2,2.6c0,0,0,.2,0,.2l-.5,1.1c0,.2-.2.3-.4.4l-2,.8-.5.7-.9,2c0,0,0,.1-.1.2l-4.3,5.4-1.6,4.9s0,0,0,0l-1.1,2.3s0,0,0,.1l-5.1,7.6-.4,1.6s0,0,0,0l-.2.5c0,.1-.1.2-.2.3l-.5.4c0,0-.1.1-.2.1l-7.8,3.2-1.5.9-6.2,4.7-7.5,7.3-2.2,3.2s0,.1-.1.1l-.6.5s0,0,0,0l-.6.4-.8,1-1.7,2.9v.4c-.1,0-.3,1.8-.3,1.8,0,0,0,.1,0,.2l-.2.6c0,0,0,.1-.1.2l-.3.5c0,0-.1.1-.2.2l-2.9,2.1v.7c.2.3.1.5-.1.7l-.9.8c0,0-.1,0-.2.1l-1.9.9-.4.9c0,.2-.2.3-.4.4l-.4.3h0c0,.1.2.5.2.5l.4.3h.3c0-.1.8-.9.8-.9,0,0,.1,0,.2-.1l.6-.3c.3-.1.6-.1.9,0s.4.4.4.7v1.1c0,.1-.1.3-.2.4l-.5.7c0,0-.1.1-.2.2l-1,.7c0,0-.2.1-.3.1l-1,.3c-.2,0-.5,0-.7,0l-.4,1.2c0,0,0,.1,0,.2l-.4.8c0,0-.1.1-.2.2l-.4.4s0,0-.1.1l-1.2.6-.5.4-.6.9-.6,1.3-.4,1.4v1.4c-.2,0-.2.2-.2.3l-1.4,2.6-.7,1.7v.7c0,.2,0,.4,0,.5l-.2.3-.3,1.6s0,.1,0,.1l-.2.4c-.1.2-.3.4-.6.5h-.4c0,0-.6.3-.6.3l-.6.3-.2.2-.3,1.2c0,.2-.2.4-.4.5l-1.2.6c-.2,0-.3,0-.4,0ZM447.7,506l.2.3h.2c0-.1.3-.6.3-.6v-.5c.2,0,.2-.1.3-.2l.3-.3c.1-.1.3-.3.5-.3h.6c0-.2,0-.2,0-.2h.6c0,0,.2-.2.2-.2l.3-.3,1-1.2s0,0,0-.1l1.9-1.8h0c0-.1,0-.6,0-.6,0,0,0-.1,0-.2v-.6c0-.1,0-.2,0-.4l.5-.9.6-2.5c0,0,0-.1,0-.2l.7-1.3s0,0,0,0l1.3-1.9c0,0,0-.1.1-.1l1-.9s.1,0,.1-.1l2.2-1.1,2.1-1.4.3-.3h0c0-.1-2-3.5-2-3.5,0,0,0,0,0-.1l-.3-.9c0,0,0-.1,0-.2v-1.2c-.1,0-.1-.1-.1-.2l.2-1.1s0,0,0-.1l.3-.9v-.6s-.1-.2-.1-.2l-.2.3-.6,1.7s0,0,0,.1l-1,2s0,0,0,.1l-2.6,3.2-.5.7-.3.9-.2,2s0,0,0,.1l-.2.8c0,0,0,.2-.1.2l-.7.9c0,0-.1.1-.2.2l-1,.6c-.1,0-.2.1-.3.1h-1c0,.1,0,.2,0,.2h-.8s-.5.2-.5.2l-.2.9c0,.1-.1.2-.2.4l-.2.2c0,0-.2.1-.3.2h-.3c0,.1-1.1.9-1.1.9l-.5.6-.2.5-.4,4.1v.4c.1,0,.1.2.1.3v.9c-.1,0,0,1.6,0,1.6l.2,1.5ZM447.4,508c-.3,0-.6-.2-.7-.4l-.5-.9c0,0,0-.2,0-.2l-.3-1.7s0,0,0-.1v-1.7c0,0,0,0,0-.1v-.8c.1,0,0-.4,0-.4,0,0,0-.2,0-.2l.4-4.3c0,0,0-.1,0-.2l.3-.7c0,0,0-.1.1-.2l.6-.8s0,0,0,0l.3-.3s0,0,0,0l1-.7c0,0,.1,0,.2-.1h.2c0,0,.2-.8.2-.8,0,0,0,0,0-.1v-.3c.2-.2.4-.4.6-.4l1-.3c0,0,.2,0,.2,0h.9s.7-.1.7-.1l.7-.5.5-.6.2-.6.2-2s0-.1,0-.1l.4-1s0-.1,0-.1l.5-.8s0,0,0,0l2.6-3.2,1-1.9.6-1.8c0,0,0-.1.1-.2l.5-.6c.1-.1.3-.3.5-.3l.8-.2c.3,0,.7,0,.9.3l.7.9c0,.1.1.3.1.4v1c0,0,0,.1-.1.2l-.4,1-.2.9v1c.1,0,.4.8.4.8l2.2,3.7c.1.2.1.4,0,.6l-.2.6c0,.1-.1.2-.2.3l-.5.4s0,0,0,0l-2.1,1.5s0,0,0,0l-2.2,1.1-.9.7-1.2,1.8-.6,1.2-.6,2.5c0,0,0,.1,0,.2l-.4.8v.9c.1,0,.1,0,.1.1v.4c0,.1,0,.3-.1.4l-.2.4c0,0,0,.1-.1.2l-1.8,1.7-1,1.2s0,0,0,0l-.5.5c0,0-.2.2-.3.2l-.5.2c0,0-.1,0-.2,0l-1,.2v.5c-.2,0-.2.1-.3.2l-.5.6c0,0-.1.1-.2.2l-.6.4c-.1,0-.3.1-.4.2h-.6c0,0,0,0,0,0Z"/>
          <polygon class="cls-1" points="481.4 357 482.9 360.6 483.1 361.4 483.5 362.5 484.5 363.2 486.5 364.3 488.8 367.5 489.1 368.4 489.8 369.3 492.2 371.3 493.9 372.2 490.9 375.2 491 377.9 492 380.8 491.5 388.3 488.8 394.9 481.9 398.3 469.8 404.4 457.3 408.6 444.1 413 430 417.7 415.6 422.6 401.7 377.5 407.2 366.9 420 357.5 423.5 357.2 432.8 351.6 441.2 349.7 458 360.2 476.4 362.4 480.1 358.7 481.4 357.1 481.4 357"/>
          <path class="cls-1" d="M402.6,377.6l13.5,44,53.3-17.9,18.7-9.3,2.6-6.3.5-7.2-1-2.8c0,0,0-.1,0-.2v-2.7c0-.2,0-.4.2-.5l2.3-2.2-.8-.4c0,0-.1,0-.2-.1l-2.3-2s0,0,0,0l-.8-.9c0,0-.1-.2-.1-.2l-.3-.8-2-3-1.8-.9s0,0-.1,0l-1-.7c-.1,0-.2-.2-.3-.3l-.4-1.1s0,0,0,0l-.2-.8-.9-2.2-.4.5-3.7,3.8c-.2.2-.5.3-.7.2l-18.4-2.2c-.1,0-.2,0-.4-.1l-16.5-10.3-8,1.8-9.2,5.5c-.1,0-.2.1-.4.1l-3.2.4-12.5,9.1-5.3,10.2ZM415.6,423.3c-.1,0-.3,0-.4,0-.2-.1-.4-.3-.4-.5l-13.9-45c0-.2,0-.4,0-.5l5.5-10.6c0-.1.1-.2.2-.3l12.8-9.3c.1,0,.3-.1.4-.2l3.2-.4,9.1-5.4c0,0,.2,0,.2-.1l8.5-1.9c.2,0,.5,0,.7.1l16.6,10.4,17.8,2.2,3.4-3.5,1.2-1.5c.2-.2.5-.3.8-.3s.5.2.7.5l1.5,3.6s0,0,0,.1l.2.8.3.8.8.6,2,1c.1,0,.2.2.3.3l2.2,3.3s0,.1,0,.2l.3.8.6.7,2.2,1.9,1.6.8c.2.1.4.3.4.5,0,.2,0,.5-.2.6l-2.8,2.8v2.3c0,0,1.1,2.8,1.1,2.8,0,.1,0,.2,0,.3l-.5,7.4c0,0,0,.1,0,.2l-2.7,6.7c0,.2-.2.3-.4.4l-6.9,3.4-12.1,6.1s0,0-.1,0l-54.2,18.1c0,0-.2,0-.3,0Z"/>
          <polygon class="cls-1" points="418.3 311 421.8 312.4 422.7 312.6 423.7 313 425.7 314.9 426.7 315.6 428.7 316.2 431.3 316.5 434 316.5 436.3 316.1 437.5 315.6 438 315.3 438.4 314.2 438.9 314.2 440 314.5 442.3 314.5 443.6 314.8 444.8 315.3 445.2 316 446.4 318.2 446.9 318.7 447.1 318.8 447.4 319.1 447.6 319.3 447.8 319.5 447.9 319.5 448.2 319.4 448.6 319.4 449 319.5 449.8 320.1 450.2 320.6 450.5 321 450.9 321 451.2 320.3 451.4 320.6 451.5 320.8 451.6 321 451.7 321.4 452 321.4 452.1 321.2 452.4 320.7 452.7 320.9 452.9 321 453.6 320.7 454.9 322.3 455.3 323.3 455.1 324.1 455.5 324.9 456.1 327.4 456.8 328.5 460.1 331.3 462.1 332.2 462.9 333.2 463.9 335.6 464.4 336.5 466.1 338 467 339.1 467.4 342.4 471 345.8 471.2 346.2 471.6 347.9 471.8 348.3 472 348.5 473.6 349.7 476.6 351.3 478.5 352.6 479.9 354.2 480.9 355.9 481.4 357.1 481.4 357.1 480.1 358.7 476.4 362.5 458 360.2 441.2 349.7 443.8 337 429.7 323.6 417.6 325.1 417.6 325.1 416.1 319.6 417.9 311.6 417.8 311.6 417.8 311.4 418.3 311"/>
          <polygon class="cls-1" points="384.9 304.5 387.9 305.8 391.2 306.7 393.5 307.1 394.8 307.2 398.6 307 399.6 307.2 401.2 309.1 401.8 309.6 403.2 309.9 404.8 310.6 406.2 310.8 413.5 310.4 415.9 310.6 418.4 311.1 417.9 311.5 417.9 311.6 418 311.6 416.2 319.6 417.7 325.1 405.5 334.5 403.8 337.9 389.4 340.1 387.3 339.1 380.8 338.4 364.2 322.8 371.1 320.7 378.4 315 384.9 304.5"/>
          <polygon class="cls-1" points="415.6 422.6 421 439.9 427.2 456.5 409.4 448.1 317.4 405.7 328.5 392.5 337.4 367.8 348.1 323.5 364.3 322.8 380.8 338.4 387.3 339.1 389.4 340 403.8 337.9 405.4 334.4 417.6 325.1 417.6 325.1 429.7 323.6 443.9 337 441.2 349.7 432.8 351.7 423.5 357.2 420.1 357.6 407.3 366.9 401.7 377.5 415.6 422.6"/>
          <path class="cls-1" d="M318.7,405.4l91.1,42,15.9,7.5-5.6-14.8-5.4-17.3-13.9-45c0-.2,0-.4,0-.5l5.5-10.6c0-.1.1-.2.2-.3l12.8-9.3c.1,0,.3-.1.4-.2l3.2-.4,9.1-5.4c0,0,.2,0,.2-.1l7.9-1.8,2.4-11.8-13.5-12.8-11.5,1.4-11.8,9-1.6,3.3c-.1.2-.4.4-.6.4l-14.3,2.1c-.2,0-.3,0-.5,0l-2-.9-6.3-.7c-.2,0-.4-.1-.5-.2l-16.3-15.4-15.1.7-10.6,43.7s0,0,0,0l-8.9,24.7c0,0,0,.2-.1.2l-10.4,12.5ZM427.2,457.2c-.1,0-.3,0-.4,0l-17.8-8.4-92-42.4c-.2-.1-.4-.3-.4-.5,0-.2,0-.5.1-.6l11-13.1,8.8-24.5,10.7-44.2c0-.3.4-.6.8-.6l16.1-.7c.2,0,.5,0,.6.2l16.4,15.4,6.2.6c0,0,.2,0,.3,0l1.9.9,13.6-2,1.5-3.1c0-.1.1-.2.2-.3l12.2-9.3c.2-.1.4-.2.6-.2l11.9-1.5c.3,0,.5,0,.7.2l14.1,13.4c.2.2.3.4.2.7l-2.6,12.7c0,.3-.3.5-.6.6l-8.3,1.9-9.2,5.5c-.1,0-.2.1-.4.1l-3.2.4-12.5,9.1-5.3,10.2,13.8,44.8,5.3,17.3,6.2,16.6c.1.3,0,.6-.2.8-.1.2-.3.2-.5.2Z"/>
        </g>
      </g>
    </g>
  </g>
</svg>