<?xml version="1.0" encoding="UTF-8"?>
<svg id="Layer_1" data-name="Layer 1" xmlns="http://www.w3.org/2000/svg" viewBox="0 0 566.93 566.93">
  <defs>
    <style>
      .cls-1 {
        fill: #fff;
      }

      .cls-2 {
        fill: #fdb913;
      }
    </style>
  </defs>
  <path class="cls-2" d="m215.76,357.38l7.97-157.55s1.23-5.33,16.64-5.21c0,0,154.89-13.43,164.37-15.24,0,0-5.96,79.28-15.99,149.76,0,0-.72,17.19-22.67,18.79,0,0-118.93,15.71-126.99,15.64-10.09-.07-21.89,3.22-23.35-6.19"/>
  <rect class="cls-1" x="303.77" y="216.42" width="8.89" height="101.39"/>
  <rect class="cls-1" x="257.53" y="262.69" width="101.38" height="8.87"/>
  <polygon class="cls-1" points="275.52 306.1 269.24 299.83 340.92 228.13 347.2 234.42 275.52 306.1"/>
  <polygon class="cls-1" points="340.93 306.1 269.24 234.42 275.53 228.13 347.2 299.83 340.93 306.1"/>
</svg>