<?xml version="1.0" encoding="UTF-8"?>
<svg id="Layer_1" data-name="Layer 1" xmlns="http://www.w3.org/2000/svg" viewBox="0 0 566.93 566.93">
  <defs>
    <style>
      .cls-1 {
        fill: #fff;
      }

      .cls-2 {
        fill: #851f83;
      }
    </style>
  </defs>
  <path class="cls-2" d="m183.13,352.37l7.76-153.11s1.19-5.17,16.17-5.06c0,0,150.53-13.06,159.74-14.82,0,0-5.81,77.06-15.55,145.54,0,0-.7,16.7-22.03,18.27,0,0-115.57,15.26-123.41,15.2-9.8-.07-21.27,3.11-22.68-6.02"/>
  <path class="cls-1" d="m282.04,215.63h4.47v-2.84h-23.1v2.84h4.47v42.63l-2.71.81c-14.2,4.29-24.13,17.63-24.13,32.47,0,18.69,15.22,33.91,33.92,33.91s33.91-15.22,33.91-33.91c0-14.85-9.92-28.18-24.13-32.47l-2.71-.81"/>
  <path class="cls-2" d="m267.67,300.11c0,4.04-3.27,7.31-7.31,7.31s-7.3-3.26-7.3-7.31,3.27-7.31,7.3-7.31,7.31,3.27,7.31,7.31"/>
  <path class="cls-2" d="m287.68,286.03c0,2.53-2.05,4.57-4.57,4.57s-4.58-2.04-4.58-4.57,2.05-4.57,4.58-4.57,4.57,2.04,4.57,4.57"/>
  <path class="cls-2" d="m272.52,273.27c0,2.52-2.03,4.57-4.57,4.57s-4.57-2.05-4.57-4.57,2.04-4.57,4.57-4.57,4.57,2.05,4.57,4.57"/>
</svg>