<?xml version="1.0" encoding="UTF-8"?>
<svg id="Layer_1" data-name="Layer 1" xmlns="http://www.w3.org/2000/svg" viewBox="0 0 566.93 566.93">
  <defs>
    <style>
      .cls-1 {
        fill: #68ad45;
      }

      .cls-2 {
        fill: #fff;
      }
    </style>
  </defs>
  <path class="cls-1" d="m177.62,356.83l7.96-157.06s1.21-5.32,16.59-5.2c0,0,154.42-13.39,163.87-15.2,0,0-5.94,79.04-15.93,149.31,0,0-.71,17.14-22.61,18.74,0,0-118.56,15.66-126.6,15.59-10.06-.07-21.83,3.2-23.27-6.18"/>
  <path class="cls-2" d="m194.86,291.14c5.85,0,12.43-.82,18.24,0,6.28.89-4.25-6.22-.67-1.34,1.82,2.48,2.52,6.53,3.61,9.38,4.78,12.45,9.58,24.9,14.37,37.34,1.78,4.65,9.52,5.9,10.73,0,8.24-39.64,16.5-79.29,24.73-118.92h-10.73c4.43,29.81,8.88,59.63,13.33,89.44.88,5.96,9.08,4.55,10.73,0,6.33-17.45,12.69-34.89,19.03-52.34h-10.74c2.21,11.43,4.45,22.84,6.66,34.26.47,2.37,3.06,4.09,5.37,4.09h43.77c7.14,0,7.17-11.13,0-11.13-12.72,0-28.14,2.58-40.53,0-5.22-1.09,1.2,1.8,1.9,2.91-1.27-2-1.77-7.99-2.02-10.41-.79-7.53-2.96-15.22-4.41-22.67-1.14-5.85-9.03-4.7-10.74,0-6.34,17.44-12.68,34.89-19.02,52.32h10.73c-4.44-29.8-8.88-59.62-13.33-89.43-.8-5.46-9.64-5.15-10.73,0-8.24,39.64-16.48,79.28-24.74,118.94h10.73c-6.34-16.5-12.68-32.99-19.03-49.49-.89-2.32-2.74-4.09-5.36-4.09h-21.89c-7.17,0-7.18,11.13,0,11.13"/>
</svg>