<?xml version="1.0" encoding="UTF-8"?>
<svg id="Layer_1" data-name="Layer 1" xmlns="http://www.w3.org/2000/svg" viewBox="0 0 566.93 566.93">
  <defs>
    <style>
      .cls-1 {
        fill: #fff;
      }

      .cls-2 {
        fill: #009ec2;
      }
    </style>
  </defs>
  <path class="cls-1" d="m271.16,340.05c.35-9.32,23.3-24.8,23.81-40.47.49-15.22-13.21-28.81-23.81-38.27-10.59,9.46-24.29,23.05-23.8,38.27.5,15.67,23.46,31.15,23.8,40.47"/>
  <path class="cls-2" d="m180.63,353.39l7.8-154.01s1.19-5.21,16.26-5.09c0,0,151.42-13.13,160.69-14.9,0,0-5.84,77.51-15.63,146.39,0,0-.71,16.81-22.16,18.37,0,0-116.25,15.36-124.14,15.3-9.84-.08-21.4,3.14-22.81-6.06"/>
  <path class="cls-1" d="m272.05,215.88c2.33,9.89,4.98,17.77,7.94,23.64,2.95,5.87,7.47,12.22,13.55,19.06l2.62,2.92c7.91,8.82,11.87,17.64,11.87,26.47,0,9.73-3.53,18.11-10.6,25.09-7.05,6.97-15.52,10.47-25.37,10.47s-18.25-3.49-25.3-10.47c-7.07-6.99-10.59-15.36-10.59-25.09,0-8.83,3.95-17.65,11.87-26.47l2.61-2.92c6.07-6.84,10.59-13.19,13.54-19.06,2.96-5.86,5.58-13.75,7.86-23.64"/>
  <path class="cls-2" d="m254.5,324.66c11.92-.66,22.4-5.63,28.61-14.75,6.22-9.13,6.99-20.69,3.21-32.02-11.92.65-22.41,5.61-28.61,14.74-6.21,9.13-6.99,20.7-3.21,32.03"/>
</svg>