<?xml version="1.0" encoding="UTF-8"?>
<svg xmlns="http://www.w3.org/2000/svg" version="1.1" viewBox="0 0 3043.9 1732.5">
  <defs>
    <style>
      .cls-1 {
        stroke: #fdb913;
      }

      .cls-1, .cls-2 {
        fill: none;
        stroke-miterlimit: 10;
        stroke-width: 3px;
      }

      .cls-2 {
        stroke: #851f83;
      }
    </style>
  </defs>
  <!-- Generator: Adobe Illustrator 28.7.3, SVG Export Plug-In . SVG Version: 1.2.0 Build 164)  -->
  <g>
    <g id="Layer_1">
      <path class="cls-2" d="M2965.6,289.3c-1.1,55.6-1.8,110.9-2.8,166.1l46.9-60.1c1.6-2.8,5.3-8.2,12.5-16.8,45.7-55.4,24.2-77.1-.7-85.2-18.4-1.2-37-2.6-56-4.1"/>
      <path class="cls-2" d="M3137.9,351.2c-53.9,58.8-120.6,132.6-176.9,193.9-.3,12.4-.4,25-.6,37.5,50.9,1.5,96.2,2.4,147.4,2.9,10.6-.2,23.9.2,38.1.2l-8.1-234.5h0Z"/>
      <path class="cls-2" d="M3141.3-26.2c.1-9.1.8-18.6.9-27.7v-.9h.2c1.2-21,2.1-42.2,3.4-63.6-7.7,0-15.1-.4-22.1-.4-50.6-1.3-101-1.9-151.8-2.6l108.4,126.6c44.6,45.4,57.6,1.5,61.1-31.3"/>
      <path class="cls-2" d="M2903.7-122.8c-79.5-1-159.1-4.8-238.6-4.5-47.8.1-148.9-17.6-147.1,30.6-1.8,96.2-2.2,185.9-1.3,282.3,92.7-15.7,576.2-52.5,576.2-52.5-58.4-78.7-134.2-181.5-189.2-255.8"/>
      <path class="cls-1" d="M2821.6,635.3l43.7-56,97.4-124c.9-55.2,1.7-110.4,2.8-166.1-151.3-10.8-319.4-22.9-325.8-23.3-34-2.8-81.1-5.9-122.8-11-39.9-4.9-75.4-11.4-91.3-20.2,5.6,198,18.4,401.1,34.6,597.9,4.7,58.8,97.4,56.7,133,60.3,74,5,147.6,12.8,221.4,17.1,30.5.4,85.9,5.9,117.5,0,23.8-4.6,22.5-44.3,22.9-56.4,1.9-90.4,3.9-180.4,5.5-270.9.2-12.5.3-25.1.6-37.5-11.6,12.8-22.9,25.1-33.3,36.6-44,48.3-75.8,83.3-78,85.6-53.3,58.9-152.9,167.6-159,156.8-7.5-14.3,89.8-133.3,130.6-188.6l.2-.2h0Z"/>
    </g>
  </g>
</svg>