<?xml version="1.0" encoding="UTF-8"?>
<svg id="Layer_1" data-name="Layer 1" xmlns="http://www.w3.org/2000/svg" viewBox="0 0 566.93 566.93">
  <defs>
    <style>
      .cls-1 {
        stroke: #009ec2;
      }

      .cls-1, .cls-2 {
        fill: none;
        stroke-miterlimit: 10;
      }

      .cls-2 {
        stroke: #68ad45;
      }
    </style>
  </defs>
  <path class="cls-2" d="m292.59,70.71l-82.37,104.97c-9.56,17.45,3.89,22.45,13.53,23.83,2.31.19,4.69.32,7.12.5h1.13-.29c16.59,1.21,33.91,2.49,50.26,3.57,6.84.09,9.41-3.57,9.91-7.34.94-41.9.94-83.67.72-125.52"/>
  <path class="cls-2" d="m236.51,55.71c-15.96-.67-32.1-1.2-48.06-1.8-5.64-.08-13.91-.33-22.32-.5l3.27,55.05,4.1,68.36c.33-.29.57-.59.85-.79,38.98-42.92,96.11-105.59,107.49-118.03-16.23-2.55-34.11-1.45-45.33-2.29"/>
  <path class="cls-1" d="m364.66,244.89l-173.97,15.52c38.63,52.29,97.68,132.27,99.41,134.58,18.47,24.94,42.83,58.58,39.44,61.42-4.63,3.68-31.97-29.08-49.43-48.14l-.09-.05-86.58-101.06c-13.25-12.56-18.66-3.51-20.9,7.11-1.33,26.69-2.79,56.18-4.02,83.52-1.15,28.7-2.34,57.35-3.66,85.92-.25,3.06,2.09,5.6,5.59,6.98,10.7,4,35.35.05,47.44-1.37,42.54-4.51,84.19-8.32,125.99-16.19,14.48-2.71,27.14-4.29,36.26-7.15,15.18-4.88,16.72-15.91,18.63-29.97,7.52-51.95,15.71-133.46,19.44-197.72-18.26,2.82-40.09,4.45-53.41,6.59l-.14.02Z"/>
</svg>